<?xml version="1.0" standalone="no"?>
<!DOCTYPE svg PUBLIC "-//W3C//DTD SVG 1.1//EN" "http://www.w3.org/Graphics/SVG/1.1/DTD/svg11.dtd" >
<svg xmlns="http://www.w3.org/2000/svg">
<metadata>
Created by FontPrep 20130207 at Fri Oct 17 21:16:20 2014
 By Jirayu L.
Copyright (c) 2009, 2013 Cadson Demak Co. Ltd., Thailand. All Rights Reserved.
</metadata>
<defs>
<font id="693a6f9671df4b632775e31604060698" horiz-adv-x='1024' >
  <font-face 
    font-family="SukhumvitSet-Bold"
    font-weight="700"
    font-stretch="normal"
    units-per-em="2048"
    panose-1="2 0 5 6 0 0 0 2 0 4"
    ascent="1638"
    descent="-410"
    x-height="989"
    cap-height="1380"
    bbox="-1346 -971 2343 2259"
    underline-thickness="102"
    underline-position="-153"
    unicode-range="U+000D-FB02"
  />
<missing-glyph horiz-adv-x="1054" 
d="M250 129h553v1122h-553v-1122zM123 0v1378h809v-1378h-809z" />
    <glyph glyph-name="uni0E5A" unicode="&#xe2f;&#xe2f;" horiz-adv-x="1660" 
d="M739 0v784q-41 -74 -123 -123t-178 -49q-181 0 -279 115.5t-98 294.5v125h263v-125q0 -106 41 -153.5t99 -47.5q117 0 198 71.5t81 186.5v68h263v-346q102 4 181 83t79 195v68h262v-1147h-266v784q-35 -66 -102.5 -120t-153.5 -68v-596h-267z" />
    <glyph glyph-name="uni0E4F.liga" unicode="&#xe4f;&#x22;" horiz-adv-x="1118" 
d="M651 1016l-30 393h188l-31 -393h-127zM340 1016l-31 393h189l-31 -393h-127zM558 389q42 0 70.5 30t28.5 72t-29.5 70.5t-70.5 28.5t-70.5 -30t-29.5 -70.5t29.5 -70.5t71.5 -30zM380 311.5q-75 71.5 -75 178.5q0 106 73.5 179.5t179.5 73.5t179.5 -73.5t73.5 -178.5
t-74.5 -178t-177.5 -73q-104 0 -179 71.5zM559 145q72 0 135.5 27t110.5 74t73.5 110.5t26.5 135t-26.5 134t-73.5 109.5t-110.5 75t-135.5 28t-134.5 -28t-109.5 -75t-74.5 -109.5t-27.5 -134t27.5 -135t74.5 -110.5t109.5 -74t134.5 -27zM559 53q-90 0 -170 35
t-139.5 94.5t-93 139t-33.5 170t33.5 170t93 139t139.5 93.5t170 34t170 -34t139.5 -93.5t93 -139t33.5 -170t-33.5 -170t-93 -139t-139.5 -94.5t-170 -35z" />
    <glyph glyph-name="uni0E24.liga" unicode="&#xe24;&#xe32;" horiz-adv-x="1994" 
d="M401 481v-239q0 -33 31 -33h119v-209h-180q-119 0 -177.5 60.5t-58.5 164.5v254q0 66 31 117t78 80l-166 135q41 143 196 251.5t374 108.5t358 -127q158 127 377 127t349 -126t130 -332v-1123h-267v1123q0 123 -65.5 184t-154.5 61q-153 0 -259 -86q27 -72 27 -159v-1123
h-266v1123q0 123 -68 184t-192 61t-184 -56t-75 -83l172 -145q-129 -47 -129 -193z" />
    <glyph glyph-name="uni0E26.liga" unicode="&#xe26;&#xe32;" horiz-adv-x="2015" 
d="M1022 1042q155 129 378 129t352.5 -125.5t129.5 -332.5v-1123h-266v1123q0 123 -66 184t-156 61q-162 0 -261 -90q25 -74 24 -155v-1123h-266v1123q0 123 -66.5 184t-170.5 61t-178.5 -43t-104.5 -96l192 -153q-63 -23 -92 -65t-29 -120v-256q0 -104 -58 -164.5
t-177 -60.5h-156v209h94q31 0 31 33v237q0 127 100 189l-186 143q42 146 197 253t374 107t361 -129z" />
    <glyph glyph-name="fi" unicode="fi" horiz-adv-x="1204" 
d="M644 1217q-110 0 -165 -50.5t-55 -177.5h641v-989h-262v805h-379v-805h-256v805h-152v184h152q0 200 120.5 308t301.5 108t291 -64l-54 -157q-73 33 -183 33z" />
    <glyph glyph-name="fl" unicode="fl" horiz-adv-x="1265" 
d="M1126 0h-262v1190q-101 27 -216 27q-114 0 -169 -50.5t-55 -177.5h272v-184h-272v-805h-256v805h-152v184h152q0 201 129 308.5t372 107.5t457 -100v-1305z" />
    <glyph glyph-name=".notdef" horiz-adv-x="1054" 
d="M250 129h553v1122h-553v-1122zM123 0v1378h809v-1378h-809z" />
    <glyph glyph-name=".null" 
 />
    <glyph glyph-name=".null" 
 />
    <glyph glyph-name="nonmarkingreturn" unicode="&#xd;" horiz-adv-x="399" 
 />
    <glyph glyph-name="space" unicode=" " horiz-adv-x="471" 
 />
    <glyph glyph-name="exclam" unicode="!" horiz-adv-x="557" 
d="M113 133.5q0 63.5 43 111.5t122.5 48t122.5 -48t43 -111.5t-43 -112t-122.5 -48.5t-122.5 48.5t-43 112zM143 1380h271v-338l-45 -645h-181l-45 645v338z" />
    <glyph glyph-name="quotedbl" unicode="&#x22;" horiz-adv-x="778" 
d="M481 926l-39 483h244l-39 -483h-166zM131 926l-39 483h244l-39 -483h-166z" />
    <glyph glyph-name="numbersign" unicode="#" horiz-adv-x="1208" 
d="M473 578h221l39 178h-219zM127 948h209l84 383h219l-82 -383h215l84 383h219l-84 -383h170v-194h-211l-39 -174h172v-193h-211l-84 -387h-219l82 387h-215l-82 -387h-221l84 387h-170v193h211l39 174h-170v194z" />
    <glyph glyph-name="dollar" unicode="$" horiz-adv-x="1208" 
d="M821 373q0 59 -42 95t-103 62v-323q145 44 145 166zM391 986q0 -58 44 -96t110 -65v308q-154 -27 -154 -147zM545 190v385q-177 58 -251.5 115.5t-114.5 127t-40 155.5q0 166 103 264t303 115v184h131v-182q175 -7 336 -86l-66 -197q-135 59 -270 68v-359
q185 -68 290 -156t105 -255q0 -248 -154.5 -311.5t-240.5 -73.5v-189h-131v180q-254 6 -414 101l66 211q72 -41 166 -69t182 -28z" />
    <glyph glyph-name="percent" unicode="%" horiz-adv-x="1622" 
d="M946 338q0 74 21.5 139.5t61.5 115.5t96.5 78.5t128 28.5t128 -28.5t96.5 -78.5t61.5 -115.5t21.5 -139.5t-21.5 -139.5t-61.5 -115.5t-96.5 -79t-128 -29t-128 29t-96.5 79t-61.5 115.5t-21.5 139.5zM1155 338q0 -86 25.5 -144.5t72.5 -58.5t73 58.5t26 144.5t-26 144.5
t-73 58.5t-72.5 -58.5t-25.5 -144.5zM61 993.5q0 73.5 21.5 139t61.5 115.5t96.5 79t128 29t128 -29t96.5 -79t61.5 -115.5t21.5 -139t-21.5 -139.5t-61.5 -116t-96.5 -78.5t-128 -28.5t-128 28.5t-96.5 78.5t-61.5 116t-21.5 139.5zM270 993q0 -86 26 -144t73 -58t72.5 58
t25.5 144t-25.5 144.5t-72.5 58.5t-73 -58.5t-26 -144.5zM1065 1352h244l-752 -1352h-244z" />
    <glyph glyph-name="ampersand" unicode="&#x26;" horiz-adv-x="1333" 
d="M569 1196q-118 0 -118 -121q0 -65 67 -157l23 -27q57 31 98 79t41 102t-28.5 89t-82.5 35zM373 407q0 -96 58 -148t163 -52t184 47l-295 342q-110 -93 -110 -189zM594 -25q-252 0 -380 117.5t-128 296.5t97.5 264.5t146.5 120.5q-53 53 -98.5 134t-45.5 157
q0 154 98.5 247t286.5 93t280.5 -88t92.5 -223q0 -167 -104.5 -249.5t-157.5 -115.5l268 -309q41 74 41 192v105h262v-105q0 -222 -133 -387l193 -225h-312l-73 84q-141 -109 -334 -109z" />
    <glyph glyph-name="quotesingle" unicode="'" horiz-adv-x="428" 
d="M131 926l-39 483h244l-39 -483h-166z" />
    <glyph glyph-name="parenleft" unicode="(" horiz-adv-x="643" 
d="M221.5 1110.5q119.5 199.5 331.5 325.5l70 -125q-135 -92 -205 -287.5t-70 -504t101.5 -459t173.5 -199.5l-70 -125q-210 123 -330.5 323t-120.5 526t119.5 525.5z" />
    <glyph glyph-name="parenright" unicode=")" horiz-adv-x="643" 
d="M420.5 59q-120.5 -200 -330.5 -323l-70 125q205 143 240 376.5t35 411t-68.5 371.5t-206.5 291l70 125q210 -123 330.5 -324t120.5 -527t-120.5 -526z" />
    <glyph glyph-name="asterisk" unicode="*" horiz-adv-x="968" 
d="M907 770l-157 -149l-191 213q10 -66 23.5 -149t23.5 -150h-241l51 303l-197 -217q-41 41 -79 75.5t-79 73.5l308 184q-72 41 -150 90.5t-151 90.5l153 149l191 -203l-47 299h241l-47 -297l189 201l153 -149l-301 -181q72 -45 153 -92t154 -92z" />
    <glyph glyph-name="plus" unicode="+" horiz-adv-x="1208" 
d="M1055 477h-326v-330h-250v330h-325v209h325v330h250v-330h326v-209z" />
    <glyph glyph-name="comma" unicode="," horiz-adv-x="536" 
d="M440 270l-178 -526h-174l53 526h299z" />
    <glyph glyph-name="hyphen" unicode="-" horiz-adv-x="675" 
d="M635 633v-209h-594v209h594z" />
    <glyph glyph-name="period" unicode="." horiz-adv-x="536" 
d="M102 133.5q0 63.5 43 111.5t123 48t123 -48t43 -111.5t-43 -112t-123 -48.5t-123 48.5t-43 112z" />
    <glyph glyph-name="slash" unicode="/" horiz-adv-x="813" 
d="M233 -82h-233l580 1462h233z" />
    <glyph glyph-name="zero" unicode="0" horiz-adv-x="1208" 
d="M604 193q117 0 188.5 116.5t71.5 356t-71.5 356.5t-188.5 117t-188.5 -117t-71.5 -356.5t71.5 -356t188.5 -116.5zM604 1356q121 0 218.5 -47t166 -136.5t105 -217.5t36.5 -289.5t-36.5 -289.5t-105 -217t-166 -136.5t-218.5 -47.5t-218 47.5t-165.5 136.5t-105.5 217
t-37 289.5t37 289.5t105.5 217.5t165.5 136.5t218 47z" />
    <glyph glyph-name="one" unicode="1" horiz-adv-x="1208" 
d="M754 1331v-1110l295 4v-225h-869v225l307 -4v860l-266 -65v196l334 119h199z" />
    <glyph glyph-name="two" unicode="2" horiz-adv-x="1208" 
d="M561 1356q238 0 348.5 -104.5t110.5 -276.5q0 -203 -157.5 -373t-231.5 -244l-129 -129h555v-229h-942v174l325 334q176 181 247 274.5t71 181.5q0 175 -194 175t-345 -80l-59 196q124 68 235 84.5t166 16.5z" />
    <glyph glyph-name="three" unicode="3" horiz-adv-x="1208" 
d="M819 399q0 127 -98 154t-148 27h-229v208h229q83 0 146 49.5t63 127.5t-62.5 126t-182.5 48q-201 0 -353 -80l-59 196q66 35 181.5 68t242.5 33q235 0 365 -105.5t130 -267.5q0 -199 -204 -285q102 -25 173.5 -110.5t71.5 -189.5q0 -198 -146.5 -310.5t-371.5 -112.5
q-141 0 -263 30t-189 71l59 196q150 -79 367 -79q123 0 200.5 58t77.5 148z" />
    <glyph glyph-name="four" unicode="4" horiz-adv-x="1208" 
d="M971 1331v-878h147v-213h-147v-240h-262v240h-633v170l672 921h223zM713 453v489l-355 -489h355z" />
    <glyph glyph-name="five" unicode="5" horiz-adv-x="1208" 
d="M532 193q129 0 198 67t69 166q0 217 -258 217h-369v158l53 530h762v-229h-541l-18 -230h115q256 0 389 -116.5t133 -324.5t-142.5 -332t-401.5 -124q-260 0 -419 101l68 207q162 -90 362 -90z" />
    <glyph glyph-name="six" unicode="6" horiz-adv-x="1208" 
d="M692 1143q-216 0 -263.5 -142.5t-53.5 -224.5q49 41 131 74t178 33q190 0 310 -108.5t120 -315.5t-132.5 -345.5t-342.5 -138.5q-248 0 -390.5 172t-142.5 505t155.5 518.5t410.5 185.5q169 0 334 -94l-66 -199q-115 80 -248 80zM643 678q-155 0 -274 -109
q4 -175 80.5 -278t178.5 -103q101 0 165.5 70t64.5 184t-54.5 175t-160.5 61z" />
    <glyph glyph-name="seven" unicode="7" horiz-adv-x="1208" 
d="M147 1331h938v-164l-524 -1167h-272l499 1106h-641v225z" />
    <glyph glyph-name="eight" unicode="8" horiz-adv-x="1208" 
d="M604 780q92 0 149.5 50.5t57.5 137.5t-58.5 135t-148.5 48t-148.5 -48t-58.5 -135t57.5 -137.5t149.5 -50.5zM143 993q0 172 121 267.5t340 95.5t340 -95.5t121 -267.5q0 -197 -188 -295q148 -55 186.5 -158.5t38.5 -160.5q0 -193 -134 -298.5t-363.5 -105.5t-364 105.5
t-134.5 298.5q0 110 65.5 197t160.5 122q-189 99 -189 295zM604.5 184q108.5 0 174 53.5t65.5 145.5t-61.5 142t-178.5 50t-178 -50t-61 -142t65.5 -145.5t174 -53.5z" />
    <glyph glyph-name="nine" unicode="9" horiz-adv-x="1208" 
d="M834 555q-127 -106 -314 -106q-188 0 -307 108.5t-119 314.5t133 345t342 139q248 0 390.5 -172t142.5 -506t-155.5 -518.5t-409.5 -184.5q-218 0 -355 76l66 199q110 -62 266 -62t234.5 99.5t85.5 267.5zM565 653q156 0 275 109q-4 175 -81 278t-178 103
q-102 0 -166.5 -69.5t-64.5 -183.5t54.5 -175.5t160.5 -61.5z" />
    <glyph glyph-name="colon" unicode=":" horiz-adv-x="577" 
d="M123 829.5q0 63.5 43 111.5t123 48t123 -48t43 -111.5t-43 -111.5t-123 -48t-123 48t-43 111.5zM123 133.5q0 63.5 43 111.5t123 48t123 -48t43 -111.5t-43 -112t-123 -48.5t-123 48.5t-43 112z" />
    <glyph glyph-name="semicolon" unicode=";" horiz-adv-x="577" 
d="M442 270l-178 -526h-174l53 526h299zM123 829.5q0 63.5 43 111.5t123 48t123 -48t43 -111.5t-43 -111.5t-123 -48t-123 48t-43 111.5z" />
    <glyph glyph-name="less" unicode="&#x3c;" horiz-adv-x="1208" 
d="M123 702l926 504v-252l-641 -325l641 -326v-250l-926 502v147z" />
    <glyph glyph-name="equal" unicode="=" horiz-adv-x="1208" 
d="M1044 285h-880v188h880v-188zM1044 662h-880v188h880v-188z" />
    <glyph glyph-name="greater" unicode="&#x3e;" horiz-adv-x="1208" 
d="M1085 555l-925 -502v250l641 326l-641 325v252l925 -504v-147z" />
    <glyph glyph-name="question" unicode="?" horiz-adv-x="1026" 
d="M317 133.5q0 63.5 43 111.5t123 48t123 -48t43 -111.5t-43 -112t-123 -48.5t-123 48.5t-43 112zM338 467q0 57 23.5 108.5t59.5 94.5t77 83t100 110t59 170t-70.5 127.5t-121.5 27.5q-171 0 -330 -94l-63 204q188 107 409 107t332 -101.5t111 -264.5t-170 -314.5
t-170 -272.5q0 -54 10 -92h-225q-31 50 -31 107z" />
    <glyph glyph-name="at" unicode="@" horiz-adv-x="1716" 
d="M1231 535q0 -121 76 -121q47 0 82.5 79t35.5 211q0 261 -140 408.5t-412 147.5q-271 0 -429.5 -168t-158.5 -426t161.5 -401.5t371.5 -143.5t343 98l70 -133q-87 -56 -253.5 -105.5t-425.5 42t-344 280.5t-85 347t52 295.5t150.5 239t240 161t310.5 59.5
q330 0 523.5 -192t193.5 -504q0 -219 -85 -334t-210 -115q-81 0 -138.5 48t-74.5 114q-112 -158 -271 -158t-253 110t-94 302q0 292 150.5 359t273.5 67q185 0 340 -84v-483zM670 676q0 -127 48 -182.5t122 -55.5t127 68.5t53 189.5v209q-57 20 -129 21q-119 0 -170 -61.5
t-51 -188.5z" />
    <glyph glyph-name="A" unicode="A" horiz-adv-x="1290" 
d="M473 530h344l-67 207l-103 353h-4l-102 -353zM895 309h-500l-104 -309h-279l498 1380h270l498 -1380h-279z" />
    <glyph glyph-name="B" unicode="B" horiz-adv-x="1286" 
d="M707 819q86 0 141 42t55 127t-53 129t-145 44h-304v-342h306zM692 219q123 0 192.5 53.5t69.5 145.5t-70.5 139t-197.5 47h-285v-385h291zM1212 403q0 -284 -190.5 -343.5t-325.5 -59.5h-553v1380h562q231 0 341.5 -101t110.5 -257q0 -196 -184 -291
q100 -29 169.5 -109.5t69.5 -218.5z" />
    <glyph glyph-name="C" unicode="C" horiz-adv-x="1193" 
d="M735 -25q-312 0 -486.5 199.5t-174.5 515.5t174.5 515.5t486.5 199.5q217 0 389 -92l-65 -203q-145 78 -303 78q-207 0 -311.5 -131t-104.5 -366.5t105.5 -366.5t310.5 -131q158 0 315 86l62 -205q-173 -99 -398 -99z" />
    <glyph glyph-name="D" unicode="D" horiz-adv-x="1357" 
d="M1014 753q0 180 -112 289t-329 109h-163v-922h163q320 0 380.5 172t60.5 352zM1280 691q0 -339 -181 -515t-526 -176h-430v1380h430q344 0 525.5 -175t181.5 -514z" />
    <glyph glyph-name="E" unicode="E" horiz-adv-x="1134" 
d="M143 1380h897v-225h-639v-338h600v-225h-600v-367h652v-225h-910v1380z" />
    <glyph glyph-name="F" unicode="F" horiz-adv-x="1085" 
d="M143 1380h881v-225h-623v-352h584v-230h-584v-573h-258v1380z" />
    <glyph glyph-name="G" unicode="G" horiz-adv-x="1345" 
d="M460 1060q-120 -128 -120 -364t100 -366.5t254 -130.5q186 0 228.5 107.5t42.5 178.5v82h-267v221h525v-788h-230l-28 162q-102 -180 -320 -180q-255 0 -413 190.5t-158 518.5t187.5 521t508.5 193q221 0 397 -92l-65 -203q-144 78 -311 78q-211 0 -331 -128z" />
    <glyph glyph-name="H" unicode="H" horiz-adv-x="1380" 
d="M971 590h-561v-590h-267v1380h267v-561h561v561h266v-1380h-266v590z" />
    <glyph glyph-name="I" unicode="I" horiz-adv-x="552" 
d="M410 0h-267v1380h267v-1380z" />
    <glyph glyph-name="J" unicode="J" horiz-adv-x="825" 
d="M265 205q91 0 124 46t33 157v972h266v-972q0 -225 -101.5 -329t-275.5 -104q-88 0 -170 24t-129 54l64 215q98 -63 189 -63z" />
    <glyph glyph-name="K" unicode="K" horiz-adv-x="1269" 
d="M410 0h-267v1380h267v-1380zM705 733l585 -733h-307l-510 645v168l504 567h299z" />
    <glyph glyph-name="L" unicode="L" horiz-adv-x="1064" 
d="M410 229h610v-229h-877v1380l267 2v-1153z" />
    <glyph glyph-name="M" unicode="M" horiz-adv-x="1658" 
d="M401 676v-676h-258v1380h299l279 -635q86 -193 106 -344h4q19 147 107 344l279 635h299v-1380h-259v676q0 168 39 397h-6q-55 -204 -119 -356l-217 -506h-249l-218 506q-67 160 -118 356h-7q39 -229 39 -397z" />
    <glyph glyph-name="N" unicode="N" horiz-adv-x="1396" 
d="M987 625v755h266v-1380h-266l-471 782q-90 151 -135 287h-6q35 -188 35 -313v-756h-267v1380h287l451 -782q90 -151 135 -287h6q-35 188 -35 314z" />
    <glyph glyph-name="O" unicode="O" horiz-adv-x="1437" 
d="M74 690.5q0 151.5 41 282.5t121.5 227t201.5 150.5t281 54.5t280.5 -54.5t201.5 -150.5t122 -227t41 -282.5t-41 -283t-122 -227.5t-201.5 -150.5t-280.5 -54.5t-281 54.5t-201.5 150.5t-121.5 227.5t-41 283zM340 690.5q0 -235.5 96 -366.5t282.5 -131t283 131
t96.5 366.5t-96.5 366.5t-283 131t-282.5 -131t-96 -366.5z" />
    <glyph glyph-name="P" unicode="P" horiz-adv-x="1191" 
d="M856 933q0 101 -55.5 159.5t-159.5 58.5h-231v-440h219q106 0 166.5 60.5t60.5 161.5zM988 611q-134 -130 -359 -130h-219v-481h-267v1380h498q222 0 351.5 -125.5t129.5 -319.5t-134 -324z" />
    <glyph glyph-name="Q" unicode="Q" horiz-adv-x="1437" 
d="M340 690.5q0 -235.5 96 -366.5t282.5 -131t283 131t96.5 366.5t-96.5 366.5t-283 131t-282.5 -131t-96 -366.5zM1196 1206q168 -199 168 -516q0 -409 -174 -536t-289 -156q-16 -39 -52 -74t-69 -51h387v-197h-751v197h43q149 0 182 107q-273 23 -420 218t-147 502
t167 506t477 199t478 -199z" />
    <glyph glyph-name="R" unicode="R" horiz-adv-x="1230" 
d="M891 949q0 93 -56.5 147.5t-170.5 54.5h-254v-406h254q106 0 166.5 55.5t60.5 148.5zM1157 952q0 -143 -81 -243.5t-208 -145.5l326 -563h-285l-297 516h-202v-516h-267v1380h519q229 0 362 -120.5t133 -307.5z" />
    <glyph glyph-name="S" unicode="S" horiz-adv-x="1103" 
d="M597 1182q-140 0 -199.5 -43t-59.5 -99q0 -95 69 -140.5t168 -78.5t174.5 -64.5t176 -111.5t100.5 -269t-142 -295t-386 -106t-428 105l67 217q177 -98 352 -98q117 0 197 46t80 142q0 118 -114 157.5t-172 58.5q-173 56 -287.5 147t-114.5 276q0 264 179 321.5t302 57.5
q230 0 406 -90l-68 -205q-160 72 -300 72z" />
    <glyph glyph-name="T" unicode="T" horiz-adv-x="1064" 
d="M666 0h-267v1155l-395 -4v229h1057v-229l-395 4v-1155z" />
    <glyph glyph-name="U" unicode="U" horiz-adv-x="1384" 
d="M692 193q135 0 212 91t77 275v821h266v-819q0 -299 -147.5 -442.5t-407.5 -143.5t-407.5 143.5t-147.5 442.5v819h266v-821q0 -184 77 -275t212 -91z" />
    <glyph glyph-name="V" unicode="V" horiz-adv-x="1277" 
d="M979 1380h283l-484 -1380h-278l-484 1380h283l236 -737l102 -373h4l102 373z" />
    <glyph glyph-name="W" unicode="W" horiz-adv-x="1845" 
d="M1049 1380l184 -596q60 -185 106 -563h7q11 235 36 395t35 203l121 561h270l-315 -1380h-266l-219 723q-32 108 -53 243.5t-29 182.5h-6q-8 -47 -32 -192t-50 -234l-220 -723h-266l-315 1380h270l121 -561q58 -314 72 -598h6q47 386 106 563l185 596h252z" />
    <glyph glyph-name="X" unicode="X" horiz-adv-x="1284" 
d="M788 715l488 -715h-293l-340 528h-4l-338 -528h-293l486 715l-453 665h297l301 -477h4l303 477h297z" />
    <glyph glyph-name="Y" unicode="Y" horiz-adv-x="1220" 
d="M743 0h-266v588l-461 792h289l307 -565l303 565h289l-461 -792v-588z" />
    <glyph glyph-name="Z" unicode="Z" horiz-adv-x="1140" 
d="M119 1380h932v-163l-654 -992l662 4v-229h-993v164l655 995l-602 -4v225z" />
    <glyph glyph-name="bracketleft" unicode="[" horiz-adv-x="606" 
d="M143 1401h443v-176h-197v-1291h197v-176h-443v1643z" />
    <glyph glyph-name="backslash" unicode="\" horiz-adv-x="813" 
d="M0 1380h233l580 -1462h-233z" />
    <glyph glyph-name="bracketright" unicode="]" horiz-adv-x="606" 
d="M463 -242h-443v176h197v1291h-197v176h443v-1643z" />
    <glyph glyph-name="asciicircum" unicode="^" horiz-adv-x="1163" 
d="M1102 565h-279l-241 543l-242 -543h-279l414 815h213z" />
    <glyph glyph-name="underscore" unicode="_" horiz-adv-x="919" 
d="M920 -113v-209h-920v209h920z" />
    <glyph glyph-name="grave" unicode="`" horiz-adv-x="675" 
d="M412 1208l-72 -110l-420 215l137 196z" />
    <glyph glyph-name="a" unicode="a" horiz-adv-x="1042" 
d="M66 279q0 267 174 305.5t278 38.5h139v32q0 158 -180 158q-152 0 -291 -82l-57 180q63 43 163.5 73t215.5 30q207 0 305 -98.5t98 -274.5v-641h-225l-29 129q-96 -154 -284 -154q-131 0 -219 84t-88 220zM657 451h-141q-98 0 -151.5 -43.5t-53.5 -109.5t33 -100t83 -34
q99 0 164.5 69t65.5 168v50z" />
    <glyph glyph-name="b" unicode="b" horiz-adv-x="1169" 
d="M135 1380h262v-520q71 96 164.5 125t169.5 29t148.5 -42t144.5 -145t72 -334t-119 -374.5t-289 -143.5q-115 0 -181.5 47.5t-109.5 106.5l-28 -129h-234v1380zM627 805q-124 0 -230 -131v-209q0 -129 59.5 -205t153.5 -76q158 0 191 118t33 232t-57.5 192.5t-149.5 78.5z
" />
    <glyph glyph-name="c" unicode="c" horiz-adv-x="946" 
d="M592 813q-258 0 -258 -232.5t62.5 -318.5t197.5 -86t254 66l57 -187q-137 -80 -327 -80q-243 0 -374.5 147t-131.5 374q0 355 190 436.5t294 81.5q197 0 333 -80l-55 -182q-107 61 -242 61z" />
    <glyph glyph-name="d" unicode="d" horiz-adv-x="1169" 
d="M772 129q-112 -154 -268 -154q-190 0 -310 140.5t-120 370.5t109.5 379t301.5 149q111 0 178.5 -48t108.5 -106v520h262v-1380h-233zM551 805q-84 0 -149.5 -80t-65.5 -227q0 -238 89 -276t134 -38q94 0 153.5 76t59.5 205v209q-37 55 -87 93t-134 38z" />
    <glyph glyph-name="e" unicode="e" horiz-adv-x="1042" 
d="M725 586q0 237 -172 237q-98 0 -158.5 -70.5t-70.5 -193.5h401v27zM330 406q44 -230 292 -230q116 0 232 62l57 -183q-135 -80 -336 -80q-246 0 -374.5 138.5t-128.5 375.5t121.5 381t357.5 144q194 0 307 -117t113 -309q0 -94 -29 -182h-612z" />
    <glyph glyph-name="f" unicode="f" horiz-adv-x="724" 
d="M574 1217q-150 0 -150 -166v-62h272v-184h-272v-805h-256v805h-152v184h152v64q0 168 81 260t265 92q137 0 240 -57l-54 -158q-46 27 -126 27z" />
    <glyph glyph-name="g" unicode="g" horiz-adv-x="1169" 
d="M776 154q-112 -154 -272 -154q-189 0 -309.5 137.5t-120.5 361.5t109 369.5t302 145.5q111 0 178.5 -48t108.5 -106l29 129h233v-909q0 -254 -138.5 -375t-360.5 -121q-117 0 -220.5 29t-171.5 74l66 202q134 -86 311 -86t216.5 95.5t39.5 169.5v86zM551 805
q-84 0 -149.5 -76t-65.5 -219q0 -229 89 -265t134 -36q94 0 153.5 69.5t59.5 198.5v197q-37 55 -87 93t-134 38z" />
    <glyph glyph-name="h" unicode="h" horiz-adv-x="1179" 
d="M786 614q0 191 -144 191q-75 0 -139.5 -41t-105.5 -90v-674h-262v1380h262v-520q142 154 338 154q137 0 225.5 -102.5t88.5 -288.5v-623h-263v614z" />
    <glyph glyph-name="i" unicode="i" horiz-adv-x="540" 
d="M270.5 1405q75.5 0 116.5 -44t41 -103.5t-41 -103.5t-116.5 -44t-116.5 44t-41 103.5t41 103.5t116.5 44zM401 0h-262v989h262v-989z" />
    <glyph glyph-name="j" unicode="j" horiz-adv-x="540" 
d="M270.5 1405q75.5 0 116.5 -44t41 -103.5t-41 -103.5t-116.5 -44t-116.5 44t-41 103.5t41 103.5t116.5 44zM401 -61q0 -356 -290 -357q-145 0 -242 64l55 184q60 -33 116 -33t77.5 25.5t21.5 97.5v1069h262v-1050z" />
    <glyph glyph-name="k" unicode="k" horiz-adv-x="1069" 
d="M397 0h-262v1391h262v-1391zM807 0q-288 378 -352 473v148l331 368h293l-401 -442l412 -547h-283z" />
    <glyph glyph-name="l" unicode="l" horiz-adv-x="540" 
d="M401 0h-262v1380h262v-1380z" />
    <glyph glyph-name="m" unicode="m" horiz-adv-x="1673" 
d="M606 805q-127 0 -215 -131v-674h-256v989h227l29 -129q142 154 301 154q96 0 159.5 -47t88.5 -133q156 180 328 180q135 0 204.5 -92.5t69.5 -264.5v-657h-256v635q0 78 -19.5 124t-84.5 46q-127 0 -215 -131v-674h-256v635q0 78 -19.5 124t-85.5 46z" />
    <glyph glyph-name="n" unicode="n" horiz-adv-x="1175" 
d="M725 1014q145 0 232 -102.5t87 -288.5v-623h-262v614q0 94 -32.5 142.5t-107.5 48.5t-139.5 -41t-105.5 -90v-674h-262v989h234l28 -129q142 154 328 154z" />
    <glyph glyph-name="o" unicode="o" horiz-adv-x="1134" 
d="M935 868q128 -146 128 -371q0 -226 -127 -374t-368 -148t-368.5 147t-127.5 375q0 227 128.5 372t367.5 145t367 -146zM334 495.5q0 -147.5 57.5 -233.5t176 -86t176 86t57.5 233.5t-57.5 232.5t-176 85t-176 -85t-57.5 -232.5z" />
    <glyph glyph-name="p" unicode="p" horiz-adv-x="1169" 
d="M135 989h234l28 -129q71 96 164.5 125t169.5 29t148.5 -42t144.5 -145t72 -334t-119 -374.5t-289 -143.5q-115 0 -181.5 47.5t-109.5 106.5v-520h-262v1380zM627 805q-124 0 -230 -131v-209q0 -129 59.5 -205t153.5 -76q158 0 191 118t33 232t-57.5 192.5t-149.5 78.5z
" />
    <glyph glyph-name="q" unicode="q" horiz-adv-x="1169" 
d="M772 129q-112 -154 -268 -154q-190 0 -310 140.5t-120 370.5t109.5 379t301.5 149q111 0 178.5 -48t108.5 -106l29 129h233v-1380h-262v520zM551 805q-84 0 -149.5 -80t-65.5 -227q0 -238 89 -276t134 -38q94 0 153.5 76t59.5 205v209q-37 55 -87 93t-134 38z" />
    <glyph glyph-name="r" unicode="r" horiz-adv-x="790" 
d="M635 1014q85 0 143 -53l-55 -238q-53 43 -123 43q-148 0 -203 -107v-659h-262v989h230l32 -145q82 170 238 170z" />
    <glyph glyph-name="s" unicode="s" horiz-adv-x="913" 
d="M427 178q157 0 157 96q0 59 -56 90.5t-130 53.5q-162 49 -238 115.5t-76 196.5t104.5 207t296.5 77t328 -72l-59 -192q-116 61 -265 61t-149 -84q0 -45 40 -69.5t116 -50.5q181 -62 262.5 -134t81.5 -202t-104.5 -213t-310.5 -83t-351 76l59 197q137 -70 294 -70z" />
    <glyph glyph-name="t" unicode="t" horiz-adv-x="757" 
d="M462 -25q-149 0 -221.5 80t-72.5 248v502h-152v184h156l61 283h191v-283h281v-184h-281v-504q0 -117 100 -117q68 0 135 47l54 -190q-102 -66 -251 -66z" />
    <glyph glyph-name="u" unicode="u" horiz-adv-x="1157" 
d="M547 184q112 0 213 131v674h262v-989h-234l-28 129q-36 -57 -115 -105.5t-170 -48.5q-164 0 -254 94.5t-90 280.5v639h262v-631q0 -94 38 -134t116 -40z" />
    <glyph glyph-name="v" unicode="v" horiz-adv-x="1007" 
d="M369 0l-353 989h267l143 -424l76 -332h4l74 332l145 424h266l-352 -989h-270z" />
    <glyph glyph-name="w" unicode="w" horiz-adv-x="1454" 
d="M977 575q35 -120 63 -344h9q8 237 34 357l80 401h262l-233 -989h-264l-146 461q-44 142 -53 311h-4q-8 -161 -53 -311l-146 -461h-264l-233 989h262l80 -401q24 -114 35 -357h8q28 227 63 344l125 414h250z" />
    <glyph glyph-name="x" unicode="x" horiz-adv-x="1048" 
d="M522 352h-4l-215 -352h-278l356 512l-338 477h276l197 -317h4l193 317h276l-332 -477l367 -512h-279z" />
    <glyph glyph-name="y" unicode="y" horiz-adv-x="1157" 
d="M482 -197q143 0 212.5 58.5t69.5 206.5v86q-34 -56 -115 -105t-174 -49q-164 0 -254 94t-90 281v614h262v-606q0 -94 38 -134t116 -40q112 0 213 131v649h262v-909q0 -254 -134.5 -375t-363.5 -121t-379 99l66 202q128 -82 271 -82z" />
    <glyph glyph-name="z" unicode="z" horiz-adv-x="937" 
d="M106 805v184h738v-135l-455 -670h471v-184h-790v135l454 670h-418z" />
    <glyph glyph-name="braceleft" unicode="{" horiz-adv-x="671" 
d="M563 -242q-356 0 -356 283q0 58 28.5 167t28.5 165q0 112 -182 112v189q92 0 137 27.5t45 84.5t-28.5 165.5t-28.5 166.5q0 283 356 283h68v-176h-62q-66 0 -92 -37t-26 -110t17 -144.5t17 -147.5t-41 -130t-118 -74v-4q159 -41 159 -211q0 -70 -17 -141.5t-17 -144.5
t26.5 -110t91.5 -37h62v-176h-68z" />
    <glyph glyph-name="bar" unicode="|" horiz-adv-x="573" 
d="M164 1585h246v-1995h-246v1995z" />
    <glyph glyph-name="braceright" unicode="}" horiz-adv-x="671" 
d="M109 1401q356 0 356 -283q0 -51 -19.5 -129t-28.5 -114.5t-9 -73.5q0 -72 45 -99.5t137 -27.5v-189q-92 0 -137 -27.5t-45 -99.5q0 -38 28.5 -152t28.5 -165q0 -283 -356 -283h-68v176h61q66 0 92.5 37t26.5 110t-17.5 144.5t-17.5 141.5q0 168 160 211v4
q-160 41 -160 211q0 70 17.5 141.5t17.5 143.5t-26.5 109.5t-92.5 37.5h-61v176h68z" />
    <glyph glyph-name="asciitilde" unicode="~" horiz-adv-x="1153" 
d="M756 485q-83 0 -162.5 50.5t-122.5 73t-95 22.5t-95 -40t-84 -106l-123 125q106 242 323 242q59 0 106.5 -22.5t90.5 -50t86 -50t96 -22.5t96 39.5t84 105.5l123 -125q-106 -242 -323 -242z" />
    <glyph glyph-name="uni007F" horiz-adv-x="1024" 
 />
    <glyph glyph-name="nonbreakingspace" unicode="&#xa0;" 
 />
    <glyph glyph-name="exclamdown" unicode="&#xa1;" horiz-adv-x="557" 
d="M414 -236h-271v338l45 646h181l45 -646v-338zM113 1011.5q0 63.5 43 111.5t122.5 48t122.5 -48t43 -111.5t-43 -111.5t-122.5 -48t-122.5 48t-43 111.5z" />
    <glyph glyph-name="cent" unicode="&#xa2;" horiz-adv-x="1208" 
d="M432 496q0 -129 50 -210t147 -104v621q-197 -45 -197 -307zM760 -205h-131v185q-215 16 -337 160.5t-122 355.5t119 352t340 162v184h131v-184q137 -16 252 -80l-56 -182q-87 49 -196 61v-631q114 12 211 68l57 -187q-100 -60 -268 -79v-185z" />
    <glyph glyph-name="sterling" unicode="&#xa3;" horiz-adv-x="1208" 
d="M379 470q0 48 -37 134h-195v131h125q-29 55 -51 111.5t-22 133.5t37.5 147.5t138 148.5t281.5 78t255 -32t119 -54l-65 -211q-105 67 -235 67t-185.5 -51t-55.5 -131t62 -207h321v-131h-264q27 -70 27 -134t-42 -129t-93 -112h622v-229h-1016v229h105q107 49 137.5 121
t30.5 120z" />
    <glyph glyph-name="currency" unicode="&#xa4;" horiz-adv-x="1191" 
d="M211 669q0 108 65 214l-112 121l106 106l117 -119q98 70 209 70t209 -70l117 119l106 -106l-113 -121q66 -102 66 -211t-66 -211l113 -121l-106 -107l-117 119q-98 -70 -209 -69.5t-209 69.5l-117 -119l-106 107l112 121q-65 100 -65 208zM365 671.5q0 -53.5 18 -97.5
t50 -76.5t74 -50t89 -17.5t89 17.5t74 50t50 76.5t18 97.5t-18 97.5t-50 77t-74 50t-89 17t-89 -17t-74 -50t-50 -77t-18 -97.5z" />
    <glyph glyph-name="yen" unicode="&#xa5;" horiz-adv-x="1208" 
d="M166 715h235l-350 616h289l268 -557l260 557h289l-346 -616h236v-131h-308v-123h308v-131h-308v-330h-266v330h-307v131h307v123h-307v131z" />
    <glyph glyph-name="brokenbar" unicode="&#xa6;" horiz-adv-x="573" 
d="M164 360h246v-718h-246v718zM164 1380h246v-718h-246v718z" />
    <glyph glyph-name="section" unicode="&#xa7;" horiz-adv-x="1208" 
d="M524 78q101 0 172.5 36.5t71.5 86.5q0 78 -78 104.5t-124 39.5q-162 46 -281 121t-119 217t100 204q-65 80 -65 172q0 167 119.5 256.5t308.5 89.5t372 -90l-59 -185q-130 70 -283 70q-98 0 -143 -36t-45 -88t58.5 -83.5t134.5 -54.5q63 -23 234 -84t171 -255
q0 -140 -102 -202q69 -82 69 -196q0 -145 -136 -237.5t-349 -92.5t-389 90l59 184q138 -67 303 -67zM809 580q0 36 -44 67t-103.5 52.5t-119 37t-91.5 27.5q-27 -20 -27 -61t43 -72t101.5 -51.5t119 -34t96.5 -25.5q25 24 25 60z" />
    <glyph glyph-name="dieresis" unicode="&#xa8;" horiz-adv-x="675" 
d="M557.5 1386q65.5 0 101 -38.5t35.5 -90t-35.5 -90.5t-101 -39t-101.5 39t-36 90.5t36 90t101.5 38.5zM118.5 1386q65.5 0 101.5 -38.5t36 -90t-36 -90.5t-101.5 -39t-101 39t-35.5 90.5t35.5 90t101 38.5z" />
    <glyph glyph-name="copyright" unicode="&#xa9;" horiz-adv-x="1449" 
d="M265 1146q183 187 459 187t460 -188t184 -454t-183.5 -455t-460.5 -189t-459.5 188t-182.5 456t183 455zM553 688.5q0 -110.5 49 -178.5t156 -68t190 54l33 -113q-95 -61 -207 -61t-180 28.5t-113 77.5t-68.5 115.5t-23.5 187.5t97.5 222.5t273.5 101.5q127 0 215 -58
l-37 -108q-84 45 -184 45t-150.5 -67.5t-50.5 -178zM725 1217q-109 0 -202 -41t-160.5 -113t-106.5 -167t-39 -205.5t39 -206t106.5 -167t160.5 -112.5t202 -41t202 41t160.5 112.5t106.5 167t39 206t-39 205.5t-106.5 167t-160.5 113t-202 41z" />
    <glyph glyph-name="ordfeminine" unicode="&#xaa;" horiz-adv-x="747" 
d="M306 600q-264 0 -265 234q0 120 90 180.5t246 60.5h110q0 68 -35.5 99.5t-119 31.5t-207.5 -61l-45 131q138 76 289 76q152 0 224.5 -75t72.5 -204v-459h-146l-20 105q-78 -119 -194 -119zM377 942q-152 0 -152 -111q0 -88 94 -88q72 0 120 50.5t48 117.5v31h-110z" />
    <glyph glyph-name="guillemotleft" unicode="&#xab;" horiz-adv-x="1046" 
d="M725 496l260 -369h-252l-262 369l262 368h252zM295 496l260 -369h-252l-262 369l262 368h252z" />
    <glyph glyph-name="logicalnot" unicode="&#xac;" horiz-adv-x="1058" 
d="M711 231v338h-650v197h895v-535h-245z" />
    <glyph glyph-name="uni00AD" unicode="&#xad;" horiz-adv-x="663" 
d="M20 612h623v-200h-623v200z" />
    <glyph glyph-name="registered" unicode="&#xae;" horiz-adv-x="1101" 
d="M909 940q0 162 -99.5 265.5t-258.5 103.5t-258.5 -103.5t-99.5 -265.5t99.5 -265.5t258.5 -103.5t258.5 103.5t99.5 265.5zM550.5 479q-104.5 0 -190.5 36t-147 98.5t-96 146.5t-35 180t35 180t96 146.5t147 98.5t190.5 36t190.5 -36t147.5 -98.5t96.5 -146.5t35 -180
t-35 -180t-96.5 -146.5t-147.5 -98.5t-190.5 -36zM659 1032q0 35 -19 51.5t-67 16.5h-90v-142h88q88 0 88 74zM768 1042q0 -62 -34 -104.5t-81 -52.5l125 -209h-121l-108 192h-66v-192h-110v516h202q104 0 148.5 -44t44.5 -106z" />
    <glyph glyph-name="macron" unicode="&#xaf;" horiz-adv-x="675" 
d="M16 1165v174h643v-174h-643z" />
    <glyph glyph-name="degree" unicode="&#xb0;" horiz-adv-x="733" 
d="M74 1128.5q0 57.5 21.5 107.5t59.5 88t92 59.5t119.5 21.5t120 -21.5t92 -59.5t59 -88t21.5 -107.5t-21.5 -107.5t-59 -88t-92 -59.5t-120 -21.5t-119.5 21.5t-92 59.5t-59.5 88t-21.5 107.5zM252 1128.5q0 -53.5 32.5 -90.5t82 -37t82 37t32.5 90.5t-32.5 90t-82 36.5
t-82 -36.5t-32.5 -90z" />
    <glyph glyph-name="plusminus" unicode="&#xb1;" horiz-adv-x="1208" 
d="M1055 0h-901v147h901v-147zM1055 539h-326v-310h-250v310h-325v209h325v309h250v-309h326v-209z" />
    <glyph glyph-name="twosuperior" unicode="&#xb2;" horiz-adv-x="645" 
d="M360 1130q0 56 -87 56t-171 -39l-49 147q131 62 260 62t193.5 -57.5t64.5 -143.5q0 -117 -31 -149l-163 -162l-66 -56h289v-174h-559v131l178 177q63 63 102 113t39 95z" />
    <glyph glyph-name="threesuperior" unicode="&#xb3;" horiz-adv-x="641" 
d="M280 770q105 0 105 73t-86 72h-131v152h121q35 0 56.5 15.5t21.5 43.5q0 61 -99 62q-72 0 -180 -53l-59 151q125 70 264 70t208.5 -59.5t69.5 -145.5q0 -55 -32.5 -95t-75.5 -55q57 -16 93 -65t36 -107q0 -102 -76 -164.5t-186 -62.5q-178 0 -310 68l60 159
q95 -59 200 -59z" />
    <glyph glyph-name="acute" unicode="&#xb4;" horiz-adv-x="675" 
d="M618 1509l138 -196l-420 -215l-72 110z" />
    <glyph glyph-name="mu" unicode="&#xb5;" horiz-adv-x="1161" 
d="M397 -410h-262v1399h262v-598q0 -94 45 -154.5t127 -60.5t195 139v674h262v-989h-233l-29 129q-76 -154 -225 -154q-86 0 -142 50v-435z" />
    <glyph glyph-name="paragraph" unicode="&#xb6;" horiz-adv-x="935" 
d="M175 1276.5q114 103.5 280 103.5h428v-159h-144q-47 0 -62 -26t-15 -69v-1224h-218v725q-158 0 -270.5 100t-112.5 273t114 276.5z" />
    <glyph glyph-name="periodcentered" unicode="&#xb7;" horiz-adv-x="536" 
d="M102 530.5q0 63.5 43 111.5t123 48t123 -48t43 -111.5t-43 -111.5t-123 -48t-123 48t-43 111.5z" />
    <glyph glyph-name="cedilla" unicode="&#xb8;" horiz-adv-x="675" 
d="M340 -373h-272l213 287h161z" />
    <glyph glyph-name="onesuperior" unicode="&#xb9;" horiz-adv-x="624" 
d="M442 1341v-557h142v-170h-518v170h159v369l-131 -41v160l199 69h149z" />
    <glyph glyph-name="ordmasculine" unicode="&#xba;" horiz-adv-x="823" 
d="M53 979q0 80 21.5 147.5t65.5 118.5t111.5 80t160 29t160 -29t111.5 -80t65.5 -118.5t21.5 -147.5t-21.5 -149.5t-65.5 -121t-111.5 -80t-160 -28.5t-160 28.5t-111.5 80t-65.5 121t-21.5 149.5zM238 979q0 -234 133 -234t175 64.5t42 166.5t-42 167t-134.5 65
t-133 -64.5t-40.5 -164.5z" />
    <glyph glyph-name="guillemotright" unicode="&#xbb;" horiz-adv-x="1046" 
d="M61 864h252l262 -368l-262 -369h-252l261 369zM492 864h251l263 -368l-263 -369h-251l260 369z" />
    <glyph glyph-name="onequarter" unicode="&#xbc;" horiz-adv-x="1589" 
d="M453 1341v-557h141v-170h-518v170h160v369l-132 -41v160l199 69h150zM1475 727v-444h94v-158h-94v-125h-205v125h-316v137l338 465h183zM1272 283v209l-150 -209h150zM1075 1352h244l-752 -1352h-243z" />
    <glyph glyph-name="onehalf" unicode="&#xbd;" horiz-adv-x="1589" 
d="M1188 571q-55 0 -152 -45l-49 148q53 25 107 46t162 21t172.5 -57t64.5 -143q0 -117 -32 -149l-163 -163l-65 -55h289v-174h-559v131l178 176q141 141 141 201q0 37 -19.5 50t-74.5 13zM453 1341v-557h141v-170h-518v170h160v369l-132 -41v160l199 69h150zM1075 1352h244
l-752 -1352h-243z" />
    <glyph glyph-name="threequarters" unicode="&#xbe;" horiz-adv-x="1589" 
d="M300 770q105 0 106 74q0 72 -87 71h-131v152h121q35 0 56.5 15.5t21.5 43.5q0 61 -98 62q-72 0 -180 -53l-60 151q125 70 264 70t209 -59.5t70 -145.5q0 -55 -33 -95t-76 -55q57 -16 93 -65t36 -107q0 -102 -76 -164.5t-186 -62.5q-180 0 -309 68l59 159q95 -59 200 -59z
M1475 727v-444h94v-158h-94v-125h-205v125h-316v137l338 465h183zM1272 283v209l-150 -209h150zM1075 1352h244l-752 -1352h-243z" />
    <glyph glyph-name="questiondown" unicode="&#xbf;" horiz-adv-x="1026" 
d="M709 854.5q0 -63.5 -43 -112t-123 -48.5t-123 48.5t-43 112t43 111.5t123 48t123 -48t43 -111.5zM688 520q0 -57 -23.5 -108.5t-59.5 -94.5t-77 -82.5t-100 -109.5t-59 -170q0 -101 70.5 -128.5t121.5 -27.5q169 0 330 95l63 -205q-188 -107 -409 -107t-332 101.5
t-111 264.5t170 314.5t170 272.5q0 54 -10 92h225q31 -50 31 -107z" />
    <glyph glyph-name="Agrave" unicode="&#xc0;" horiz-adv-x="1290" 
d="M473 530h344l-67 207l-103 353h-4l-102 -353zM895 309h-500l-104 -309h-279l498 1380h270l498 -1380h-279zM891 1610l-72 -111l-420 215l138 197z" />
    <glyph glyph-name="Aacute" unicode="&#xc1;" horiz-adv-x="1290" 
d="M473 530h344l-67 207l-103 353h-4l-102 -353zM895 309h-500l-104 -309h-279l498 1380h270l498 -1380h-279zM754 1911l137 -197l-420 -215l-72 111z" />
    <glyph glyph-name="Acircumflex" unicode="&#xc2;" horiz-adv-x="1290" 
d="M473 530h344l-67 207l-103 353h-4l-102 -353zM895 309h-500l-104 -309h-279l498 1380h270l498 -1380h-279zM995 1505h-258l-92 158l-92 -158h-258l274 301h152z" />
    <glyph glyph-name="Atilde" unicode="&#xc3;" horiz-adv-x="1290" 
d="M473 530h344l-67 207l-103 353h-4l-102 -353zM895 309h-500l-104 -309h-279l498 1380h270l498 -1380h-279zM983 1778q0 -111 -49 -179q-49 -67 -138 -67t-215 86q-26 16 -61 16q-61 0 -61 -92h-152q0 106 48 176t133 70t168 -51q32 -19 58 -35t58 -16q56 0 57 92h154z
" />
    <glyph glyph-name="Adieresis" unicode="&#xc4;" horiz-adv-x="1290" 
d="M473 530h344l-67 207l-103 353h-4l-102 -353zM895 309h-500l-104 -309h-279l498 1380h270l498 -1380h-279zM864 1788q66 0 102 -39t36 -90t-36 -90t-102 -39t-102 39t-35 90q-1 51 35 90t102 39zM426 1788q66 0 102 -39t35 -90q0 -51 -36 -90q-35 -39 -101 -39t-102 39
t-35 90q-1 51 35 90t102 39z" />
    <glyph glyph-name="Aring" unicode="&#xc5;" horiz-adv-x="1290" 
d="M473 530h344l-67 207l-103 353h-4l-102 -353zM895 309h-500l-104 -309h-279l498 1380h270l498 -1380h-279zM646 1769q-60 0 -60 -70t59 -73q58 0 59 72q2 72 -58 71zM645 1898q43 0 82 -15q79 -30 113 -107q16 -37 16 -78t-16 -78t-45 -65q-60 -58 -151 -58
q-90 0 -149 58t-60 143t60 142q61 58 150 58z" />
    <glyph glyph-name="AE" unicode="&#xc6;" horiz-adv-x="1738" 
d="M518 530h344l-51 207l-72 353h-4l-133 -353zM1645 1380v-225h-687l95 -338h553v-225h-492l100 -367h443v-225h-658l-77 309h-500l-131 -309h-279l615 1380h1018z" />
    <glyph glyph-name="Ccedilla" unicode="&#xc7;" horiz-adv-x="1193" 
d="M74 690q0 316 175 515q175 200 486 200q213 0 389 -92l-65 -203q-145 78 -303 78q-208 0 -312 -131t-104 -367t105 -366t311 -131q158 0 315 86l62 -205q-173 -99 -398 -99q-312 0 -486 200q-175 199 -175 515zM682 -373h-272l213 287h161z" />
    <glyph glyph-name="Egrave" unicode="&#xc8;" horiz-adv-x="1134" 
d="M143 1380h897v-225h-639v-338h600v-225h-600v-367h652v-225h-910v1380zM834 1610l-72 -111l-420 215l137 197z" />
    <glyph glyph-name="Eacute" unicode="&#xc9;" horiz-adv-x="1134" 
d="M143 1380h897v-225h-639v-338h600v-225h-600v-367h652v-225h-910v1380zM696 1911l138 -197l-420 -215l-72 111z" />
    <glyph glyph-name="Ecircumflex" unicode="&#xca;" horiz-adv-x="1134" 
d="M143 1380h897v-225h-639v-338h600v-225h-600v-367h652v-225h-910v1380zM938 1505h-258l-92 158l-92 -158h-258l274 301h152z" />
    <glyph glyph-name="Edieresis" unicode="&#xcb;" horiz-adv-x="1134" 
d="M143 1380h897v-225h-639v-338h600v-225h-600v-367h652v-225h-910v1380zM807 1788q65 0 101 -39t36 -90t-36 -90t-102 -39t-100 39q-36 39 -36 90t36 90t101 39zM369 1788q65 0 101 -39t36 -90t-36 -90t-102 -39t-101 39q-36 39 -36 90t36 90t102 39z" />
    <glyph glyph-name="Igrave" unicode="&#xcc;" horiz-adv-x="552" 
d="M410 0h-267v1380h267v-1380zM522 1610l-71 -111l-420 215l137 197z" />
    <glyph glyph-name="Iacute" unicode="&#xcd;" horiz-adv-x="552" 
d="M410 0h-267v1380h267v-1380zM385 1911l137 -197l-420 -215l-71 111z" />
    <glyph glyph-name="Icircumflex" unicode="&#xce;" horiz-adv-x="552" 
d="M410 0h-267v1380h267v-1380zM627 1505h-258l-93 158l-92 -158h-258l275 301h151z" />
    <glyph glyph-name="Idieresis" unicode="&#xcf;" horiz-adv-x="552" 
d="M410 0h-267v1380h267v-1380zM496 1788q66 0 102 -39t35 -90q0 -51 -36 -90q-35 -39 -101 -39t-102 39t-36 90t36 90t102 39zM57 1788q66 0 102 -39t36 -90t-36 -90t-102 -39q-65 0 -101 39t-36 90t36 90t101 39z" />
    <glyph glyph-name="Eth" unicode="&#xd0;" horiz-adv-x="1357" 
d="M1014 753q0 180 -112 289t-329 109h-163v-387h278v-189h-278v-346h163q320 0 380.5 172t60.5 352zM143 764v616h430q344 0 525.5 -175t181.5 -514t-181 -515t-526 -176h-430v575h-131v189h131z" />
    <glyph glyph-name="Ntilde" unicode="&#xd1;" horiz-adv-x="1396" 
d="M987 625v755h266v-1380h-266l-471 782q-93 156 -135 287h-6q33 -177 35 -313v-756h-267v1380h287l451 -782q90 -151 135 -287h6q-35 188 -35 314zM580 1634q-68 0 -68 -92h-152q0 106 48 176t141 70q92 0 218 -86q27 -16 59 -16q55 0 57 92h153q0 -111 -49 -179
q-49 -67 -138 -67t-215 86q-26 16 -54 16z" />
    <glyph glyph-name="Ograve" unicode="&#xd2;" horiz-adv-x="1437" 
d="M74 690q0 152 41 283q84 268 323 378q121 54 281 54q311 0 478 -199t167 -515t-167 -515t-478 -200t-478 198t-167 516zM340 690q0 -236 96 -366t282 -131q186 0 283 131q97 130 97 366t-96 367t-283 131t-283 -131t-96 -367zM965 1610l-72 -111l-420 215l137 197z" />
    <glyph glyph-name="Oacute" unicode="&#xd3;" horiz-adv-x="1437" 
d="M74 690q0 152 41 283q84 268 323 378q121 54 281 54q311 0 478 -199t167 -515t-167 -515t-478 -200t-478 198t-167 516zM340 690q0 -236 96 -366t282 -131q186 0 283 131q97 130 97 366t-96 367t-283 131t-283 -131t-96 -367zM827 1911l138 -197l-420 -215l-72 111z" />
    <glyph glyph-name="Ocircumflex" unicode="&#xd4;" horiz-adv-x="1437" 
d="M74 690q0 152 41 283q84 268 323 378q121 54 281 54q311 0 478 -199t167 -515t-167 -515t-478 -200t-478 198t-167 516zM340 690q0 -236 96 -366t282 -131q186 0 283 131q97 130 97 366t-96 367t-283 131t-283 -131t-96 -367zM1069 1505h-258l-92 158l-92 -158h-258
l274 301h152z" />
    <glyph glyph-name="Otilde" unicode="&#xd5;" horiz-adv-x="1437" 
d="M74 690q0 152 41 283q84 268 323 378q121 54 281 54q311 0 478 -199t167 -515t-167 -515t-478 -200t-478 198t-167 516zM340 690q0 -236 96 -366t282 -131q186 0 283 131q97 130 97 366t-96 367t-283 131t-283 -131t-96 -367zM1057 1778q0 -111 -49 -179
q-49 -67 -133 -67t-164 51q-31 19 -57 35t-60 16q-59 0 -62 -92h-151q0 106 48 176t140 70t218 -86q26 -16 59 -16q57 0 57 92h154z" />
    <glyph glyph-name="Odieresis" unicode="&#xd6;" horiz-adv-x="1437" 
d="M74 690q0 152 41 283q84 268 323 378q121 54 281 54q311 0 478 -199t167 -515t-167 -515t-478 -200t-478 198t-167 516zM340 690q0 -236 96 -366t282 -131q186 0 283 131q97 130 97 366t-96 367t-283 131t-283 -131t-96 -367zM938 1788q66 0 102 -39t35 -90
q0 -51 -36 -90q-35 -39 -101 -39t-102 39t-35 90q-1 51 35 90t102 39zM500 1788q66 0 102 -39t35 -90q0 -51 -36 -90q-35 -39 -101 -39t-102 39t-36 90t36 90t102 39z" />
    <glyph glyph-name="multiply" unicode="&#xd7;" horiz-adv-x="1208" 
d="M604 379l-260 -260l-168 168l260 260l-260 260l168 168l260 -260l260 260l168 -168l-260 -260l260 -260l-168 -168z" />
    <glyph glyph-name="Oslash" unicode="&#xd8;" horiz-adv-x="1437" 
d="M1098 682q0 228 -84 356l-486 -798q82 -47 191 -47q186 0 282.5 130.5t96.5 358.5zM340 698q0 -228 84 -356l485 797q-80 49 -190 49q-186 0 -282.5 -131t-96.5 -359zM1364 690q0 -317 -168 -516t-477 -199q-177 0 -311 68l-76 -125h-166l125 205q-217 192 -217 567
q0 316 167 515.5t478 199.5q176 0 309 -70l78 127h166l-125 -207q217 -195 217 -565z" />
    <glyph glyph-name="Ugrave" unicode="&#xd9;" horiz-adv-x="1384" 
d="M692 193q135 0 212 91t77 275v821h266v-819q0 -299 -147 -442q-148 -143 -408 -143t-407 142q-147 144 -148 443v819h266v-821q0 -184 77 -275t212 -91zM938 1610l-72 -111l-420 215l138 197z" />
    <glyph glyph-name="Uacute" unicode="&#xda;" horiz-adv-x="1384" 
d="M692 193q135 0 212 91t77 275v821h266v-819q0 -299 -147 -442q-148 -143 -408 -143t-407 142q-147 144 -148 443v819h266v-821q0 -184 77 -275t212 -91zM801 1911l137 -197l-420 -215l-72 111z" />
    <glyph glyph-name="Ucircumflex" unicode="&#xdb;" horiz-adv-x="1384" 
d="M692 193q135 0 212 91t77 275v821h266v-819q0 -299 -147 -442q-148 -143 -408 -143t-407 142q-147 144 -148 443v819h266v-821q0 -184 77 -275t212 -91zM1042 1505h-258l-92 158l-92 -158h-258l274 301h152z" />
    <glyph glyph-name="Udieresis" unicode="&#xdc;" horiz-adv-x="1384" 
d="M692 193q135 0 212 91t77 275v821h266v-819q0 -299 -147 -442q-148 -143 -408 -143t-407 142q-147 144 -148 443v819h266v-821q0 -184 77 -275t212 -91zM911 1788q66 0 102 -39t36 -90t-36 -90t-102 -39q-65 0 -101 39t-36 90t36 90t101 39zM473 1788q65 0 101 -39
t36 -90t-36 -90t-102 -39t-100 39q-36 39 -36 90t36 90t101 39z" />
    <glyph glyph-name="Yacute" unicode="&#xdd;" horiz-adv-x="1220" 
d="M743 0h-266v588l-461 792h289l307 -565l303 565h289l-461 -792v-588zM719 1911l137 -197l-420 -215l-71 111z" />
    <glyph glyph-name="Thorn" unicode="&#xde;" horiz-adv-x="1191" 
d="M856 689q0 95 -55.5 148.5t-159.5 53.5h-231v-408h219q106 0 166.5 55.5t60.5 150.5zM987.5 379q-134.5 -125 -358.5 -125h-219v-254h-267v1380h267v-260h231q221 0 351 -121.5t130 -307.5q0 -187 -134.5 -312z" />
    <glyph glyph-name="germandbls" unicode="&#xdf;" horiz-adv-x="1269" 
d="M674 1217q-285 0 -285 -371v-846h-256v846q0 237 141 398t400 161q197 0 329 -106.5t132 -267.5t-87 -211t-126 -58q191 -63 232.5 -183t41.5 -208t-65.5 -238.5t-360.5 -150.5q-183 0 -311 69l39 176q107 -57 221 -57q221 0 221 242q0 127 -78 195.5t-225 68.5h-88v184
h135q98 0 150.5 41t52.5 146t-76 137.5t-137 32.5z" />
    <glyph glyph-name="agrave" unicode="&#xe0;" horiz-adv-x="1042" 
d="M66 279q0 269 264 325q84 18 188 19h139v32q0 158 -180 158q-152 0 -291 -82l-57 180q63 43 163 73t216 30q207 0 305 -98t98 -275v-641h-225l-29 129q-94 -151 -284 -154q-131 0 -219 84t-88 220zM657 451h-141q-98 0 -151 -43q-53 -44 -53 -110t32 -100q33 -34 83 -34
q101 0 166 70q64 70 64 167v50zM766 1208l-72 -110l-420 215l138 196z" />
    <glyph glyph-name="aacute" unicode="&#xe1;" horiz-adv-x="1042" 
d="M66 279q0 269 264 325q84 18 188 19h139v32q0 158 -180 158q-152 0 -291 -82l-57 180q63 43 163 73t216 30q207 0 305 -98t98 -275v-641h-225l-29 129q-94 -151 -284 -154q-131 0 -219 84t-88 220zM657 451h-141q-98 0 -151 -43q-53 -44 -53 -110t32 -100q33 -34 83 -34
q101 0 166 70q64 70 64 167v50zM629 1509l137 -196l-420 -215l-72 110z" />
    <glyph glyph-name="acircumflex" unicode="&#xe2;" horiz-adv-x="1042" 
d="M66 279q0 269 264 325q84 18 188 19h139v32q0 158 -180 158q-152 0 -291 -82l-57 180q63 43 163 73t216 30q207 0 305 -98t98 -275v-641h-225l-29 129q-94 -151 -284 -154q-131 0 -219 84t-88 220zM657 451h-141q-98 0 -151 -43q-53 -44 -53 -110t32 -100q33 -34 83 -34
q101 0 166 70q64 70 64 167v50zM870 1104h-258l-92 158l-92 -158h-258l274 301h152z" />
    <glyph glyph-name="atilde" unicode="&#xe3;" horiz-adv-x="1042" 
d="M66 279q0 269 264 325q84 18 188 19h139v32q0 158 -180 158q-152 0 -291 -82l-57 180q63 43 163 73t216 30q207 0 305 -98t98 -275v-641h-225l-29 129q-94 -151 -284 -154q-131 0 -219 84t-88 220zM657 451h-141q-98 0 -151 -43q-53 -44 -53 -110t32 -100q33 -34 83 -34
q101 0 166 70q64 70 64 167v50zM401 1233q-67 0 -67 -92h-152q0 106 48 176q48 69 133 69t168 -51q32 -19 58 -35q27 -16 59 -16q55 0 57 92h153q0 -110 -49 -178t-137 -68t-216 87q-26 16 -55 16z" />
    <glyph glyph-name="adieresis" unicode="&#xe4;" horiz-adv-x="1042" 
d="M66 279q0 269 264 325q84 18 188 19h139v32q0 158 -180 158q-152 0 -291 -82l-57 180q63 43 163 73t216 30q207 0 305 -98t98 -275v-641h-225l-29 129q-94 -151 -284 -154q-131 0 -219 84t-88 220zM657 451h-141q-98 0 -151 -43q-53 -44 -53 -110t32 -100q33 -34 83 -34
q101 0 166 70q64 70 64 167v50zM739 1386q66 0 102 -38t36 -90t-36 -91t-102 -39q-65 0 -101 39t-36 90t36 90t101 39zM301 1386q65 0 101 -38t36 -90t-36 -91t-102 -39t-100 39q-36 39 -36 90t36 90t101 39z" />
    <glyph glyph-name="aring" unicode="&#xe5;" horiz-adv-x="1042" 
d="M66 279q0 269 264 325q84 18 188 19h139v32q0 158 -180 158q-152 0 -291 -82l-57 180q63 43 163 73t216 30q207 0 305 -98t98 -275v-641h-225l-29 129q-94 -151 -284 -154q-131 0 -219 84t-88 220zM657 451h-141q-98 0 -151 -43q-53 -44 -53 -110t32 -100q33 -34 83 -34
q101 0 166 70q64 70 64 167v50zM520 1368q-60 0 -59 -72q0 -72 58 -71q58 -1 60 71q1 72 -59 72zM519 1096q-90 0 -149 58t-60 141q-1 84 60 143q60 59 150 59q89 0 150 -58q61 -59 61 -143t-61 -142t-151 -58z" />
    <glyph glyph-name="ae" unicode="&#xe6;" horiz-adv-x="1613" 
d="M1129 823q-92 0 -143.5 -70.5t-61.5 -193.5h372v27q0 117 -37.5 177t-129.5 60zM670 451h-148q-98 0 -154.5 -43.5t-56.5 -109.5t36 -100t86 -34q100 0 168.5 70t68.5 167v50zM436 -25q-179 0 -274.5 82.5t-95.5 221.5q0 344 458 344h146v32q0 158 -187 158
q-158 0 -297 -82l-57 180q63 43 166.5 73t218.5 30q224 0 309 -150q45 61 122 105.5t183 44.5q200 0 307 -117t107 -305q0 -106 -29 -186h-589q43 -230 262 -230q121 0 239 62l58 -183q-135 -80 -326 -80q-261 0 -371 215q-51 -98 -150.5 -156.5t-199.5 -58.5z" />
    <glyph glyph-name="ccedilla" unicode="&#xe7;" horiz-adv-x="946" 
d="M592 813q-258 0 -258 -317q0 -147 62 -234q63 -86 198 -86t254 66l57 -187q-133 -78 -327 -80q-243 0 -376 149q-132 149 -131 375t132 371q131 144 377 144q172 0 309 -80l-55 -182q-107 61 -242 61zM557 -373h-272l213 287h161z" />
    <glyph glyph-name="egrave" unicode="&#xe8;" horiz-adv-x="1042" 
d="M725 586q0 237 -172 237q-98 0 -159 -70q-60 -71 -70 -194h401v27zM330 406q44 -230 292 -230q116 0 232 62l57 -183q-132 -78 -358 -79t-354 140q-129 141 -128 374t121 379q120 145 359 145q194 0 307 -117t113 -312q0 -97 -29 -179h-612zM766 1208l-72 -110l-420 215
l138 196z" />
    <glyph glyph-name="eacute" unicode="&#xe9;" horiz-adv-x="1042" 
d="M725 586q0 237 -172 237q-98 0 -159 -70q-60 -71 -70 -194h401v27zM330 406q44 -230 292 -230q116 0 232 62l57 -183q-132 -78 -358 -79t-354 140q-129 141 -128 374t121 379q120 145 359 145q194 0 307 -117t113 -312q0 -97 -29 -179h-612zM629 1509l137 -196l-420 -215
l-72 110z" />
    <glyph glyph-name="ecircumflex" unicode="&#xea;" horiz-adv-x="1042" 
d="M725 586q0 237 -172 237q-98 0 -159 -70q-60 -71 -70 -194h401v27zM330 406q44 -230 292 -230q116 0 232 62l57 -183q-132 -78 -358 -79t-354 140q-129 141 -128 374t121 379q120 145 359 145q194 0 307 -117t113 -312q0 -97 -29 -179h-612zM870 1104h-258l-92 158
l-92 -158h-258l274 301h152z" />
    <glyph glyph-name="edieresis" unicode="&#xeb;" horiz-adv-x="1042" 
d="M725 586q0 237 -172 237q-98 0 -159 -70q-60 -71 -70 -194h401v27zM330 406q44 -230 292 -230q116 0 232 62l57 -183q-132 -78 -358 -79t-354 140q-129 141 -128 374t121 379q120 145 359 145q194 0 307 -117t113 -312q0 -97 -29 -179h-612zM739 1386q66 0 102 -38
t36 -90t-36 -91t-102 -39q-65 0 -101 39t-36 90t36 90t101 39zM301 1386q65 0 101 -38t36 -90t-36 -91t-102 -39t-100 39q-36 39 -36 90t36 90t101 39z" />
    <glyph glyph-name="igrave" unicode="&#xec;" horiz-adv-x="540" 
d="M401 0h-262v989h262v-989zM516 1208l-72 -110l-419 215l137 196z" />
    <glyph glyph-name="iacute" unicode="&#xed;" horiz-adv-x="540" 
d="M401 0h-262v989h262v-989zM379 1509l137 -196l-420 -215l-71 110z" />
    <glyph glyph-name="icircumflex" unicode="&#xee;" horiz-adv-x="540" 
d="M401 0h-262v989h262v-989zM621 1104h-259l-92 158l-92 -158h-258l275 301h151z" />
    <glyph glyph-name="idieresis" unicode="&#xef;" horiz-adv-x="540" 
d="M401 0h-262v989h262v-989zM489 1386q66 0 102 -38t36 -90t-36 -91t-102 -39q-65 0 -101 39t-36 90t36 90t101 39zM51 1386q66 0 102 -38q35 -38 35 -90t-36 -91t-101 -39t-101 39t-36 90t36 90t101 39z" />
    <glyph glyph-name="eth" unicode="&#xf0;" horiz-adv-x="1148" 
d="M763 689.5q-66 82.5 -182 82.5t-185.5 -84t-69.5 -217q0 -199 94 -247t152 -48t105.5 27.5t99.5 95t52 187.5q0 121 -66 203.5zM776 1200q299 -273 299 -722q0 -218 -137 -360.5t-362 -142.5t-364.5 137.5t-139.5 349.5t136.5 361.5t311.5 149.5t289 -119h4
q-51 127 -211 264l-207 -96l-51 113l141 67q-96 61 -198 94l88 154q152 -53 297 -160l243 115l58 -113z" />
    <glyph glyph-name="ntilde" unicode="&#xf1;" horiz-adv-x="1175" 
d="M1044 623v-623h-262v614q0 94 -32 143q-33 48 -108 48q-76 0 -140 -41t-105 -90v-674h-262v989h234l28 -129q139 151 328 154q145 0 232 -102t87 -289zM926 1376q0 -110 -49 -178t-132 -68t-165 52q-31 18 -57 34q-27 16 -61 17q-59 0 -61 -92h-151q0 106 48 176
q48 69 140 69t218 -86q26 -16 59 -16q57 0 57 92h154z" />
    <glyph glyph-name="ograve" unicode="&#xf2;" horiz-adv-x="1134" 
d="M1063 496q0 -225 -127 -373q-126 -148 -368 -148q-241 0 -369 148q-127 148 -127 374t128 372q128 145 366 145q239 0 368 -147q129 -146 129 -371zM334 496q0 -148 57 -234t176 -86t176 86t57 234t-56 232q-58 85 -177 85t-176 -85t-57 -232zM813 1208l-72 -110
l-419 215l137 196z" />
    <glyph glyph-name="oacute" unicode="&#xf3;" horiz-adv-x="1134" 
d="M1063 496q0 -225 -127 -373q-126 -148 -368 -148q-241 0 -369 148q-127 148 -127 374t128 372q128 145 366 145q239 0 368 -147q129 -146 129 -371zM334 496q0 -148 57 -234t176 -86t176 86t57 234t-56 232q-58 85 -177 85t-176 -85t-57 -232zM676 1509l137 -196
l-420 -215l-71 110z" />
    <glyph glyph-name="ocircumflex" unicode="&#xf4;" horiz-adv-x="1134" 
d="M1063 496q0 -225 -127 -373q-126 -148 -368 -148q-241 0 -369 148q-127 148 -127 374t128 372q128 145 366 145q239 0 368 -147q129 -146 129 -371zM334 496q0 -148 57 -234t176 -86t176 86t57 234t-56 232q-58 85 -177 85t-176 -85t-57 -232zM918 1104h-259l-92 158
l-92 -158h-258l275 301h151z" />
    <glyph glyph-name="otilde" unicode="&#xf5;" horiz-adv-x="1134" 
d="M1063 496q0 -225 -127 -373q-126 -148 -368 -148q-241 0 -369 148q-127 148 -127 374t128 372q128 145 366 145q239 0 368 -147q129 -146 129 -371zM334 496q0 -148 57 -234t176 -86t176 86t57 234t-56 232q-58 85 -177 85t-176 -85t-57 -232zM449 1233q-68 0 -68 -92
h-152q1 106 49 176q48 69 140 69t218 -86q26 -16 58 -16q55 0 58 92h153q0 -110 -49 -178t-137 -68t-216 87q-26 16 -54 16z" />
    <glyph glyph-name="odieresis" unicode="&#xf6;" horiz-adv-x="1134" 
d="M1063 496q0 -225 -127 -373q-126 -148 -368 -148q-241 0 -369 148q-127 148 -127 374t128 372q128 145 366 145q239 0 368 -147q129 -146 129 -371zM334 496q0 -148 57 -234t176 -86t176 86t57 234t-56 232q-58 85 -177 85t-176 -85t-57 -232zM786 1386q66 0 102 -38
t36 -90t-36 -91t-102 -39t-102 39t-35 90q-1 51 35 90t102 39zM348 1386q66 0 102 -38t36 -90t-36 -91t-102 -39t-102 39t-35 90q-1 51 35 90t102 39z" />
    <glyph glyph-name="divide" unicode="&#xf7;" horiz-adv-x="1208" 
d="M438 948.5q0 63.5 43 111.5t123 48t123 -48t43 -111.5t-43 -112t-123 -48.5t-123 48.5t-43 112zM438 219.5q0 63.5 43 111.5t123 48t123 -48t43 -111.5t-43 -112t-123 -48.5t-123 48.5t-43 112zM1044 477h-880v209h880v-209z" />
    <glyph glyph-name="oslash" unicode="&#xf8;" horiz-adv-x="1134" 
d="M801 478q0 129 -31 202l-309 -479q43 -25 106 -25q119 0 176.5 86.5t57.5 215.5zM334 514q0 -129 31 -205l309 479q-43 25 -107 25q-119 0 -176 -85t-57 -214zM907 893q156 -144 156 -383t-127 -387t-369 -148q-122 0 -223 43l-65 -100h-166l112 176q-153 141 -153 386
q0 244 128.5 389t366.5 145q126 0 224 -45l65 102h166z" />
    <glyph glyph-name="ugrave" unicode="&#xf9;" horiz-adv-x="1157" 
d="M547 184q112 0 213 131v674h262v-989h-234l-28 129q-36 -58 -113 -105t-172 -49q-164 1 -254 95t-90 280v639h262v-631q0 -94 38 -134t116 -40zM823 1208l-71 -110l-420 215l137 196z" />
    <glyph glyph-name="uacute" unicode="&#xfa;" horiz-adv-x="1157" 
d="M547 184q112 0 213 131v674h262v-989h-234l-28 129q-36 -58 -113 -105t-172 -49q-164 1 -254 95t-90 280v639h262v-631q0 -94 38 -134t116 -40zM686 1509l137 -196l-420 -215l-71 110z" />
    <glyph glyph-name="ucircumflex" unicode="&#xfb;" horiz-adv-x="1157" 
d="M547 184q112 0 213 131v674h262v-989h-234l-28 129q-36 -58 -113 -105t-172 -49q-164 1 -254 95t-90 280v639h262v-631q0 -94 38 -134t116 -40zM928 1104h-258l-92 158l-93 -158h-258l275 301h151z" />
    <glyph glyph-name="udieresis" unicode="&#xfc;" horiz-adv-x="1157" 
d="M547 184q112 0 213 131v674h262v-989h-234l-28 129q-36 -58 -113 -105t-172 -49q-164 1 -254 95t-90 280v639h262v-631q0 -94 38 -134t116 -40zM797 1386q65 0 101 -38t36 -90t-36 -91t-102 -39t-101 39q-36 39 -36 90t36 90t102 39zM358 1386q66 0 102 -38t36 -90
t-36 -91t-102 -39t-102 39t-35 90q-1 51 35 90t102 39z" />
    <glyph glyph-name="yacute" unicode="&#xfd;" horiz-adv-x="1157" 
d="M764 68v86q-36 -58 -115 -106t-174 -48q-164 0 -254 94t-90 281v614h262v-606q0 -94 38 -134t116 -40q112 0 213 131v649h262v-909q0 -251 -141 -381q-129 -115 -358 -115t-378 99l66 202q124 -80 269 -81q144 0 214 58t70 206zM686 1509l137 -196l-420 -215l-71 110z
" />
    <glyph glyph-name="thorn" unicode="&#xfe;" horiz-adv-x="1169" 
d="M135 1380h262v-520q71 96 164.5 125t169.5 29t148.5 -42t144.5 -145t72 -334t-119 -374.5t-289 -143.5q-115 0 -181.5 47.5t-109.5 106.5v-520h-262v1771zM627 805q-124 0 -230 -131v-209q0 -129 59.5 -205t153.5 -76q158 0 191 118t33 232t-57.5 192.5t-149.5 78.5z" />
    <glyph glyph-name="ydieresis" unicode="&#xff;" horiz-adv-x="1157" 
d="M764 68v86q-36 -58 -115 -106t-174 -48q-164 0 -254 94t-90 281v614h262v-606q0 -94 38 -134t116 -40q112 0 213 131v649h262v-909q0 -251 -141 -381q-129 -115 -358 -115t-378 99l66 202q124 -80 269 -81q144 0 214 58t70 206zM797 1386q65 0 101 -38t36 -90t-36 -91
t-102 -39t-101 39q-36 39 -36 90t36 90t102 39zM358 1386q66 0 102 -38t36 -90t-36 -91t-102 -39t-102 39t-35 90q-1 51 35 90t102 39z" />
    <glyph glyph-name="dotlessi" unicode="&#x131;" horiz-adv-x="540" 
d="M401 0h-262v989h262v-989z" />
    <glyph glyph-name="Lslash" unicode="&#x141;" horiz-adv-x="1064" 
d="M410 229h610v-229h-877v549l-127 -55v192l127 55v639l267 2v-526l295 127v-192l-295 -127v-435z" />
    <glyph glyph-name="lslash" unicode="&#x142;" horiz-adv-x="540" 
d="M410 0h-267v549l-129 -55v192l129 55v639h267v-524l116 51v-192l-116 -51v-664z" />
    <glyph glyph-name="OE" unicode="&#x152;" horiz-adv-x="2088" 
d="M340 690.5q0 -235.5 96 -366.5t282.5 -131t283 131t96.5 366.5t-96.5 366.5t-283 131t-282.5 -131t-96 -366.5zM693 -25q-293 0 -456 199.5t-163 516t164.5 515.5t468.5 199q137 0 238.5 -49t156.5 -127v151h893v-225h-639v-338h600v-225h-600v-367h651v-225h-905v152
q-150 -177 -409 -177z" />
    <glyph glyph-name="oe" unicode="&#x153;" horiz-adv-x="1722" 
d="M1405 586q0 237 -172 237q-98 0 -158.5 -70.5t-70.5 -193.5h401v27zM334 495.5q0 -147.5 62.5 -233.5t192.5 -86t189 117q-26 88 -26 203t26 198q-61 119 -190 119t-191.5 -85t-62.5 -232.5zM1010 406q44 -230 292 -230q116 0 232 62l57 -183q-135 -80 -336 -80
q-121 0 -217 39t-151 105q-94 -144 -327 -144t-360.5 147t-127.5 375q0 227 128.5 372t358.5 145t330 -140q53 59 140 99.5t195 40.5t185.5 -32t131.5 -88t82 -134t28 -172t-29 -182h-612z" />
    <glyph glyph-name="Scaron" unicode="&#x160;" horiz-adv-x="1103" 
d="M338 1040q0 -95 82 -149q47 -32 151 -67q103 -36 179 -68t137 -80q139 -112 139 -300q0 -189 -142 -295t-387 -106t-427 105l67 217q180 -100 352 -98q117 0 197 46t80 142q0 119 -177 179q-51 16 -109 36q-177 59 -262 128q-140 112 -140 290t115 274q128 111 359 111
t413 -90l-68 -205q-155 70 -298 71q-141 1 -201 -42t-60 -99zM627 1505h-152l-274 301h258l92 -157l92 157h258z" />
    <glyph glyph-name="scaron" unicode="&#x161;" horiz-adv-x="913" 
d="M427 178q157 0 157 96q0 58 -56 90t-171 66q-273 81 -273 297q0 133 104 210t296 77t329 -72l-59 -192q-116 61 -265 61t-149 -84q0 -45 40 -70t116 -51t141 -54q203 -91 203 -286q0 -125 -104 -208t-310 -83q-205 0 -352 76l59 197q137 -70 294 -70zM532 1104h-151
l-275 301h259l92 -158l92 158h258z" />
    <glyph glyph-name="Ydieresis" unicode="&#x178;" horiz-adv-x="1220" 
d="M743 0h-266v588l-461 792h289l307 -565l303 565h289l-461 -792v-588zM829 1788q66 0 102 -39t36 -90t-36 -90t-102 -39q-65 0 -101 39t-36 90t36 90t101 39zM391 1788q66 0 102 -39q35 -39 35 -90t-36 -90t-101 -39t-101 39t-36 90t36 90t101 39z" />
    <glyph glyph-name="Zcaron" unicode="&#x17d;" horiz-adv-x="1140" 
d="M119 1380h932v-163l-654 -992l662 4v-229h-993v164l655 995l-602 -4v225zM645 1505h-151l-275 301h258l92 -157l93 157h258z" />
    <glyph glyph-name="zcaron" unicode="&#x17e;" horiz-adv-x="937" 
d="M106 805v184h738v-135l-455 -670h471v-184h-790v135l454 670h-418zM545 1104h-152l-274 301h258l92 -158l92 158h258z" />
    <glyph glyph-name="florin" unicode="&#x192;" horiz-adv-x="1208" 
d="M276 629v184h179l34 240q23 168 117 260t279 92q137 0 231 -57l-76 -158q-42 27 -122 27q-150 0 -173 -166l-34 -238h245v-184h-272l-57 -436q-23 -168 -117 -260.5t-279 -92.5q-139 0 -231 58l76 157q41 -27 122 -27q150 1 173 167l57 434h-152z" />
    <glyph glyph-name="circumflex" unicode="&#x2c6;" horiz-adv-x="675" 
d="M688 1104h-258l-92 158l-92 -158h-258l274 301h152z" />
    <glyph glyph-name="caron" unicode="&#x2c7;" horiz-adv-x="675" 
d="M414 1104h-152l-274 301h258l92 -158l92 158h258z" />
    <glyph glyph-name="breve" unicode="&#x2d8;" horiz-adv-x="675" 
d="M338 1143q-156 0 -240 76.5t-98 218.5h201q22 -99 137 -99t137 99h201q-14 -141 -98 -218t-240 -77z" />
    <glyph glyph-name="dotaccent" unicode="&#x2d9;" horiz-adv-x="675" 
d="M338 1395q72 0 108.5 -42t36.5 -95.5t-36.5 -95.5t-108.5 -42t-108.5 42t-36.5 95.5t36.5 95.5t108.5 42z" />
    <glyph glyph-name="ring" unicode="&#x2da;" horiz-adv-x="675" 
d="M397 1296.5q0 71.5 -59 71.5t-59 -71.5t59 -71.5t59 71.5zM338 1497q43 0 82 -15.5t67.5 -43t45 -64.5t16.5 -78t-16.5 -77.5t-45 -64.5t-67.5 -43t-82 -15t-82 15t-67.5 43t-45 64.5t-16.5 77.5t16.5 78t45 64.5t67.5 43t82 15.5z" />
    <glyph glyph-name="ogonek" unicode="&#x2db;" horiz-adv-x="675" 
d="M233 4h162l217 -307h-272z" />
    <glyph glyph-name="tilde" unicode="&#x2dc;" horiz-adv-x="675" 
d="M219 1233q-67 0 -67 -92h-152q0 106 48 175.5t137 69.5t168 -51t112 -51q57 0 57 92h154q0 -111 -49 -178.5t-131 -67.5t-139.5 35t-83 51.5t-54.5 16.5z" />
    <glyph glyph-name="hungarumlaut" unicode="&#x2dd;" horiz-adv-x="675" 
d="M592 1415h239l-245 -293h-150zM231 1415h240l-246 -293h-149z" />
    <glyph glyph-name="uni03A9" unicode="&#x3a9;" horiz-adv-x="1552" 
d="M470.5 1062q-126.5 -120 -126.5 -313q0 -192 108.5 -358t245.5 -252v-139h-503v188h239q-110 91 -210.5 253.5t-100.5 320.5q0 157 50 272t138 197t208 126t330 44t395.5 -173t185.5 -450q0 -171 -99.5 -334t-212.5 -256h240v-188h-504v139q228 148 291 324.5t63 280.5
t-34.5 184t-125.5 167t-271 87t-306.5 -120z" />
    <glyph glyph-name="pi" unicode="&#x3c0;" horiz-adv-x="1314" 
d="M999 264q0 -96 78 -96q45 0 103 31l53 -172q-79 -52 -182 -52t-199 43.5t-96 257.5v512h-207v-370q0 -187 -27.5 -287t-48.5 -131h-264q43 70 69.5 195.5t26.5 222.5v366q-125 -21 -194 -55l-39 186q84 51 165.5 63.5t118.5 12.5h867v-203h-224v-524z" />
    <glyph glyph-name="uni0E00" unicode="&#xe00;" horiz-adv-x="399" 
 />
    <glyph glyph-name="uni0E01" unicode="&#xe01;" horiz-adv-x="1273" 
d="M401 481v-481h-266v479q0 66 31 117t78 80l-166 135q41 143 196 251.5t377 108.5t356 -126t134 -332v-713h-267v713q0 123 -66.5 184t-190.5 61t-184 -56t-75 -83l172 -145q-129 -47 -129 -193z" />
    <glyph glyph-name="uni0E02" unicode="&#xe02;" horiz-adv-x="1161" 
d="M565.5 184q196.5 0 196.5 213v750h266v-748q0 -201 -111.5 -312.5t-351 -111.5t-351.5 106.5t-112 301.5v106q0 66 29 116t63.5 92t63.5 82t29 83v29q0 47 -47 47h-125v209h157q219 0 244 -88t25 -146v-51q0 -59 -27 -104t-59.5 -87t-59 -85t-26.5 -97v-108
q0 -197 196.5 -197z" />
    <glyph glyph-name="uni0E03" unicode="&#xe03;" horiz-adv-x="1179" 
d="M386 1163q198 0 198 -207v-38q0 -59 -31 -108.5t-67.5 -94.5t-67.5 -92.5t-31 -104.5v-137q0 -197 196.5 -197t196.5 213v750h267v-748q0 -201 -112 -312.5t-351.5 -111.5t-351 106.5t-111.5 301.5v135q0 63 31.5 116.5t70.5 99.5t71 88t32 83v29q0 33 -31 33
q-38 0 -68 -84l-178 90v201l174 -89q62 78 163 78z" />
    <glyph glyph-name="uni0E04" unicode="&#xe04;" horiz-adv-x="1306" 
d="M731 621v-222h-121q-171 0 -211 -139v-260h-266v713q0 197 141 327.5t379.5 130.5t379.5 -130.5t141 -327.5v-713h-267v711q0 106 -65.5 176.5t-188.5 70.5t-188.5 -70.5t-65.5 -176.5v-203q60 113 217 113h115z" />
    <glyph glyph-name="uni0E05" unicode="&#xe05;" horiz-adv-x="1327" 
d="M739 621v-222h-125q-175 0 -215 -139v-260h-266v795q0 304 313 376l218 -133l217 133q313 -73 313 -376v-795h-266v797q0 123 -92 141l-172 -107l-172 107q-92 -18 -93 -141v-289q60 113 222 113h118z" />
    <glyph glyph-name="uni0E06" unicode="&#xe06;" horiz-adv-x="1259" 
d="M386 1163q198 0 198 -207v-26q0 -66 -29 -117t-62.5 -97t-61.5 -93.5t-28 -104.5v-143q37 -78 110 -132.5t161 -54.5q186 0 186 236v723h266v-735q0 -217 -101 -327t-286 -110q-102 0 -190.5 48.5t-145.5 117.5l-28 -141h-238v518q0 63 30 116.5t64.5 99.5t64.5 88t30 83
v29q0 33 -31 33q-38 0 -68 -84l-178 90v201l174 -89q62 78 163 78z" />
    <glyph glyph-name="uni0E07" unicode="&#xe07;" horiz-adv-x="1161" 
d="M623 1171q217 0 338.5 -149.5t121.5 -420.5q0 -270 -147 -435.5t-379 -165.5h-211l-346 1147h262l281 -934h22q101 0 176.5 111.5t75.5 293.5t-60.5 261t-154.5 79q-63 0 -137 -26l-39 194q81 45 197 45z" />
    <glyph glyph-name="uni0E08" unicode="&#xe08;" horiz-adv-x="1120" 
d="M480 1171q282 0 422 -149.5t140 -407.5t-108.5 -389t-199.5 -178t-191 -47h-217l-103 406q-10 47 -59 47h-76v213h150q80 0 132 -30t74 -120l76 -303h23q97 13 165 120.5t68 282.5q0 176 -79 259t-214 83q-221 0 -393 -149l-82 190q190 172 472 172z" />
    <glyph glyph-name="uni0E09" unicode="&#xe09;" horiz-adv-x="1224" 
d="M825 686q0 272 -248 272q-226 0 -423 -151l-97 197q244 167 511 167q268 0 396 -128t128 -357v-686h-238l-29 141q-120 -166 -336 -166q-156 0 -238.5 85t-82.5 274v74q0 45 -39 45h-59v213h161q203 0 203 -197v-123q0 -130 55.5 -144t85.5 -14q185 0 250 187v311z" />
    <glyph glyph-name="uni0E0A" unicode="&#xe0a;" horiz-adv-x="1161" 
d="M567.5 184q198.5 0 198.5 213v213q0 66 -21.5 94.5t-68.5 28.5h-31l-41 98l217 316h279l-232 -297q82 -27 123 -94.5t41 -151.5v-205q0 -201 -112.5 -312.5t-352.5 -111.5q-465 0 -465 408v106q0 66 29 116t63.5 92t63.5 82t29 83v29q0 47 -47 47h-125v209h157
q219 0 244 -88t25 -146v-51q0 -59 -27 -104t-59.5 -87t-59 -85t-26.5 -97v-108q0 -197 198.5 -197z" />
    <glyph glyph-name="uni0E0B" unicode="&#xe0b;" horiz-adv-x="1175" 
d="M583.5 184q196.5 0 196.5 213v213q0 66 -21.5 94.5t-68.5 28.5h-31l-41 98l218 316h278l-231 -297q82 -27 123 -94.5t41 -151.5v-205q0 -201 -112 -312.5t-351.5 -111.5t-351 106.5t-111.5 301.5v135q0 63 31.5 116.5t70.5 99.5t71 88t32 83v29q0 33 -31 33
q-38 0 -68 -84l-178 90v201l174 -89q63 78 163 78q198 0 198 -207v-38q0 -59 -31 -108.5t-67.5 -94.5t-67.5 -92.5t-31 -104.5v-137q0 -197 196.5 -197z" />
    <glyph glyph-name="uni0E0C" unicode="&#xe0c;" horiz-adv-x="1916" 
d="M401 481v-239q0 -33 31 -33h119v-209h-180q-119 0 -177.5 60.5t-58.5 164.5v254q0 66 31 117t78 80l-166 135q41 144 189.5 252t359.5 108q212 0 339.5 -125.5t127.5 -332.5v-338q37 -78 106.5 -132.5t147.5 -54.5q170 0 170 236v723h266v-735q0 -217 -99.5 -327
t-255.5 -110t-234.5 69t-100.5 97l-29 -141h-238v713q0 123 -61 184t-171 61t-166 -56t-71 -83l172 -145q-129 -47 -129 -193z" />
    <glyph glyph-name="uni0E0D" unicode="&#xe0d;" horiz-adv-x="1912" 
d="M1518 68v98q-84 -106 -177.5 -136t-144.5 -30q-170 0 -269.5 96.5t-99.5 302.5v314q0 123 -61 184t-171 61t-166 -56t-71 -83l172 -145q-129 -47 -129 -193v-239q0 -33 31 -33h119v-209h-180q-119 0 -177.5 60.5t-58.5 164.5v254q0 66 31 117t78 80l-166 135
q41 144 189.5 252t359.5 108q212 0 339.5 -125.5t127.5 -332.5v-301q0 -111 38.5 -155t121.5 -44t153 54.5t106 131.5v748h267v-1067q0 -214 -140 -324t-361 -110t-411 96l66 182q156 -80 334 -80t214 79t36 145z" />
    <glyph glyph-name="uni0E0E" unicode="&#xe0e;" horiz-adv-x="1290" 
d="M176 479q0 127 100 189l-186 143q42 146 197 253t380 107t357.5 -124.5t132.5 -333.5v-1123h-278q-43 43 -114 75t-145 32t-147.5 -23.5t-161.5 -95.5l-71 209q63 59 144 94t211 35t201.5 -47t94.5 -72v916q0 123 -66.5 184t-170.5 61t-178.5 -43t-104.5 -96l192 -153
q-63 -23 -92 -65t-29 -120v-256q0 -104 -58 -164.5t-177 -60.5h-156v209h94q31 0 31 33v237z" />
    <glyph glyph-name="uni0E0F" unicode="&#xe0f;" horiz-adv-x="1290" 
d="M176 479q0 127 100 189l-186 143q42 146 197 253t380 107t357.5 -124.5t132.5 -333.5v-1123h-274l-199 125q-95 -141 -258 -141q-137 0 -244 59l68 209q90 -59 182 -59q174 0 215 164l244 -160v926q0 123 -66.5 184t-170.5 61t-178.5 -43t-104.5 -96l192 -153
q-63 -23 -92 -65t-29 -120v-256q0 -104 -58 -164.5t-177 -60.5h-156v209h94q31 0 31 33v237z" />
    <glyph glyph-name="uni0E10" unicode="&#xe10;" horiz-adv-x="1120" 
d="M655 -205h66v117h237v-322h-282q-66 0 -123 28t-86 79q-27 -51 -84 -79t-119 -28h-160v205h158q68 0 118 22.5t87 80.5q80 -103 188 -103zM901 997q141 -162 141 -402t-108.5 -370.5t-199.5 -177.5t-191 -47h-217l-103 406q-10 47 -59 47h-76v213h150q80 0 132 -30
t74 -120l76 -303h23q97 13 165 120.5t68 276.5q0 170 -79 259t-214 89q-221 0 -393 -149l-82 190q190 172 490 172q117 0 219 -43l84 99h293z" />
    <glyph glyph-name="uni0E11" unicode="&#xe11;" horiz-adv-x="1294" 
d="M397 1163q135 0 156 -127q47 55 122 95t153 40q151 0 241 -94t90 -284v-793h-266v780q0 100 -28.5 139t-99.5 39t-136.5 -44t-145.5 -152t-80 -273v-489h-266v479q0 105 56.5 219t132.5 181v55q0 33 -31 33q-38 0 -68 -84l-178 90v201l174 -89q63 78 174 78z" />
    <glyph glyph-name="uni0E12" unicode="&#xe12;" horiz-adv-x="2037" 
d="M1194 795v-420q37 -78 108.5 -132.5t163.5 -54.5t132 59.5t40 176.5v723h267v-735q0 -217 -96.5 -327t-287.5 -110t-327 166l-29 -141h-237v797q0 123 -92 141l-164 -98l-156 94q-168 -84 -168 -375q0 -187 71 -274.5t161.5 -87.5t158.5 30l47 -192q-81 -51 -201 -51
q-232 0 -367.5 147t-135.5 430q0 221 109.5 392t293.5 218l187 -129l209 129q313 -73 313 -376z" />
    <glyph glyph-name="uni0E13" unicode="&#xe13;" horiz-adv-x="1916" 
d="M401 481v-239q0 -33 31 -33h119v-209h-180q-119 0 -177.5 60.5t-58.5 164.5v254q0 66 31 117t78 80l-166 135q41 144 189.5 252t359.5 108q212 0 339.5 -125.5t127.5 -332.5v-326q0 -111 38.5 -155t121.5 -44t153 54.5t106 132.5v772h267v-1147h-238l-29 141
q-85 -108 -175.5 -137t-141.5 -29q-170 0 -269.5 96.5t-99.5 303.5v338q0 123 -61 184t-171 61t-166 -56t-71 -83l172 -145q-129 -47 -129 -193z" />
    <glyph glyph-name="uni0E14" unicode="&#xe14;" horiz-adv-x="1323" 
d="M82 550q0 273 150 447t413 174t404 -134.5t141 -344.5v-692h-266v694q0 121 -71 192.5t-207 71.5t-217 -107.5t-81 -293.5t71 -273t161.5 -87t158.5 30l47 -192q-81 -51 -199 -51q-226 0 -365.5 146.5t-139.5 419.5z" />
    <glyph glyph-name="uni0E15" unicode="&#xe15;" horiz-adv-x="1343" 
d="M1210 795v-795h-266v797q0 123 -92 141l-172 -98l-164 94q-168 -84 -168 -375q0 -187 71 -274.5t161.5 -87.5t158.5 30l47 -192q-81 -51 -201 -51q-232 0 -367.5 147t-135.5 430q0 221 109.5 392t293.5 218l195 -129l217 129q313 -73 313 -376z" />
    <glyph glyph-name="uni0E16" unicode="&#xe16;" horiz-adv-x="1275" 
d="M401 481v-239q0 -33 31 -33h119v-209h-180q-119 0 -177.5 60.5t-58.5 164.5v254q0 66 31 117t78 80l-166 135q41 143 196 251.5t378 108.5t357 -126t134 -332v-713h-266v713q0 123 -68 184t-192 61t-184 -56t-75 -83l172 -145q-129 -47 -129 -193z" />
    <glyph glyph-name="uni0E17" unicode="&#xe17;" horiz-adv-x="1292" 
d="M797 1171q162 0 262 -108.5t100 -310.5v-752h-266v739q0 111 -36 165t-120 54q-184 0 -334 -172v-786h-266v1147h238l28 -141q195 165 394 165z" />
    <glyph glyph-name="uni0E18" unicode="&#xe18;" horiz-adv-x="1161" 
d="M573 973q-119 0 -180 -33t-61 -80q0 -76 102 -92l342 -49q137 -20 214 -87t77 -206v-86q0 -195 -114.5 -276.5t-376.5 -81.5q-261 0 -376.5 87.5t-115.5 288.5v109h254v-109q0 -98 57 -138t183 -40t180.5 35t54.5 125v92q0 71 -82 84l-348 49q-141 20 -223 87t-82 207
t128 226t379 86t435 -96l-47 -196q-174 94 -400 94z" />
    <glyph glyph-name="uni0E19" unicode="&#xe19;" horiz-adv-x="1271" 
d="M399 403q0 -117 49.5 -166t138.5 -49t165.5 52.5t115.5 134.5v772h267v-1147h-238l-29 141q-81 -109 -184.5 -137.5t-161.5 -28.5q-182 0 -285.5 100.5t-103.5 315.5v756h266v-744z" />
    <glyph glyph-name="uni0E1A" unicode="&#xe1a;" horiz-adv-x="1277" 
d="M639 -25q-240 0 -373 115t-133 346v711h266v-711q0 -119 63.5 -183.5t176.5 -64.5t176.5 64.5t63.5 183.5v711h266v-711q0 -231 -133 -346t-373 -115z" />
    <glyph glyph-name="uni0E1B" unicode="&#xe1b;" horiz-adv-x="1277" 
d="M639 -25q-240 0 -373 115t-133 346v711h266v-711q0 -119 63.5 -183.5t176.5 -64.5t176.5 64.5t63.5 183.5v1100h266v-1100q0 -231 -133 -346t-373 -115z" />
    <glyph glyph-name="uni0E1C" unicode="&#xe1c;" horiz-adv-x="1404" 
d="M1014 637v510h254v-1147h-291l-182 393q-54 110 -86 246h-4q-31 -132 -87 -246l-190 -393h-291v922q0 104 58.5 164.5t177.5 60.5h168v-209h-119q-31 0 -31 -33v-268q0 -201 -33 -399h7q47 183 110 307l150 280h163l142 -280q64 -121 110 -307h7q-33 211 -33 399z" />
    <glyph glyph-name="uni0E1D" unicode="&#xe1d;" horiz-adv-x="1404" 
d="M1014 637v899h254v-1536h-291l-182 393q-54 110 -86 246h-4q-31 -132 -87 -246l-190 -393h-291v922q0 104 58.5 164.5t177.5 60.5h168v-209h-119q-31 0 -31 -33v-268q0 -201 -33 -399h7q47 183 110 307l150 280h163l142 -280q64 -121 110 -307h7q-33 211 -33 399z" />
    <glyph glyph-name="uni0E1E" unicode="&#xe1e;" horiz-adv-x="1525" 
d="M887 1090l141 -506q8 -37 24 -100.5t35 -278.5h7q3 218 30 379l90 563h261l-195 -1147h-293l-151 524q-48 167 -70 365h-6q-22 -198 -70 -365l-151 -524h-293l-195 1147h260l90 -563q28 -164 31 -379h6q22 252 60 379l141 506h248z" />
    <glyph glyph-name="uni0E1F" unicode="&#xe1f;" horiz-adv-x="1525" 
d="M1120 205q0 230 19 379l96 952h248l-185 -1536h-284l-162 524q-64 222 -80 365h-6q-24 -220 -66 -365l-161 -524h-293l-195 1147h260l90 -563q28 -164 31 -379h6q14 158 37 250t33 129l137 506h248l151 -506q38 -118 70 -379h6z" />
    <glyph glyph-name="uni0E20" unicode="&#xe20;" horiz-adv-x="1290" 
d="M176 479q0 127 100 189l-186 143q42 146 197 253t380 107t357.5 -124.5t132.5 -333.5v-713h-266v713q0 123 -66.5 184t-170.5 61t-178.5 -43t-104.5 -96l192 -153q-63 -23 -92 -65t-29 -120v-256q0 -104 -58 -164.5t-177 -60.5h-156v209h94q31 0 31 33v237z" />
    <glyph glyph-name="uni0E21" unicode="&#xe21;" horiz-adv-x="1271" 
d="M872 1147h267v-735q0 -217 -104.5 -327t-289.5 -110q-103 0 -194.5 49t-147.5 117l-28 -141h-238v1147h266v-772q58 -126 146 -156.5t131 -30.5q193 0 192 236v723z" />
    <glyph glyph-name="uni0E22" unicode="&#xe22;" horiz-adv-x="1234" 
d="M475 948q-137 0 -137 -108q0 -53 45 -85t98 -32h156l22 -205h-139q-84 0 -130 -41t-46 -119t61.5 -124t153.5 -46q137 0 207 70t70 186v703h266v-705q0 -336 -201 -401.5t-327 -65.5q-237 0 -364.5 99t-127.5 286q0 98 58.5 169t148.5 87q-77 16 -142 95.5t-65 187.5
q0 109 85 186.5t232 77.5q146 0 234 -43l-27 -198q-65 26 -131 26z" />
    <glyph glyph-name="uni0E23" unicode="&#xe23;" horiz-adv-x="1040" 
d="M854 881q-143 77 -331 77q-187 0 -187 -103q0 -56 67 -90t165 -67q203 -69 296.5 -151t93.5 -235t-118 -245t-352 -92t-406 99l63 202q163 -88 332 -88q223 0 223 125q0 66 -62 100.5t-161 66.5q-98 32 -248.5 97t-150.5 279q0 135 120.5 225t325.5 90t400 -102z" />
    <glyph glyph-name="uni0E24" unicode="&#xe24;" horiz-adv-x="1275" 
d="M401 481v-239q0 -33 31 -33h119v-209h-180q-119 0 -177.5 60.5t-58.5 164.5v254q0 66 31 117t78 80l-166 135q41 143 196 251.5t378 108.5t357 -126t134 -332v-1123h-266v1123q0 123 -68 184t-192 61t-184 -56t-75 -83l172 -145q-129 -47 -129 -193z" />
    <glyph glyph-name="uni0E25" unicode="&#xe25;" horiz-adv-x="1220" 
d="M578 502q-252 0 -252 -150q0 -82 47 -124t125 -42t149 35l43 -194q-95 -45 -204 -45q-200 0 -310 93.5t-110 274.5q0 182 132 269.5t400 87.5h229v38q0 98 -56 160t-177 62q-216 0 -399 -133l-84 184q80 59 207.5 106t263.5 47q245 0 375 -115.5t130 -310.5v-745h-260
v502h-249z" />
    <glyph glyph-name="uni0E26" unicode="&#xe26;" horiz-adv-x="1290" 
d="M176 479q0 127 100 189l-186 143q42 146 197 253t380 107t357.5 -124.5t132.5 -333.5v-1123h-266v1123q0 123 -66.5 184t-170.5 61t-178.5 -43t-104.5 -96l192 -153q-63 -23 -92 -65t-29 -120v-256q0 -104 -58 -164.5t-177 -60.5h-156v209h94q31 0 31 33v237z" />
    <glyph glyph-name="uni0E27" unicode="&#xe27;" horiz-adv-x="1083" 
d="M432 188q303 0 303 385t-314 385q-152 0 -308 -110l-62 201q186 122 426 122t382 -151.5t142 -445.5t-144 -446.5t-401 -152.5t-405 105l62 207q170 -99 319 -99z" />
    <glyph glyph-name="uni0E28" unicode="&#xe28;" horiz-adv-x="1306" 
d="M731 621v-222h-121q-171 0 -211 -139v-260h-266v713q0 197 141 327.5t379 130.5q97 0 203 -36l80 92h293l-182 -219q127 -127 127 -306v-702h-267v700q0 109 -66.5 183.5t-188.5 74.5t-187.5 -70.5t-65.5 -176.5v-203q60 113 217 113h115z" />
    <glyph glyph-name="uni0E29" unicode="&#xe29;" horiz-adv-x="1302" 
d="M639 -25q-240 0 -373 115t-133 346v711h266v-711q0 -119 63.5 -183.5t176.5 -64.5t176.5 64.5t63.5 183.5v125h-244v207h244v379h266v-379h182l-47 -207h-135v-125q0 -231 -133 -346t-373 -115z" />
    <glyph glyph-name="uni0E2A" unicode="&#xe2a;" horiz-adv-x="1220" 
d="M578 502q-252 0 -252 -150q0 -82 47 -124t125 -42t149 35l43 -194q-95 -45 -204 -45q-200 0 -310 93.5t-110 274.5q0 182 132 269.5t400 87.5h229v38q0 149 -87 185.5t-146 36.5q-216 0 -399 -133l-84 184q80 59 207.5 106t257.5 47t204 -30l70 86h293l-168 -201
q112 -120 112 -281v-745h-260v502h-249z" />
    <glyph glyph-name="uni0E2B" unicode="&#xe2b;" horiz-adv-x="1245" 
d="M403 0h-266v1147h266v-389l465 389h336l-418 -344q104 -29 158.5 -92.5t87.5 -155.5l185 -555h-273l-162 489q-55 153 -178 162l-201 -172v-479z" />
    <glyph glyph-name="uni0E2C" unicode="&#xe2c;" horiz-adv-x="1404" 
d="M1014 637v266q0 63 -28 103.5t-87 40.5h-27l-41 98l287 391h266l-305 -373q90 -18 139.5 -92t49.5 -188v-883h-291l-191 393q-49 100 -86 246h-4q-32 -136 -86 -246l-182 -393h-291v1147h254v-510q0 -201 -33 -399h7q47 183 110 307l141 280h164l150 -280
q64 -121 110 -307h7q-33 211 -33 399z" />
    <glyph glyph-name="uni0E2D" unicode="&#xe2d;" horiz-adv-x="1241" 
d="M74 1010q227 161 499 161t429 -156t157 -448t-150.5 -442t-408.5 -150q-385 0 -453.5 168t-68.5 265v34q0 113 49 168.5t160 55.5h262v-213h-176q-37 0 -37 -39v-6q0 -219 244 -220q145 0 229 97t84 289t-91 288t-239 96q-209 0 -403 -147z" />
    <glyph glyph-name="uni0E2E" unicode="&#xe2e;" horiz-adv-x="1241" 
d="M1159 564q0 -289 -150.5 -439t-408.5 -150q-385 0 -453.5 168t-68.5 265v34q0 113 49 168.5t160 55.5h262v-213h-176q-37 0 -37 -39v-6q0 -219 244 -220q145 0 229 97t84 285t-91 288t-239 100q-209 0 -403 -147l-86 199q227 161 508 161q106 0 204 -34l78 90h293
l-174 -207q176 -167 176 -456z" />
    <glyph glyph-name="uni0E2F" unicode="&#xe2f;" horiz-adv-x="1138" 
d="M739 0v784q-41 -74 -123 -123t-178 -49q-181 0 -279 115.5t-98 294.5v125h263v-125q0 -106 41 -153.5t99 -47.5q117 0 198 71.5t81 186.5v68h263v-1147h-267z" />
    <glyph glyph-name="uni0E30" unicode="&#xe30;" horiz-adv-x="665" 
d="M324 379q0 -47 47 -47h209v-201h-271q-160 0 -195.5 84t-35.5 150v94h246v-80zM324 932q0 -47 47 -47h209v-201h-271q-160 0 -195.5 84t-35.5 150v94h246v-80z" />
    <glyph glyph-name="uni0E31" unicode="&#xe31;" 
d="M-406 1538q0 -47 48 -47h524v-201h-586q-160 0 -195.5 84t-35.5 150v102h245v-88z" />
    <glyph glyph-name="uni0E32" unicode="&#xe32;" horiz-adv-x="999" 
d="M430 1171q219 0 327.5 -118.5t108.5 -323.5v-729h-266v737q0 221 -184 221q-171 0 -340 -110l-68 190q203 133 422 133z" />
    <glyph glyph-name="uni0E33" unicode="&#xe33;" horiz-adv-x="999" 
d="M-268 1407q33 0 55.5 23.5t22.5 58.5t-23 57.5t-55 22.5t-56 -22.5t-24 -57.5t23.5 -58.5t56.5 -23.5zM-432.5 1648q67.5 66 163.5 66q97 0 163.5 -66.5t66.5 -160t-65.5 -160.5t-164.5 -67q-98 0 -164.5 66.5t-66.5 161t67.5 160.5zM430 1171q219 0 327.5 -118.5
t108.5 -323.5v-729h-266v737q0 221 -184 221q-171 0 -340 -110l-68 190q203 133 422 133z" />
    <glyph glyph-name="uni0E34" unicode="&#xe34;" 
d="M-1065 1290v201h932v-201h-932z" />
    <glyph glyph-name="uni0E35" unicode="&#xe35;" 
d="M-1065 1290v201h694v195h238v-396h-932z" />
    <glyph glyph-name="uni0E36" unicode="&#xe36;" 
d="M-290 1425q30 0 50.5 21.5t20.5 53.5t-20.5 52.5t-50.5 20.5t-51 -20.5t-21 -52.5t21 -53.5t51 -21.5zM-1065 1290v201h563q0 94 61.5 154.5t149.5 60.5t149.5 -59.5t61.5 -148.5t-61.5 -148.5t-149.5 -59.5h-774z" />
    <glyph glyph-name="uni0E37" unicode="&#xe37;" 
d="M-1065 1290v201h473v195h184v-205h91v205h184v-396h-932z" />
    <glyph glyph-name="uni0E38" unicode="&#xe38;" 
d="M-375 -379q0 49 -49 49h-78v197h172q100 0 148.5 -43t48.5 -143v-256h-242v196z" />
    <glyph glyph-name="uni0E39" unicode="&#xe39;" 
d="M-440 -428q73 0 73 66v229h234v-229q0 -102 -80 -167t-227.5 -65t-225 64.5t-77.5 167.5v43h-119v186h348v-229q0 -35 22.5 -50.5t51.5 -15.5z" />
    <glyph glyph-name="uni0E3A" unicode="&#xe3a;" 
d="M-96 -280.5q0 -65.5 -48.5 -112.5t-115.5 -47t-116.5 47.5t-49.5 111.5t49 113t117 49t116 -48t48 -113.5z" />
    <glyph glyph-name="uni0E3F" unicode="&#xe3f;" horiz-adv-x="1208" 
d="M813 958q0 133 -133 158v-319q59 12 96 53.5t37 107.5zM549 793v329h-152v-329h152zM862 402q0 149 -182 176v-361q86 14 134 62t48 123zM549 213v371h-152v-371h152zM549 0h-406v1335h406v201h131v-203q195 -14 289 -109.5t94 -246.5q0 -93 -51.5 -161.5t-126.5 -108.5
q98 -29 164.5 -106t66.5 -210q0 -254 -161.5 -318.5t-274.5 -70.5v-207h-131v205z" />
    <glyph glyph-name="uni0E40" unicode="&#xe40;" horiz-adv-x="544" 
d="M406 1147v-1147h-267v1147h267z" />
    <glyph glyph-name="uni0E41" unicode="&#xe41;" horiz-adv-x="1011" 
d="M872 1147v-1147h-266v1147h266zM406 1147v-1147h-267v1147h267z" />
    <glyph glyph-name="uni0E42" unicode="&#xe42;" horiz-adv-x="618" 
d="M479 1212v-1212h-268v1229q0 146 -66 237t-155 129l-4 70q66 106 196.5 181t288.5 75t245 -20.5t163 -49.5l-43 -215q-152 74 -319 74q-168 0 -265 -92q227 -133 227 -406z" />
    <glyph glyph-name="uni0E43" unicode="&#xe43;" horiz-adv-x="618" 
d="M373 1921q157 0 252.5 -93.5t95.5 -230.5q0 -94 -38 -162.5t-83 -130t-83 -123t-38 -141.5v-1040h-268v1055q0 86 38 157.5t84 134t85 119t39 110.5t-33 94t-113 40t-139 -40t-119 -109l-98 161q156 199 418 199z" />
    <glyph glyph-name="uni0E44" unicode="&#xe44;" horiz-adv-x="618" 
d="M479 1327v-1327h-268v1309q0 272 184 366h-395v211h674v-192q-195 -86 -195 -367z" />
    <glyph glyph-name="uni0E45" unicode="&#xe45;" horiz-adv-x="999" 
d="M430 1171q219 0 327.5 -118.5t108.5 -323.5v-1139h-266v1147q0 221 -184 221q-171 0 -340 -110l-68 190q203 133 422 133z" />
    <glyph glyph-name="uni0E46" unicode="&#xe46;" horiz-adv-x="1187" 
d="M413 756q40 0 87 18l35 -180q-73 -39 -147 -39q-143 0 -228.5 82t-85.5 227t88.5 222t214.5 88l180 -127l178 124q156 -10 238 -101t82 -239v-1241h-267v1274q0 106 -65 119l-166 -119l-184 121q-60 -18 -60 -117q0 -53 30 -82.5t70 -29.5z" />
    <glyph glyph-name="uni0E47" unicode="&#xe47;" 
d="M-369 1473h166v-183h-157q-51 0 -94.5 29t-67.5 76q-23 -49 -70 -82t-119 -33q-119 0 -194.5 63.5t-75.5 177.5t79.5 191.5t223.5 77.5h473v-182h-467q-106 0 -106 -80q0 -37 24.5 -60.5t62.5 -23.5t65.5 25.5t35.5 62.5l129 2q17 -61 92 -61z" />
    <glyph glyph-name="uni0E48" unicode="&#xe48;" 
d="M-371 1796v336h238v-336h-238z" />
    <glyph glyph-name="uni0E49" unicode="&#xe49;" 
d="M-457 2167q131 0 131 -113v-39q0 -31 29 -30h274v-189h-389q-47 0 -75.5 26.5t-28.5 71.5v52q0 31 -29 30h-119v191h207z" />
    <glyph glyph-name="uni0E4A" unicode="&#xe4a;" 
d="M-637 1895q0 -51 25 -103h-181q-41 63 -41 145q0 112 75 151.5t124 41.5l123 -92l115 94q79 -4 129.5 -58.5t50.5 -131.5v-18q0 -19 -4 -32q51 55 51 183q0 49 -33 112h203q25 -56 25 -114q0 -112 -76.5 -194.5t-190.5 -82.5h-120l-13 31q17 23 17 59q1 70 -54 78
l-96 -63l-98 57q-31 -12 -31 -63z" />
    <glyph glyph-name="uni0E4B" unicode="&#xe4b;" 
d="M-537 2116l183 -7l-6 150h217l-7 -150l183 7v-177l-183 7l7 -150h-217l6 150l-183 -7v177z" />
    <glyph glyph-name="uni0E4C" unicode="&#xe4c;" 
d="M-203 1724q-23 0 -38 -14t-15 -41v-72h-244v109q0 100 62.5 158.5t185.5 58.5h225v-199h-176z" />
    <glyph glyph-name="uni0E4D" unicode="&#xe4d;" 
d="M-268 1407q33 0 55.5 23.5t22.5 58.5t-23 57.5t-55 22.5t-56 -22.5t-24 -57.5t23.5 -58.5t56.5 -23.5zM-432.5 1648q67.5 66 163.5 66q97 0 163.5 -66.5t66.5 -160t-65.5 -160.5t-164.5 -67q-98 0 -164.5 66.5t-66.5 161t67.5 160.5z" />
    <glyph glyph-name="uni0E4E" unicode="&#xe4e;" 
d="M-427 1550q-83 0 -83 -43t24.5 -61.5t75.5 -18.5t123 27v-135q-70 -41 -169 -41t-171.5 47t-72.5 149t69.5 158t204.5 37q-43 38 -43 81q0 44 34 77t118 33h167l37 -146h-168q-24 0 -24 -34q0 -23 74 -58l-43 -96q-70 24 -153 24z" />
    <glyph glyph-name="uni0E4F" unicode="&#xe4f;" horiz-adv-x="1118" 
d="M558 389q42 0 70.5 30t28.5 72t-29.5 70.5t-70.5 28.5t-70.5 -30t-29.5 -70.5t29.5 -70.5t71.5 -30zM380 311.5q-75 71.5 -75 178.5q0 106 73.5 179.5t179.5 73.5t179.5 -73.5t73.5 -178.5t-74.5 -178t-177.5 -73q-104 0 -179 71.5zM559 145q72 0 135.5 27t110.5 74
t73.5 110.5t26.5 135t-26.5 134t-73.5 109.5t-110.5 75t-135.5 28t-134.5 -28t-109.5 -75t-74.5 -109.5t-27.5 -134t27.5 -135t74.5 -110.5t109.5 -74t134.5 -27zM559 53q-90 0 -170 35t-139.5 94.5t-93 139t-33.5 170t33.5 170t93 139t139.5 93.5t170 34t170 -34
t139.5 -93.5t93 -139t33.5 -170t-33.5 -170t-93 -139t-139.5 -94.5t-170 -35z" />
    <glyph glyph-name="uni0E50" unicode="&#xe50;" horiz-adv-x="1331" 
d="M82 495.5q0 122.5 46 220t125 163t185.5 100.5t227 35t227 -35t185.5 -100.5t125 -163t46 -220t-46 -220t-125 -164t-185.5 -101.5t-227 -35t-227 35t-185.5 101.5t-125 164t-46 220zM435 264.5q91 -88.5 231 -88.5t230.5 88.5t90.5 231.5t-90.5 230t-230.5 87
q-139 0 -230.5 -87t-91.5 -230t91 -231.5z" />
    <glyph glyph-name="uni0E51" unicode="&#xe51;" horiz-adv-x="1357" 
d="M552 96q-214 0 -344 113t-130 330t160.5 346t428.5 129t438.5 -160.5t170.5 -431.5q0 -311 -203.5 -482t-519.5 -171h-61l24 200h55q185 0 314 112t129 320t-99 310t-249 102t-238 -74.5t-88 -196.5t54.5 -185.5t140.5 -63.5q122 0 202 39l21 -178q-98 -58 -206 -58z" />
    <glyph glyph-name="uni0E52" unicode="&#xe52;" horiz-adv-x="1564" 
d="M1442 414q0 -186 -110.5 -300t-309.5 -114h-475q-198 0 -309 113t-111 301v733h262v-733q0 -100 46 -156.5t122 -56.5h457q74 0 120 56t46 157v231q0 131 -82 160l-152 -103l-155 103q-27 -10 -46.5 -42t-19.5 -80t31.5 -95t91.5 -68l-53 -149q-141 20 -229.5 104
t-88.5 236q0 103 65.5 190t198.5 113l205 -148l187 148q160 -23 234.5 -111t74.5 -262v-227z" />
    <glyph glyph-name="uni0E53" unicode="&#xe53;" horiz-adv-x="1394" 
d="M702 866q82 148 242 148q153 0 240.5 -89.5t87.5 -246.5v-678h-262v680q0 135 -88 135q-107 0 -107 -147v-299h-229v299q0 68 -17.5 107.5t-63.5 39.5q-81 0 -119 -86t-38 -228t44 -231.5t124 -89.5q45 0 105 27l47 -162q-73 -61 -168 -61q-193 0 -303.5 136t-110.5 376
t109.5 379t275.5 139q165 0 231 -148z" />
    <glyph glyph-name="uni0E54" unicode="&#xe54;" horiz-adv-x="1280" 
d="M653 362q0 141 81 200t208 59h180l-43 -197h-84q-37 0 -66.5 -25.5t-29.5 -76.5t42 -88t134 -37h158l-43 -197h-160q-88 0 -143.5 16.5t-100.5 57.5q-88 -99 -272 -99q-183 0 -307.5 138t-124.5 378t151.5 369t401.5 129h223q76 0 97.5 23.5t21.5 60.5v74h258v-74
q0 -145 -93 -215t-259 -70h-246q-293 0 -293 -303q0 -141 64.5 -225t151.5 -84t140 39q-47 68 -47 147z" />
    <glyph glyph-name="uni0E55" unicode="&#xe55;" horiz-adv-x="1280" 
d="M582 944q29 0 49 21.5t20 51.5t-20.5 50t-48.5 20t-49 -20t-21 -50t20.5 -51.5t49.5 -21.5zM653 362q0 141 81 200t208 59h180l-43 -197h-84q-37 0 -66.5 -25.5t-29.5 -76.5t42 -88t134 -37h158l-43 -197h-160q-88 0 -143.5 16.5t-100.5 57.5q-88 -99 -272 -99
q-183 0 -307.5 138t-124.5 370q0 178 77 293t212 168q-25 86 19.5 187.5t190.5 101.5q93 0 157.5 -62.5t64.5 -156.5l-2 -25h57q76 0 97.5 23.5t21.5 60.5v74h258v-74q0 -285 -352 -285h-246q-293 0 -293 -303q0 -141 64.5 -225t151.5 -84t140 39q-47 68 -47 147z" />
    <glyph glyph-name="uni0E56" unicode="&#xe56;" horiz-adv-x="1275" 
d="M377 335q0 -63 59.5 -111t158.5 -48q169 0 253 98t84 236q0 139 -79 221t-238 82t-255 -117h-200l-160 471h264l74 -297q53 59 143.5 101.5t198.5 42.5q218 0 366 -141.5t148 -365.5q0 -223 -148 -377.5t-430 -154.5q-229 0 -361 100t-132 257t121 258l182 -131
q-49 -61 -49 -124z" />
    <glyph glyph-name="uni0E57" unicode="&#xe57;" horiz-adv-x="1705" 
d="M897 692q0 123 -82 123q-41 0 -56.5 -32.5t-15.5 -98.5v-70h-188v70q0 68 -12.5 99.5t-55.5 31.5q-139 0 -139 -310q0 -146 44 -235.5t124 -89.5q45 0 105 27l47 -162q-73 -61 -168 -61q-193 0 -303.5 136t-110.5 377t103 379t259 138t203 -131q61 131 234 131
q123 0 194.5 -90t71.5 -246v-502h39q139 0 139 166v805h254v-793q0 -162 -95 -258t-292 -96h-299v692z" />
    <glyph glyph-name="uni0E58" unicode="&#xe58;" horiz-adv-x="1366" 
d="M956 215q86 37 86 137q0 53 -39.5 88t-95.5 43l78 195q147 -23 227 -110t80 -226t-104.5 -245.5t-231.5 -110.5l-241 172l-217 -170q-186 4 -282.5 96t-96.5 258v238q0 181 131 295t346 114h283q76 0 97 23.5t21 60.5v74h258v-74q0 -145 -93 -215t-259 -70h-295
q-113 0 -170 -60t-57 -159v-200q0 -147 104 -156l228 162z" />
    <glyph glyph-name="uni0E59" unicode="&#xe59;" horiz-adv-x="1318" 
d="M901 1014q109 0 152 -107l39 240h227l-86 -430h-197q-16 63 -42.5 84.5t-64.5 21.5t-58.5 -25.5t-20.5 -60.5l258 -737h-246l-244 692q-23 59 -47 90t-73 31q-72 0 -113 -82.5t-41 -232.5t47 -234t112 -84t142 41l53 -176q-87 -65 -191 -65q-192 0 -308.5 141.5
t-116.5 378.5t115 375.5t299 138.5t256 -140q2 59 42 99.5t107 40.5z" />
    <glyph glyph-name="uni0E5B" unicode="&#xe5b;" horiz-adv-x="2363" 
d="M2140 340q-164 0 -258 149l-78 -251h-106l-119 319l-111 -356h-108l-113 315q-69 -192 -229.5 -311t-386.5 -119q-225 0 -368.5 143.5t-143.5 358.5t134.5 347t324.5 132t297.5 -123t111.5 -297h-184q-8 111 -63.5 179.5t-135.5 68.5q-137 0 -208.5 -88.5t-71.5 -225.5
t94.5 -225t228.5 -88q237 0 364.5 203.5t141.5 441.5h125l133 -381l98 338h121l113 -319l86 272h110q4 -168 66.5 -251t153.5 -83q57 0 131 27l53 -139q-121 -37 -203 -37z" />
    <glyph glyph-name="endash" unicode="&#x2013;" horiz-adv-x="1097" 
d="M1057 604v-190h-1016v190h1016z" />
    <glyph glyph-name="emdash" unicode="&#x2014;" horiz-adv-x="1998" 
d="M1896 604v-190h-1794v190h1794z" />
    <glyph glyph-name="quoteleft" unicode="&#x2018;" horiz-adv-x="466" 
d="M276 1186q0 -29 25 -29q45 0 66.5 -37t21.5 -88t-33.5 -86t-97.5 -35q-152 0 -152 146q0 155 148 350l96 -37q-43 -61 -58.5 -115.5t-15.5 -68.5z" />
    <glyph glyph-name="quoteright" unicode="&#x2019;" horiz-adv-x="466" 
d="M190 1133q0 28 -24 28q-45 0 -66.5 37t-21.5 88t33.5 86t97.5 35q152 0 151 -145q0 -157 -147 -351l-96 37q45 64 59 117t14 68z" />
    <glyph glyph-name="quotesinglbase" unicode="&#x201a;" horiz-adv-x="466" 
d="M190 6q0 29 -24 29q-45 0 -66.5 37t-21.5 88t33.5 86t97.5 35q152 0 151 -146q0 -156 -147 -350l-96 37q45 64 59 117t14 67z" />
    <glyph glyph-name="quotedblleft" unicode="&#x201c;" horiz-adv-x="827" 
d="M637 1186q0 -29 25 -29q45 0 66.5 -37t21.5 -88t-34 -86t-98 -35q-152 0 -151 146q0 148 147 350l97 -37q-46 -67 -60 -118.5t-14 -65.5zM276 1186q0 -29 25 -29q45 0 66.5 -37t21.5 -88t-33.5 -86t-97.5 -35q-152 0 -152 146q0 155 148 350l96 -37q-43 -61 -58.5 -115.5
t-15.5 -68.5z" />
    <glyph glyph-name="quotedblright" unicode="&#x201d;" horiz-adv-x="827" 
d="M190 1133q0 28 -24 28q-45 0 -66.5 37t-21.5 88t33.5 86t97.5 35q152 0 151 -145q0 -157 -147 -351l-96 37q45 64 59 117t14 68zM551 1133q0 28 -25 28q-45 0 -66.5 37t-21.5 88t34 86t97 35q152 0 152 -145q0 -156 -148 -351l-96 37q46 66 60 118t14 67z" />
    <glyph glyph-name="quotedblbase" unicode="&#x201e;" horiz-adv-x="827" 
d="M190 6q0 29 -24 29q-45 0 -66.5 37t-21.5 88t33.5 86t97.5 35q152 0 151 -146q0 -156 -147 -350l-96 37q45 64 59 117t14 67zM551 6q0 29 -25 29q-45 0 -66.5 37t-21.5 88t34 86t97 35q152 0 152 -146q0 -155 -148 -350l-96 37q46 66 60 118t14 66z" />
    <glyph glyph-name="dagger" unicode="&#x2020;" horiz-adv-x="1120" 
d="M690 0h-260v805h-340v184h340v391h260v-391h340v-184h-340v-805z" />
    <glyph glyph-name="daggerdbl" unicode="&#x2021;" horiz-adv-x="1120" 
d="M690 473h340v-184h-340v-391h-260v391h-340v184h340v332h-340v184h340v391h260v-391h340v-184h-340v-332z" />
    <glyph glyph-name="bullet" unicode="&#x2022;" horiz-adv-x="663" 
d="M331 440q-120 0 -184.5 68t-64.5 168t61.5 171t188.5 71t188.5 -71t61.5 -169q0 -160 -94.5 -199t-156.5 -39z" />
    <glyph glyph-name="ellipsis" unicode="&#x2026;" horiz-adv-x="1609" 
d="M1176 133.5q0 63.5 43 111.5t122.5 48t122.5 -48t43 -111.5t-43 -112t-122.5 -48.5t-122.5 48.5t-43 112zM639 133.5q0 63.5 43 111.5t123 48t123 -48t43 -111.5t-43 -112t-123 -48.5t-123 48.5t-43 112zM102 133.5q0 63.5 43 111.5t123 48t123 -48t43 -111.5t-43 -112
t-123 -48.5t-123 48.5t-43 112z" />
    <glyph glyph-name="perthousand" unicode="&#x2030;" horiz-adv-x="2338" 
d="M1663 338q0 74 21.5 139.5t61.5 115.5t96 78.5t128 28.5t128 -28.5t96 -78.5t61.5 -115.5t21.5 -139.5t-21.5 -139.5t-61.5 -115.5t-96 -79t-128 -29t-128 29t-96 79t-61.5 115.5t-21.5 139.5zM1872 338q0 -86 25.5 -144.5t72.5 -58.5t72.5 58.5t25.5 144.5t-25.5 144.5
t-72.5 58.5t-72.5 -58.5t-25.5 -144.5zM946 338q0 74 21.5 139.5t61.5 115.5t96.5 78.5t128 28.5t128 -28.5t96.5 -78.5t61.5 -115.5t21.5 -139.5t-21.5 -139.5t-61.5 -115.5t-96.5 -79t-128 -29t-128 29t-96.5 79t-61.5 115.5t-21.5 139.5zM1155 338q0 -86 25.5 -144.5
t72.5 -58.5t73 58.5t26 144.5t-26 144.5t-73 58.5t-72.5 -58.5t-25.5 -144.5zM61 993.5q0 73.5 21.5 139t61.5 115.5t96.5 79t128 29t128 -29t96.5 -79t61.5 -115.5t21.5 -139t-21.5 -139.5t-61.5 -116t-96.5 -78.5t-128 -28.5t-128 28.5t-96.5 78.5t-61.5 116t-21.5 139.5z
M270 993q0 -86 26 -144t73 -58t72.5 58t25.5 144t-25.5 144.5t-72.5 58.5t-73 -58.5t-26 -144.5zM1065 1352h244l-752 -1352h-244z" />
    <glyph glyph-name="guilsinglleft" unicode="&#x2039;" horiz-adv-x="616" 
d="M295 496l260 -369h-252l-262 369l262 368h252z" />
    <glyph glyph-name="guilsinglright" unicode="&#x203a;" horiz-adv-x="616" 
d="M61 864h252l262 -368l-262 -369h-252l261 369z" />
    <glyph glyph-name="fraction" unicode="&#x2044;" horiz-adv-x="995" 
d="M752 1352h243l-751 -1352h-244z" />
    <glyph glyph-name="Euro" unicode="&#x20ac;" horiz-adv-x="1208" 
d="M1108 90q-115 -115 -335 -115t-356 147.5t-175 366.5h-156l41 132h98q-2 16 -2 21v54q0 49 2 68h-139l41 131h115q70 352 246 431t287 79q220 0 333 -115l-70 -209q-51 61 -114.5 88t-112.5 27q-101 0 -188.5 -72t-120.5 -229h420l-41 -131h-398q-2 -18 -2 -22v-55
q0 -50 2 -66h439l-41 -132h-379q34 -160 120.5 -232.5t182.5 -72.5q55 0 118.5 27t114.5 88z" />
    <glyph glyph-name="afii61289" unicode="&#x2113;" horiz-adv-x="849" 
d="M209 1004q0 199 85 312.5t241 113.5q114 0 194 -88.5t80 -255.5q0 -168 -93 -335t-249 -292v-146q0 -72 21.5 -97.5t77.5 -25.5t116 33l55 -184q-97 -64 -241 -64q-287 0 -287 330l-107 -69l-102 145q134 79 209 145v478zM522 1262q-63 0 -63 -258v-316q18 33 39.5 72
t40 87t30 108.5t11.5 138t-17.5 123t-40.5 45.5z" />
    <glyph glyph-name="trademark" unicode="&#x2122;" horiz-adv-x="1662" 
d="M1411 991q0 51 12 150h-6q-25 -85 -51 -137l-125 -275h-154l-120 275q-38 77 -52 137h-6q2 -33 6.5 -69t4.5 -81v-387h-148v776h174l154 -348q42 -102 63 -170h2q20 65 66 170l155 348h175v-776h-150v387zM420 602h-150v653l-229 -2v127h614v-127l-235 2v-653z" />
    <glyph glyph-name="Omega" unicode="&#x2126;" horiz-adv-x="1552" 
d="M470.5 1062q-126.5 -120 -126.5 -313q0 -192 108.5 -358t245.5 -252v-139h-503v188h239q-110 91 -210.5 253.5t-100.5 320.5q0 157 50 272t138 197t208 126t330 44t395.5 -173t185.5 -450q0 -171 -99.5 -334t-212.5 -256h240v-188h-504v139q228 148 291 324.5t63 280.5
t-34.5 184t-125.5 167t-271 87t-306.5 -120z" />
    <glyph glyph-name="estimated" unicode="&#x212e;" horiz-adv-x="1675" 
d="M551 1213.5q-137 -78.5 -199 -150.5v-373h971v373q-60 81 -194.5 155t-287.5 74t-290 -78.5zM1602 633h-1250v-375q52 -66 194 -147.5t293 -81.5t287.5 74t196.5 155h147q-117 -141 -284.5 -213t-336.5 -72t-308.5 50.5t-242.5 141.5t-163.5 218t-60.5 278t60.5 277.5
t163.5 217.5t242.5 142.5t297 51.5t297 -50.5t243 -140.5t164 -213t60.5 -268v-45z" />
    <glyph glyph-name="partialdiff" unicode="&#x2202;" horiz-adv-x="1241" 
d="M918 911q0 109 -59 167.5t-165 58.5q-154 0 -272 -74l-39 197q68 41 166 67.5t196 26.5q205 0 313.5 -121t108.5 -338q0 -311 -148 -549t-293.5 -301t-266.5 -63q-184 0 -286.5 99t-102.5 267q0 106 42 207.5t160 228.5t353 127q99 0 150 -27t124 -85q19 48 19 112z
M844 592q-85 100 -216 100t-210.5 -98.5t-79.5 -226.5q0 -86 38 -128t99 -42q117 0 218 105t151 290z" />
    <glyph glyph-name="Delta" unicode="&#x2206;" horiz-adv-x="1310" 
d="M1270 0h-1229l545 1380h135zM653 975l-278 -768h551z" />
    <glyph glyph-name="product" unicode="&#x220f;" horiz-adv-x="1267" 
d="M164 1380h940v-1476h-250v1267h-440v-1267h-250v1476z" />
    <glyph glyph-name="summation" unicode="&#x2211;" horiz-adv-x="1136" 
d="M74 -98v121l479 626l-442 604v127h927v-176h-612l410 -553l-437 -573h676v-176h-1001z" />
    <glyph glyph-name="minus" unicode="&#x2212;" horiz-adv-x="1208" 
d="M1044 477h-880v209h880v-209z" />
    <glyph glyph-name="radical" unicode="&#x221a;" horiz-adv-x="1089" 
d="M25 610v187h331l158 -514l313 1097h222l-426 -1403h-213l-213 633h-172z" />
    <glyph glyph-name="infinity" unicode="&#x221e;" horiz-adv-x="1597" 
d="M797 504q-157 -187 -368 -187q-139 0 -233 87.5t-94 227.5t94 228t230 88q135 0 222 -54t153 -132q60 79 150.5 132.5t184.5 53.5q93 0 154.5 -22.5t107.5 -63.5t71.5 -98t25.5 -126q0 -139 -93 -230t-226 -91q-233 0 -379 187zM1147 477q88 0 129 45t41 114t-41 121
t-125 52t-149.5 -48t-124.5 -126q102 -158 270 -158zM721 635q-105 149 -277 149q-80 0 -122.5 -39.5t-42.5 -112.5t48 -125t126 -52q146 0 268 180z" />
    <glyph glyph-name="integral" unicode="&#x222b;" horiz-adv-x="909" 
d="M586 242q0 -356 -291 -357q-145 0 -242 64l56 184q59 -33 115 -33t78 26t22 97v826q0 356 290 356q145 0 242 -64l-55 -184q-59 33 -115 33t-78 -25.5t-22 -97.5v-825z" />
    <glyph glyph-name="approxequal" unicode="&#x2248;" horiz-adv-x="1208" 
d="M376 344q-52 0 -95 -40t-84 -105l-123 125q106 241 323 241q59 0 106.5 -22.5t90.5 -50t86 -50t96 -22.5t96 40t84 105l123 -125q-106 -241 -323 -241q-82 0 -162 50t-123 72.5t-95 22.5zM376 733q-52 0 -95 -40t-84 -105l-123 125q106 241 323 241q59 0 106.5 -22.5
t90.5 -50t86 -50t96 -22.5t96 40t84 105l123 -125q-106 -241 -323 -241q-82 0 -162 50t-123 72.5t-95 22.5z" />
    <glyph glyph-name="notequal" unicode="&#x2260;" horiz-adv-x="1208" 
d="M1044 850v-188h-323l-74 -189h397v-188h-473l-112 -285h-158l113 285h-250v188h325l74 189h-399v188h475l133 334h158l-133 -334h247z" />
    <glyph glyph-name="lessequal" unicode="&#x2264;" horiz-adv-x="1208" 
d="M1049 0h-926v147h926v-147zM123 805l926 483v-252l-641 -305l641 -305v-250l-926 481v148z" />
    <glyph glyph-name="greaterequal" unicode="&#x2265;" horiz-adv-x="1208" 
d="M1085 657l-925 -481v250l641 305l-641 305v252l925 -483v-148zM1085 0h-925v147h925v-147z" />
    <glyph glyph-name="lozenge" unicode="&#x25ca;" horiz-adv-x="1224" 
d="M1159 700l-467 -700h-160l-466 698l466 703h160zM887 700l-275 449l-278 -449q39 -57 126.5 -206.5t151.5 -241.5z" />
    <glyph glyph-name="uni0E10.alt1" unicode="&#xf700;" horiz-adv-x="1120" 
d="M901 997q141 -162 141 -402t-108.5 -370.5t-199.5 -177.5t-191 -47h-217l-103 406q-10 47 -59 47h-76v213h150q80 0 132 -30t74 -120l76 -303h23q97 13 165 120.5t68 276.5q0 170 -79 259t-214 89q-221 0 -393 -149l-82 190q190 172 490 172q117 0 219 -43l84 99h293z
" />
    <glyph glyph-name="uni0E34.alt1" unicode="&#xf701;" 
d="M-1288 1290v201h776v-201h-776z" />
    <glyph glyph-name="uni0E35.alt1" unicode="&#xf702;" 
d="M-1288 1290v201h538v195h238v-396h-776z" />
    <glyph glyph-name="uni0E36.alt1" unicode="&#xf703;" 
d="M-669 1425q30 0 50.5 21.5t20.5 53.5t-20.5 52.5t-50.5 20.5t-51 -20.5t-21 -52.5t21 -53.5t51 -21.5zM-1288 1290v201h407q0 94 61.5 154.5t149.5 60.5t149.5 -59.5t61.5 -148.5t-61.5 -148.5t-149.5 -59.5h-618z" />
    <glyph glyph-name="uni0E37.alt1" unicode="&#xf704;" 
d="M-1288 1290v201h317v195h185v-205h90v205h184v-396h-776z" />
    <glyph glyph-name="uni0E48.alt1" unicode="&#xf705;" 
d="M-799 1290v398h246v-398h-246z" />
    <glyph glyph-name="uni0E49.alt1" unicode="&#xf706;" 
d="M-901 1683q133 0 133 -114v-43q0 -31 29 -31h239v-205h-364q-47 0 -77 26.5t-30 74.5v51q0 31 -28 31h-121v210h219z" />
    <glyph glyph-name="uni0E4A.alt1" unicode="&#xf707;" 
d="M-711 1397q56 63 56 215q0 40 -35 110h207q26 -58 26 -124q0 -126 -75 -217t-201 -91h-133l-15 35q19 21 19 65q1 83 -58 91l-86 -56l-102 50q-35 -14 -35 -71t29 -118h-184q-48 73 -48 153t59.5 147t160.5 71l116 -86l105 90q88 -4 144 -64t56 -147q0 -32 -6 -53z" />
    <glyph glyph-name="uni0E4B.alt1" unicode="&#xf708;" 
d="M-1094 1647l201 -7l-6 179h225l-6 -179l201 7v-183l-201 6l6 -180h-225l6 180l-201 -6v183z" />
    <glyph glyph-name="uni0E4C.alt1" unicode="&#xf709;" 
d="M-684 1438q-25 0 -42 -15.5t-17 -46.5v-86h-258v121q0 111 68.5 174.5t203.5 63.5h229v-211h-184z" />
    <glyph glyph-name="uni0E48.alt2" unicode="&#xf70a;" 
d="M-389 1290v398h246v-398h-246z" />
    <glyph glyph-name="uni0E49.alt2" unicode="&#xf70b;" 
d="M-492 1683q134 0 134 -114v-43q0 -31 28 -31h240v-205h-365q-47 0 -76.5 26.5t-29.5 74.5v51q0 31 -29 31h-121v210h219z" />
    <glyph glyph-name="uni0E4A.alt2" unicode="&#xf70c;" 
d="M35 1597q0 -125 -75.5 -216t-201.5 -91h-133l-14 35q18 21 18 61q0 77 -57 87l-96 -56l-111 49q-43 -17 -43 -71t29 -109h-185q-47 72 -47 152t62 147.5t166 71.5l125 -86l114 90q88 -4 144.5 -64.5t56.5 -146.5q0 -32 -6 -53q55 63 55 200q0 55 -35 125h207
q27 -60 27 -125z" />
    <glyph glyph-name="uni0E4B.alt2" unicode="&#xf70d;" 
d="M-571 1647l200 -7l-6 179h225l-6 -179l201 7v-183l-201 6l6 -180h-225l6 180l-200 -6v183z" />
    <glyph glyph-name="uni0E4C.alt2" unicode="&#xf70e;" 
d="M-233 1438q-25 0 -42.5 -15.5t-17.5 -46.5v-86h-258v121q0 111 68.5 174.5t203.5 63.5h263v-211h-217z" />
    <glyph glyph-name="uni0E0D.alt1" unicode="&#xf70f;" horiz-adv-x="1916" 
d="M401 481v-239q0 -33 31 -33h119v-209h-180q-119 0 -177.5 60.5t-58.5 164.5v254q0 66 31 117t78 80l-166 135q41 144 189.5 252t359.5 108q212 0 339.5 -125.5t127.5 -332.5v-289q0 -117 46 -176.5t164.5 -59.5t166 59.5t47.5 176.5v723h266v-735q0 -437 -478.5 -437
t-478.5 437v301q0 123 -61 184t-171 61t-166 -56t-71 -83l172 -145q-129 -47 -129 -193z" />
    <glyph glyph-name="uni0E31.alt1" unicode="&#xf710;" 
d="M-754 1538q0 -47 47 -47h422v-201h-483q-162 0 -196.5 84t-34.5 150v102h245v-88z" />
    <glyph glyph-name="uni0E4D.alt1" unicode="&#xf711;" 
d="M-743 1407q33 0 55 23.5t22 58.5t-23 57.5t-55 22.5t-55.5 -22.5t-23.5 -57.5t23.5 -58.5t56.5 -23.5zM-744 1260q-151 0 -191 89t-40 160.5t66.5 138t164.5 66.5t164 -66.5t66 -160t-65.5 -160.5t-164.5 -67z" />
    <glyph glyph-name="uni0E47.alt1" unicode="&#xf712;" 
d="M-514 1473v-183h-137q-51 0 -94 29t-68 76q-23 -49 -70 -82t-118 -33q-119 0 -195 63.5t-76 177.5t79.5 191.5t223.5 77.5h453v-182h-447q-106 0 -106 -80q0 -37 24.5 -60.5t62.5 -23.5t65.5 25.5t35.5 62.5l129 2q17 -61 93 -61h145z" />
    <glyph glyph-name="uni0E48.alt3" unicode="&#xf713;" 
d="M-750 1796v336h238v-336h-238z" />
    <glyph glyph-name="uni0E49.alt3" unicode="&#xf714;" 
d="M-836 2167q133 0 131 -113v-39q0 -31 29 -30h275v-189h-390q-47 0 -75 27t-29 71v52q0 31 -29 30h-118v191h206z" />
    <glyph glyph-name="uni0E4A.alt3" unicode="&#xf715;" 
d="M-1016 1895q0 -51 25 -103h-180q-41 63 -41 145q0 112 112 171q37 19 86 22l123 -92l115 94q82 -4 131 -58t49 -132v-25q0 -12 -4 -25q51 55 51 183q0 49 -33 112h203q25 -56 25 -114t-20 -106q-42 -104 -140 -148q-49 -23 -107 -23h-120l-13 31q16 23 16 59q1 68 -53 78
l-96 -63l-98 57q-31 -12 -31 -63z" />
    <glyph glyph-name="uni0E4B.alt3" unicode="&#xf716;" 
d="M-915 2116l182 -7l-6 150h217l-6 -150l182 7v-177l-182 7l6 -150h-217l6 150l-182 -7v177z" />
    <glyph glyph-name="uni0E4C.alt3" unicode="&#xf717;" 
d="M-582 1724q-23 0 -38 -14t-15 -41v-72h-244v109q1 100 63 158t185 59h225v-199h-176z" />
    <glyph glyph-name="uni0E38.alt1" unicode="&#xf718;" 
d="M-375 -756q0 49 -49 49h-78v197h172q100 0 148.5 -43t48.5 -143v-256h-242v196z" />
    <glyph glyph-name="uni0E39.alt1" unicode="&#xf719;" 
d="M-440 -805q73 0 73 66v229h234v-229q0 -102 -80 -167t-227.5 -65t-225 64.5t-77.5 167.5v43h-119v186h348v-229q0 -35 22.5 -50.5t51.5 -15.5z" />
    <glyph glyph-name="uni0E3A.alt1" unicode="&#xf71a;" 
d="M-96 -655.5q0 -65.5 -48.5 -112.5t-114.5 -47t-116.5 48t-50.5 111.5t49 112.5t117 49t116 -48t48 -113.5z" />
    <glyph glyph-name="uni0E0E.alt1" unicode="&#xf71b;" horiz-adv-x="1290" 
d="M176 479q0 127 100 189l-186 143q42 146 197 253t380 107t357.5 -124.5t132.5 -333.5v-1082h-278q-43 43 -114 75t-145 32t-147.5 -23.5t-161.5 -95.5l-71 209q63 59 144 94t211 35t201.5 -47t94.5 -72v875q0 123 -66.5 184t-170.5 61t-178.5 -43t-104.5 -96l192 -153
q-63 -23 -92 -65t-29 -120v-256q0 -104 -58 -164.5t-177 -60.5h-156v209h94q31 0 31 33v237z" />
    <glyph glyph-name="uni0E0F.alt1" unicode="&#xf71c;" horiz-adv-x="1290" 
d="M176 479q0 127 100 189l-186 143q42 146 197 253t380 107t357.5 -124.5t132.5 -333.5v-1082h-274l-199 125q-95 -141 -258 -141q-137 0 -244 59l68 209q90 -59 182 -59q174 0 215 164l244 -160v885q0 123 -66.5 184t-170.5 61t-178.5 -43t-104.5 -96l192 -153
q-63 -23 -92 -65t-29 -120v-256q0 -104 -58 -164.5t-177 -60.5h-156v209h94q31 0 31 33v237z" />
    <glyph glyph-name="uni0E2C.alt1" unicode="&#xf71d;" horiz-adv-x="1404" 
d="M1014 637v53q0 66 -21.5 94.5t-68.5 28.5h-31l-41 98l217 316h266l-231 -297q82 -27 123 -94.5t41 -151.5v-684h-291l-191 393q-49 100 -86 246h-4q-32 -136 -86 -246l-182 -393h-291v1147h254v-510q0 -201 -33 -399h7q47 183 110 307l141 280h164l150 -280
q64 -121 110 -307h7q-33 211 -33 399z" />
    <glyph glyph-name="uni0E33.alt1" horiz-adv-x="999" 
d="M-743 1407q33 0 55 23.5t22 58.5t-23 57.5t-55 22.5t-55.5 -22.5t-23.5 -57.5t23.5 -58.5t56.5 -23.5zM-744 1260q-151 0 -191 89t-40 160.5t66.5 138t164.5 66.5t164 -66.5t66 -160t-65.5 -160.5t-164.5 -67zM430 1171q219 0 327.5 -118.5t108.5 -323.5v-729h-266v737
q0 221 -184 221q-171 0 -340 -110l-68 190q203 133 422 133z" />
    <glyph glyph-name="uni0E4E.alt1" 
d="M-693.5 1550q-82.5 0 -82.5 -43t24.5 -61.5t75.5 -18.5t123 27v-135q-69 -41 -169 -41t-172.5 47t-72.5 149t70 158t205 37q-43 38 -43 81q0 44 33.5 77t117.5 33h168l37 -146h-168q-24 0 -24 -34q0 -22 73 -58l-43 -96q-70 24 -152.5 24z" />
    </font>
</defs>
</svg>
