<?xml version="1.0" standalone="no"?>
<!DOCTYPE svg PUBLIC "-//W3C//DTD SVG 1.1//EN" "http://www.w3.org/Graphics/SVG/1.1/DTD/svg11.dtd" >
<svg xmlns="http://www.w3.org/2000/svg">
<metadata>
Created by FontPrep 20130207 at Fri Oct 17 21:16:21 2014
 By Jirayu L.
Copyright (c) 2009, 2013 Cadson Demak Co. Ltd., Thailand. All Rights Reserved.
</metadata>
<defs>
<font id="830de7a7354f0e0d71f11bc95ac50b90" horiz-adv-x='1024' >
  <font-face 
    font-family="SukhumvitSet-Thin"
    font-weight="250"
    font-stretch="normal"
    units-per-em="2048"
    panose-1="2 0 5 6 0 0 0 2 0 4"
    ascent="1638"
    descent="-410"
    x-height="989"
    cap-height="1380"
    bbox="-1137 -803 2230 2066"
    underline-thickness="102"
    underline-position="-153"
    unicode-range="U+000D-FB02"
  />
<missing-glyph horiz-adv-x="1054" 
d="M225 96h602v1188h-602v-1188zM123 0v1378h809v-1378h-809z" />
    <glyph glyph-name="uni0E5A" unicode="&#xe2f;&#xe2f;" horiz-adv-x="1421" 
d="M883 0h-97v887q-40 -91 -140.5 -157t-229.5 -66q-322 0 -322 393v90h92v-92q0 -164 59.5 -241t192.5 -77t246 113t113 240v57h86v-422q117 31 197.5 146.5t80.5 218.5v57h86v-1147h-96v887q-92 -189 -268 -236v-651z" />
    <glyph glyph-name="uni0E4F.liga" unicode="&#xe4f;&#x22;" horiz-adv-x="1118" 
d="M721 1049h-57l-11 360h78zM471 1049h-57l-11 360h78zM559 332q66 0 111 46t45 112t-46.5 111.5t-110.5 45.5t-111.5 -46.5t-47.5 -110.5t47 -111t113 -47zM393 326q-69 68 -69 166t69 165.5t165 67.5t165.5 -68t69.5 -167t-70 -165.5t-166 -66.5q-95 0 -164 68z
M828 221.5q112 110.5 112 270.5q0 159 -112 269.5t-269 110.5q-158 0 -269.5 -111t-111.5 -269t111.5 -269.5t269.5 -111.5q157 0 269 110.5zM559 53q-90 0 -170 35t-139.5 94.5t-93 139t-33.5 170t33.5 170t93 139t139.5 93.5t170 34t170 -34t139.5 -93.5t93 -139
t33.5 -170t-33.5 -170t-93 -139t-139.5 -94.5t-170 -35z" />
    <glyph glyph-name="uni0E24.liga" unicode="&#xe24;&#xe32;" horiz-adv-x="1927" 
d="M590 1163q237 0 364 -157q74 66 174.5 111.5t205.5 45.5q202 0 312.5 -121t110.5 -317v-1135h-96v1135q0 160 -80 257t-261 97t-321 -143q47 -94 48 -211v-1135h-97v1135q0 160 -93 257t-247 97t-249 -67.5t-142 -161.5l193 -152v-18q-70 -25 -107 -80t-37 -127v-321
q0 -72 70 -72h108v-80h-116q-72 0 -115 37t-43 110v314q0 78 34 140.5t99 90.5l-190 148q44 131 175 227t300 96z" />
    <glyph glyph-name="uni0E26.liga" unicode="&#xe26;&#xe32;" horiz-adv-x="1935" 
d="M604 1163q234 0 361 -155q72 66 171.5 110.5t205.5 44.5q203 0 313 -121.5t110 -316.5v-1135h-96v1135q0 160 -80 257t-243 97q-106 0 -192.5 -41t-145.5 -102q47 -94 47 -211v-1135h-97v1135q0 160 -90 257t-264 97q-123 0 -224.5 -68.5t-148.5 -164.5l228 -154v-18
q-70 -25 -110 -77t-40 -124v-332q0 -141 -149 -141h-82v80h74q61 0 61 65v316q0 78 36 137t95 88l-219 141q45 133 177.5 234.5t301.5 101.5z" />
    <glyph glyph-name="fi" unicode="fi" horiz-adv-x="1028" 
d="M586 1317q-101 0 -152 -24.5t-92 -81.5t-41 -203v-19h553v-989h-94v911h-459v-911h-92v911h-172v78h172v21q0 269 127 328t211 59q141 0 248 -62l-21 -67q-87 49 -188 49z" />
    <glyph glyph-name="fl" unicode="fl" horiz-adv-x="1110" 
d="M630 1317q-187 0 -258 -82t-71 -227v-19h305v-78h-305v-911h-92v911h-172v78h172v21q0 168 97 277.5t284 109.5t346 -54v-1343h-94v1290q-106 27 -212 27z" />
    <glyph glyph-name=".notdef" horiz-adv-x="1054" 
d="M225 96h602v1188h-602v-1188zM123 0v1378h809v-1378h-809z" />
    <glyph glyph-name=".null" 
 />
    <glyph glyph-name=".null" 
 />
    <glyph glyph-name="nonmarkingreturn" unicode="&#xd;" horiz-adv-x="399" 
 />
    <glyph glyph-name="space" unicode=" " horiz-adv-x="573" 
 />
    <glyph glyph-name="exclam" unicode="!" horiz-adv-x="464" 
d="M145 67.5q0 34.5 21.5 59.5t64.5 25t64.5 -25t21.5 -59.5t-21.5 -59t-64.5 -24.5t-64.5 24.5t-21.5 59zM184 1380h97v-311l-25 -684h-49l-23 684v311z" />
    <glyph glyph-name="quotedbl" unicode="&#x22;" horiz-adv-x="606" 
d="M457 926h-58l-10 483h78zM207 926h-57l-11 483h78z" />
    <glyph glyph-name="numbersign" unicode="#" horiz-adv-x="1118" 
d="M358 508h334l68 315h-334zM53 432v76h213l68 315h-197v76h213l94 432h93l-95 -432h334l94 432h93l-95 -432h197v-76h-213l-68 -315h197v-76h-213l-94 -432h-92l94 432h-334l-94 -432h-92l94 432h-197z" />
    <glyph glyph-name="dollar" unicode="$" horiz-adv-x="1118" 
d="M238 1014q0 -159 112.5 -208.5t177.5 -72.5v529q-147 -8 -218.5 -73.5t-71.5 -174.5zM883 344q0 125 -69 176t-214 98v-546q123 14 203 80.5t80 191.5zM528 -16q-245 0 -389 84l27 77q150 -77 362 -77v573q-259 76 -320 183.5t-61 183.5q0 149 96 238.5t285 99.5v190h72
v-190q178 -8 307 -76l-24 -70q-100 49 -283 62v-553q188 -65 249.5 -112.5t93.5 -105t32 -139.5q0 -159 -103.5 -253.5t-271.5 -110.5v-193h-72v189z" />
    <glyph glyph-name="percent" unicode="%" horiz-adv-x="1523" 
d="M868 340q0 68 18.5 132.5t53.5 114.5t87 79.5t117.5 29.5t117 -29.5t87 -79.5t54 -114.5t18.5 -132.5t-18.5 -132.5t-54 -114.5t-87 -79.5t-117 -29.5t-117.5 29.5t-87 79.5t-53.5 114.5t-18.5 132.5zM948 340q0 -55 12.5 -107.5t37 -92.5t61.5 -64.5t86 -24.5t86 24.5
t61.5 64.5t36.5 92.5t12 107.5t-12 107.5t-36.5 92.5t-61.5 64.5t-86 24.5t-86 -24.5t-61.5 -64.5t-37 -92.5t-12.5 -107.5zM102 991.5q0 67.5 18.5 132t53.5 114.5t87 80t117.5 30t117 -30t87 -80t54 -114.5t18.5 -132t-18.5 -132t-54 -115t-87 -80t-117 -29.5t-117.5 29.5
t-87 80t-53.5 115t-18.5 132zM182 991.5q0 -55.5 12.5 -108t37 -92t61.5 -64.5t86 -25t86 25t61.5 64.5t36.5 92t12 108t-12 107.5t-36.5 92t-61.5 64.5t-86 24.5t-86 -24.5t-61.5 -64.5t-37 -92t-12.5 -107.5zM1094 1352h86l-750 -1352h-86z" />
    <glyph glyph-name="ampersand" unicode="&#x26;" horiz-adv-x="1269" 
d="M332 1106q0 -64 38 -124t101 -130l41 -45q125 78 195.5 151.5t70.5 164.5t-58 144.5t-157 53.5q-150 0 -190.5 -75.5t-40.5 -139.5zM586 68q218 0 344 110l-445 535q-129 -99 -189 -178t-60 -200q0 -120 93 -193.5t257 -73.5zM135 332q0 202 122 298.5t181 137.5l-45 55
q-114 134 -133.5 194t-19.5 110t23.5 101.5t91.5 110t211 58.5t223.5 -79.5t80.5 -191.5q0 -111 -77 -189.5t-238 -182.5l436 -527q105 143 105 375v70h88v-70q0 -259 -140 -438l136 -164h-101l-94 113q-163 -129 -392 -129t-343.5 101t-114.5 247z" />
    <glyph glyph-name="quotesingle" unicode="'" horiz-adv-x="356" 
d="M207 926h-57l-11 483h78z" />
    <glyph glyph-name="parenleft" unicode="(" horiz-adv-x="593" 
d="M156 644.5q0 222.5 111.5 438.5t275.5 338l30 -51q-140 -109 -229.5 -320.5t-89.5 -538t126 -501t193 -225.5l-30 -51q-264 196 -325.5 442t-61.5 468.5z" />
    <glyph glyph-name="parenright" unicode=")" horiz-adv-x="593" 
d="M438 510.5q0 -222.5 -111.5 -438.5t-275.5 -338l-31 51q139 104 229.5 318t90.5 474.5t-89.5 471.5t-230.5 321l31 51q264 -196 325.5 -442t61.5 -468.5z" />
    <glyph glyph-name="asterisk" unicode="*" horiz-adv-x="952" 
d="M500 1034l286 189l43 -74l-307 -152l307 -151l-43 -76l-284 186l18 -342h-86l21 344l-291 -188l-41 76l307 151l-307 152l41 74l291 -189l-21 346h86z" />
    <glyph glyph-name="plus" unicode="+" horiz-adv-x="1118" 
d="M991 541h-387v-394h-88v394h-389v80h389v395h88v-395h387v-80z" />
    <glyph glyph-name="comma" unicode="," horiz-adv-x="442" 
d="M311 143l-116 -399h-56l51 399h121z" />
    <glyph glyph-name="hyphen" unicode="-" horiz-adv-x="618" 
d="M549 614v-75h-479v75h479z" />
    <glyph glyph-name="period" unicode="." horiz-adv-x="442" 
d="M135 67.5q0 34.5 21.5 59.5t64.5 25t64.5 -25t21.5 -59.5t-21.5 -59t-64.5 -24.5t-64.5 24.5t-21.5 59z" />
    <glyph glyph-name="slash" unicode="/" horiz-adv-x="737" 
d="M121 -82h-90l585 1462h91z" />
    <glyph glyph-name="zero" unicode="0" horiz-adv-x="1118" 
d="M102 665.5q0 159.5 32 286.5t92.5 214t144.5 134.5t188.5 47.5t188 -47.5t144 -134.5t92.5 -214t32 -286.5t-32 -286.5t-92.5 -214t-144 -134t-188 -47t-188.5 47t-144.5 134t-92.5 214t-32 286.5zM201 666q0 -299 93 -453t265 -154t265.5 154t93.5 453t-93.5 452.5
t-265.5 153.5t-265 -153.5t-93 -452.5z" />
    <glyph glyph-name="one" unicode="1" horiz-adv-x="1118" 
d="M637 1331v-1247h334v-84h-770v84h340v1157l-301 -104v73l327 121h70z" />
    <glyph glyph-name="two" unicode="2" horiz-adv-x="1118" 
d="M570 1268q-196 0 -349 -84l-24 73q57 33 151 62t201 29q193 0 291 -92.5t98 -254.5q0 -228 -151.5 -386t-237.5 -240l-301 -287h729v-88h-848v76l393 397q160 160 240 275.5t80 246.5q0 132 -81 202.5t-191 70.5z" />
    <glyph glyph-name="three" unicode="3" horiz-adv-x="1118" 
d="M862 360q0 137 -85 210t-245 73h-178v80h178q139 0 216 77.5t77 199.5t-81.5 195t-253.5 73t-314 -80l-24 72q153 88 349 88q195 0 306 -96.5t111 -252.5q0 -182 -104.5 -243.5t-154.5 -69.5q138 -16 218.5 -108t80.5 -216q0 -174 -119.5 -276t-332.5 -102t-367 82l27 73
q145 -76 335 -76q189 0 275 80t86 217z" />
    <glyph glyph-name="four" unicode="4" horiz-adv-x="1118" 
d="M860 1327v-969h160v-88h-160v-270h-98v270h-676v68l696 989h78zM766 358v793l-565 -793h565z" />
    <glyph glyph-name="five" unicode="5" horiz-adv-x="1118" 
d="M516 63q158 0 261.5 93t103.5 254q0 321 -394 321h-301v80l54 520h655v-88h-580l-41 -432h215q240 0 365 -109.5t125 -299.5t-128.5 -304t-343.5 -114t-384 96l27 74q155 -91 366 -91z" />
    <glyph glyph-name="six" unicode="6" horiz-adv-x="1118" 
d="M625 1276q-375 0 -402 -619q102 132 211 164.5t178 32.5q186 0 286.5 -112.5t100.5 -304.5t-110.5 -322.5t-313.5 -130.5q-204 0 -326 165.5t-122 502.5t129 516.5t365 179.5q157 0 268 -64l-19 -63q-108 55 -245 55zM622 782q-124 0 -228.5 -65t-170.5 -152
q0 -218 103.5 -364t256.5 -146t235.5 97.5t82.5 281.5q0 244 -104.5 296t-174.5 52z" />
    <glyph glyph-name="seven" unicode="7" horiz-adv-x="1118" 
d="M145 1331h838v-67l-580 -1264h-98l574 1243h-734v88z" />
    <glyph glyph-name="eight" unicode="8" horiz-adv-x="1118" 
d="M860 1072q0 204 -301 204t-301 -204t80 -279.5t221 -75.5t221 75.5t80 279.5zM559 1348q88 0 161 -22.5t124 -65.5t79.5 -104.5t28.5 -168t-72 -189t-175 -114.5q124 -24 206 -119t82 -225q0 -166 -111.5 -261t-322.5 -95t-322.5 95t-111.5 261q0 130 82.5 225t206.5 119
q-170 53 -209 155.5t-39 178.5t28.5 137.5t80 104.5t124 65.5t160.5 22.5zM559 55q168 0 255 75t87 211t-83 222t-259 86t-259 -86t-83 -222t87 -211t255 -75z" />
    <glyph glyph-name="nine" unicode="9" horiz-adv-x="1118" 
d="M991 682q0 -698 -493 -698q-167 0 -277 63l19 64q108 -56 232 -56t197.5 41t143 153t82.5 425q-83 -89 -177 -143t-212 -54q-186 0 -286.5 112.5t-100.5 304.5t111.5 323t314.5 131q202 0 324 -166t122 -500zM496 549q124 0 228.5 65t170.5 152q0 218 -103.5 364
t-256.5 146t-235.5 -97.5t-82.5 -281.5q0 -244 104.5 -296t174.5 -52z" />
    <glyph glyph-name="colon" unicode=":" horiz-adv-x="483" 
d="M156 65.5q0 34.5 21.5 59.5t64.5 25t64.5 -25t21.5 -59.5t-21.5 -59t-64.5 -24.5t-64.5 24.5t-21.5 59zM156 891q0 35 21.5 59.5t64.5 24.5t64.5 -24.5t21.5 -59.5t-21.5 -59.5t-64.5 -24.5t-64.5 24.5t-21.5 59.5z" />
    <glyph glyph-name="semicolon" unicode=";" horiz-adv-x="483" 
d="M324 143l-117 -399h-55l51 399h121zM156 891q0 35 21.5 59.5t64.5 24.5t64.5 -24.5t21.5 -59.5t-21.5 -59.5t-64.5 -24.5t-64.5 24.5t-21.5 59.5z" />
    <glyph glyph-name="less" unicode="&#x3c;" horiz-adv-x="1118" 
d="M123 629l831 473v-94l-729 -410l729 -410v-94l-831 473v62z" />
    <glyph glyph-name="equal" unicode="=" horiz-adv-x="1118" 
d="M967 356h-815v80h815v-80zM967 756h-815v80h815v-80z" />
    <glyph glyph-name="greater" unicode="&#x3e;" horiz-adv-x="1118" 
d="M995 567l-831 -473v94l729 410l-729 410v94l831 -473v-62z" />
    <glyph glyph-name="question" unicode="?" horiz-adv-x="966" 
d="M373 65.5q0 34.5 21.5 59.5t64.5 25t64.5 -25t21.5 -59.5t-21.5 -59t-64.5 -24.5t-64.5 24.5t-21.5 59zM389 432q0 59 26.5 113.5t66.5 102.5t153 161t113 252q0 174 -105.5 215t-189.5 41t-174.5 -28.5t-147.5 -65.5l-25 73q170 101 356 101q185 0 283.5 -89t98.5 -247
q0 -121 -66.5 -206t-113 -132t-113 -126t-66.5 -175q0 -51 17 -94h-88q-25 45 -25 104z" />
    <glyph glyph-name="at" unicode="@" horiz-adv-x="1662" 
d="M874 1094q124 0 271 -66v-504q0 -76 28.5 -132t92.5 -56q127 0 164.5 141t37.5 257q0 255 -155.5 435.5t-462.5 180.5t-483.5 -193.5t-176.5 -493.5t172 -465t451 -165q178 0 317 80q12 -19 25 -52q-131 -81 -346 -81q-304 0 -491 177.5t-187 497.5t192 533t518 213
t508.5 -186.5t182.5 -475.5q0 -234 -79 -350.5t-176 -116.5t-144.5 69.5t-47.5 160.5q-31 -102 -110.5 -166t-183.5 -64q-156 0 -245 107.5t-89 293.5t98 303.5t319 117.5zM615.5 922.5q-70.5 -91.5 -70.5 -247.5t70.5 -239.5t179.5 -83.5t185.5 89t76.5 212v328
q-87 33 -207 33q-164 0 -234.5 -91.5z" />
    <glyph glyph-name="A" unicode="A" horiz-adv-x="1243" 
d="M721 987l-98 291h-5l-100 -295l-186 -494h579zM299 408l-149 -408h-99l524 1380h93l524 -1380h-98l-150 408h-645z" />
    <glyph glyph-name="B" unicode="B" horiz-adv-x="1247" 
d="M674 756q137 0 227 70.5t90 206.5q0 263 -319 263h-396v-540h398zM672 84q381 0 381 299q0 228 -147.5 258.5t-235.5 30.5h-394v-588h396zM1029 103.5q-120 -103.5 -355 -103.5h-494v1380h492q193 0 304 -89t111 -253q0 -121 -68.5 -206t-170.5 -111q127 -13 214 -102
t87 -250q0 -162 -120 -265.5z" />
    <glyph glyph-name="C" unicode="C" horiz-adv-x="1153" 
d="M748 1309q-260 0 -404.5 -158t-144.5 -456t143 -458.5t393 -160.5q160 0 312 71l24 -81q-152 -78 -325 -78t-291.5 50t-197.5 142t-117 221t-38 371t167 433.5t479 191.5q167 0 311 -72l-23 -80q-140 64 -288 64z" />
    <glyph glyph-name="D" unicode="D" horiz-adv-x="1306" 
d="M518 88q590 0 590 604q0 317 -153.5 458.5t-436.5 141.5h-242v-1204h242zM1204 691q0 -339 -174 -515t-512 -176h-338v1380h338q338 0 512 -175t174 -514z" />
    <glyph glyph-name="E" unicode="E" horiz-adv-x="1101" 
d="M180 1380h807v-86h-711v-540h666v-86h-666v-584h723v-84h-819v1380z" />
    <glyph glyph-name="F" unicode="F" horiz-adv-x="1060" 
d="M180 1380h791v-88h-695v-559h650v-90h-650v-643h-96v1380z" />
    <glyph glyph-name="G" unicode="G" horiz-adv-x="1302" 
d="M748 1309q-392 0 -470.5 -240.5t-78.5 -390.5q0 -281 126.5 -443.5t344.5 -162.5q153 0 269 117.5t116 293.5v172h-293v78h385v-733h-68l-24 227q-53 -102 -154 -172.5t-237 -70.5q-257 0 -409.5 185.5t-152.5 489.5q0 357 170 547.5t463 190.5q195 0 361 -80l-25 -80
q-137 72 -323 72z" />
    <glyph glyph-name="H" unicode="H" horiz-adv-x="1327" 
d="M1051 666h-775v-666h-96v1380h96v-626h775v626h96v-1380h-96v666z" />
    <glyph glyph-name="I" unicode="I" horiz-adv-x="464" 
d="M281 0h-97v1380h97v-1380z" />
    <glyph glyph-name="J" unicode="J" horiz-adv-x="765" 
d="M258 72q118 0 178 68.5t60 238.5v1001h96v-1001q0 -203 -85 -299t-231 -96t-247 57l26 80q85 -49 203 -49z" />
    <glyph glyph-name="K" unicode="K" horiz-adv-x="1187" 
d="M276 0h-96v1380h96v-1380zM516 735l639 -735h-115l-616 707v53l590 620h116z" />
    <glyph glyph-name="L" unicode="L" horiz-adv-x="1032" 
d="M180 1380h96v-1292h687v-88h-783v1380z" />
    <glyph glyph-name="M" unicode="M" horiz-adv-x="1568" 
d="M274 993v-993h-94v1380h99l417 -868q42 -82 86 -199h4q39 104 86 199l418 868h99v-1380h-95v993q0 154 15 252h-4q-6 -18 -16.5 -44.5t-23 -59.5t-38.5 -92l-396 -811h-94l-395 811q-8 18 -19.5 43.5t-21.5 53.5t-20.5 54.5t-16.5 44.5h-4q14 -189 14 -252z" />
    <glyph glyph-name="N" unicode="N" horiz-adv-x="1343" 
d="M1067 387v993h96v-1380h-102l-674 1057q-81 125 -121 196h-4q14 -103 14 -260v-993h-96v1380h103l673 -1056q88 -136 121 -197h4q-14 103 -14 260z" />
    <glyph glyph-name="O" unicode="O" horiz-adv-x="1380" 
d="M690.5 -16q-147.5 0 -257 53t-183.5 147.5t-111 224.5t-37 281.5t37 281.5t111 224t183.5 147.5t257 53.5t257 -53.5t183 -147.5t110.5 -224t37 -281.5t-37 -281.5t-110.5 -224.5t-183 -147.5t-257 -53zM690 68q125 0 217 46t153.5 129t91.5 197.5t30 249.5t-30 249
t-91.5 197t-153.5 130t-217 47t-217 -47t-153.5 -130t-91 -197t-29.5 -249t29.5 -249.5t91 -197.5t153.5 -129t217 -46z" />
    <glyph glyph-name="P" unicode="P" horiz-adv-x="1122" 
d="M944 965q0 156 -87 242.5t-257 86.5h-324v-661h310q168 0 263 88t95 244zM915.5 659q-124.5 -112 -329.5 -112h-310v-547h-96v1380h420q205 0 322.5 -113.5t117.5 -304.5t-124.5 -303z" />
    <glyph glyph-name="Q" unicode="Q" horiz-adv-x="1380" 
d="M690 68q125 0 217 46t153.5 129t91.5 197.5t30 249.5t-30 249t-91.5 197t-153.5 130t-217 47t-217 -47t-153.5 -130t-91 -197t-29.5 -249t29.5 -249.5t91 -197.5t153.5 -129t217 -46zM381 -315v82h47q99 0 166.5 63t79.5 156q-274 4 -423 198.5t-149 509.5
q0 314 153 508.5t435.5 194.5t435 -195t152.5 -497t-128.5 -495t-373.5 -220q-14 -86 -60 -140.5t-102 -80.5h467v-84h-700z" />
    <glyph glyph-name="R" unicode="R" horiz-adv-x="1196" 
d="M1006 980q0 148 -87.5 231t-256.5 83h-386v-628h371q168 0 263.5 83t95.5 231zM276 580v-580h-96v1380h482q207 0 323.5 -108.5t116.5 -281.5t-95.5 -274.5t-254.5 -127.5l358 -588h-106l-353 580h-375z" />
    <glyph glyph-name="S" unicode="S" horiz-adv-x="1069" 
d="M555 1313q-172 0 -248 -72t-76 -192t80.5 -184t203.5 -104q122 -40 289 -104t167 -295q0 -180 -119.5 -279t-338.5 -99t-372 86l29 80q164 -82 356 -82q247 0 300 109t53 187t-29 127.5t-78 81t-112.5 52t-132.5 43.5q-181 60 -284.5 143t-103.5 246q0 236 151.5 288
t259.5 52q190 0 343 -80l-27 -72q-139 68 -311 68z" />
    <glyph glyph-name="T" unicode="T" horiz-adv-x="1030" 
d="M563 0h-96v1294l-434 -2v88h964v-88l-434 2v-1294z" />
    <glyph glyph-name="U" unicode="U" horiz-adv-x="1335" 
d="M174 543v837h96v-839q0 -248 106.5 -358.5t291 -110.5t291 110.5t106.5 358.5v839h96v-837q0 -278 -130 -418.5t-363 -140.5t-363.5 141t-130.5 418z" />
    <glyph glyph-name="V" unicode="V" horiz-adv-x="1243" 
d="M516 403l102 -305h5l100 301l373 981h98l-524 -1380h-97l-524 1380h98z" />
    <glyph glyph-name="W" unicode="W" horiz-adv-x="1785" 
d="M1247 408q47 -158 70 -310h4q28 177 59 310l238 972h98l-338 -1380h-106l-322 1073q-16 55 -30.5 111.5t-24.5 93.5h-4q-10 -37 -24.5 -93.5t-30.5 -111.5l-322 -1073h-106l-338 1380h98l238 -972q32 -138 59 -310h4q23 152 70 310l290 972h127z" />
    <glyph glyph-name="X" unicode="X" horiz-adv-x="1208" 
d="M604 647l-432 -647h-106l481 717l-445 663h109l393 -592l393 592h109l-444 -663l481 -717h-107z" />
    <glyph glyph-name="Y" unicode="Y" horiz-adv-x="1120" 
d="M608 0h-96v573l-475 807h102l420 -721h2l420 721h102l-475 -807v-573z" />
    <glyph glyph-name="Z" unicode="Z" horiz-adv-x="1105" 
d="M152 1294v86h841v-73l-778 -1221h793v-86h-910v72l781 1222h-727z" />
    <glyph glyph-name="bracketleft" unicode="[" horiz-adv-x="534" 
d="M180 1401h297v-76h-209v-1491h209v-76h-297v1643z" />
    <glyph glyph-name="backslash" unicode="\" horiz-adv-x="737" 
d="M31 1380h90l586 -1462h-91z" />
    <glyph glyph-name="bracketright" unicode="]" horiz-adv-x="534" 
d="M354 -242h-297v76h209v1491h-209v76h297v-1643z" />
    <glyph glyph-name="asciicircum" unicode="^" horiz-adv-x="1048" 
d="M954 565h-90l-340 733l-340 -733h-90l387 815h86z" />
    <glyph glyph-name="underscore" unicode="_" horiz-adv-x="835" 
d="M836 -150v-71h-836v71h836z" />
    <glyph glyph-name="grave" unicode="`" horiz-adv-x="573" 
d="M332 1163l-27 -37l-305 209l55 74z" />
    <glyph glyph-name="a" unicode="a" horiz-adv-x="1019" 
d="M86 270q0 320 436 320h242v69q0 147 -68.5 207t-220.5 60t-287 -74l-22 70q140 84 326 84t275 -93.5t89 -253.5v-659h-68l-24 195q-116 -211 -367 -211q-216 0 -263.5 108.5t-47.5 177.5zM764 510h-242q-184 0 -265 -57.5t-81 -170.5t63 -166t155 -53q171 0 270.5 103.5
t99.5 232.5v111z" />
    <glyph glyph-name="b" unicode="b" horiz-adv-x="1124" 
d="M262 434q0 -146 90.5 -256t253.5 -110q216 0 269 155.5t53 271.5q0 215 -83 321t-216 106q-222 0 -367 -230v-258zM168 0v1380h94v-585q94 139 199.5 175t180.5 36q163 0 271.5 -131t108.5 -384q0 -252 -112 -379.5t-296 -127.5q-237 0 -352 211l-24 -195h-70z" />
    <glyph glyph-name="c" unicode="c" horiz-adv-x="917" 
d="M583 928q-118 0 -187.5 -32t-114.5 -89t-66.5 -137t-21.5 -226t94 -263.5t284 -117.5q116 0 240 54l25 -72q-116 -59 -251 -59t-223 37.5t-146 106.5t-88 162t-30 262.5t119 310.5t342 141q137 0 260 -54l-22 -71q-96 47 -214 47z" />
    <glyph glyph-name="d" unicode="d" horiz-adv-x="1124" 
d="M862 434v258q-61 104 -147 167t-208 63t-216 -108.5t-94 -323.5q0 -214 94.5 -318t246.5 -104q147 0 235.5 111t88.5 255zM102 490q0 241 119 378.5t294 137.5t251 -87.5t96 -123.5v585h94v-1380h-69l-25 195q-116 -211 -340 -211q-296 0 -358 188t-62 318z" />
    <glyph glyph-name="e" unicode="e" horiz-adv-x="1007" 
d="M823 614q0 162 -68.5 239t-213.5 77q-339 0 -348 -408h622q8 36 8 92zM909 614q0 -91 -24 -163h-695q8 -172 100.5 -280t278.5 -108q139 0 262 70l25 -72q-123 -75 -266 -75q-142 0 -230 37.5t-146 106.5t-87 162t-29 262t113.5 310.5t329.5 141.5q180 0 274 -102.5
t94 -289.5z" />
    <glyph glyph-name="f" unicode="f" horiz-adv-x="667" 
d="M508 1317q-123 0 -165 -69.5t-42 -198.5v-60h305v-78h-305v-911h-92v911h-172v78h172v62q0 158 63.5 252t216.5 94q103 0 183 -41l-21 -68q-64 29 -143 29z" />
    <glyph glyph-name="g" unicode="g" horiz-adv-x="1144" 
d="M102 490q0 241 119 378.5t294 137.5t251 -87.5t96 -123.5l25 194h69v-944q0 -229 -111.5 -342t-298.5 -113t-347 84l24 76q140 -76 316 -76q323 0 323 373v148q-116 -211 -340 -211q-296 0 -358 188t-62 318zM862 434v258q-61 104 -147 167t-208 63t-216 -108.5
t-94 -323.5q0 -214 94.5 -318t246.5 -104q147 0 235.5 111t88.5 255z" />
    <glyph glyph-name="h" unicode="h" horiz-adv-x="1142" 
d="M262 0h-94v1380h94v-585q113 143 219.5 177t169.5 34q156 0 242 -96.5t86 -274.5v-635h-94v635q0 137 -65.5 212t-176.5 75q-165 0 -258.5 -93.5t-122.5 -136.5v-692z" />
    <glyph glyph-name="i" unicode="i" horiz-adv-x="442" 
d="M221 1397q39 0 60.5 -22.5t21.5 -55.5t-21.5 -55.5t-60.5 -22.5t-60.5 22.5t-21.5 55.5t21.5 55.5t60.5 22.5zM268 0h-94v989h94v-989z" />
    <glyph glyph-name="j" unicode="j" horiz-adv-x="442" 
d="M221 1397q39 0 60.5 -22.5t21.5 -55.5t-21.5 -55.5t-60.5 -22.5t-60.5 22.5t-21.5 55.5t21.5 55.5t60.5 22.5zM41 -332q82 0 107.5 55.5t25.5 161.5v1104h94v-1104q0 -228 -86 -261.5t-150 -33.5t-124 33l22 70q58 -25 111 -25z" />
    <glyph glyph-name="k" unicode="k" horiz-adv-x="976" 
d="M258 0h-94v1380h94v-1380zM940 0h-109l-456 526v56l418 407h114l-444 -432z" />
    <glyph glyph-name="l" unicode="l" horiz-adv-x="442" 
d="M268 0h-94v1380h94v-1380z" />
    <glyph glyph-name="m" unicode="m" horiz-adv-x="1622" 
d="M860 0h-94v659q0 121 -35 192t-141 71q-145 0 -223 -92.5t-105 -137.5v-692h-94v989h70l24 -194q88 141 185.5 176t154.5 35q203 0 248 -226q53 94 146.5 160t217.5 66t184 -94.5t60 -252.5v-659h-94v659q0 121 -35 192t-135 71t-188 -62.5t-148 -165.5l2 -35v-659z" />
    <glyph glyph-name="n" unicode="n" horiz-adv-x="1138" 
d="M262 0h-94v989h70l24 -194q114 143 219 177t168 34q156 0 241 -96.5t85 -274.5v-635h-94v635q0 137 -64.5 212t-175.5 75q-163 0 -256.5 -93.5t-122.5 -136.5v-692z" />
    <glyph glyph-name="o" unicode="o" horiz-adv-x="1085" 
d="M543 63q92 0 158.5 32t108.5 89.5t62.5 137t20.5 174t-20.5 174.5t-62.5 137t-108.5 89t-158.5 32t-159 -32t-109 -89t-62 -137t-20 -174.5t20 -174t62 -137t109 -89.5t159 -32zM542.5 1006q112.5 0 195.5 -38t138.5 -106.5t83 -162t27.5 -204t-27.5 -203.5t-83 -162
t-138.5 -106.5t-195.5 -37.5t-195.5 37.5t-138 106.5t-83 162t-28 203.5t28 204t83 162t138 106.5t195.5 38z" />
    <glyph glyph-name="p" unicode="p" horiz-adv-x="1124" 
d="M262 434q0 -146 90.5 -256t253.5 -110q216 0 269 155.5t53 271.5q0 215 -83 321t-216 106q-222 0 -367 -230v-258zM262 -391h-94v1380h70l24 -194q94 139 199.5 175t180.5 36q163 0 271.5 -131t108.5 -384q0 -252 -112 -379.5t-298 -127.5q-235 0 -350 211v-586z" />
    <glyph glyph-name="q" unicode="q" horiz-adv-x="1144" 
d="M862 434v258q-61 104 -147 167t-208 63t-216 -108.5t-94 -323.5q0 -214 94.5 -318t246.5 -104q147 0 235.5 111t88.5 255zM102 490q0 241 119 378.5t294 137.5t251 -87.5t96 -123.5l25 194h69v-1380h-94v586q-116 -211 -340 -211q-296 0 -358 188t-62 318z" />
    <glyph glyph-name="r" unicode="r" horiz-adv-x="741" 
d="M557 913q-170 0 -295 -221v-692h-94v989h70l24 -194q84 144 170 177.5t149 33.5t119 -31l-24 -90q-47 28 -119 28z" />
    <glyph glyph-name="s" unicode="s" horiz-adv-x="864" 
d="M668 248q0 129 -107 169t-167 58q-136 41 -212 107t-76 182t89.5 179t237.5 63t290 -62l-25 -76q-123 58 -268 58q-233 0 -233 -156q0 -90 66.5 -138t196.5 -85t214 -106.5t84 -192.5t-86 -193.5t-255 -70.5t-308 63l24 74q124 -58 267 -58q268 0 268 185z" />
    <glyph glyph-name="t" unicode="t" horiz-adv-x="688" 
d="M209 254v657h-172v78h170l33 283h61v-283h313v-78h-313v-655q0 -104 33 -146t122 -42t152 51l27 -68q-88 -63 -200 -63t-169 61.5t-57 204.5z" />
    <glyph glyph-name="u" unicode="u" horiz-adv-x="1118" 
d="M258 354q0 -286 244 -286q108 0 207 68t147 161v692h94v-989h-69l-25 195q-38 -78 -138.5 -144.5t-241.5 -66.5q-142 0 -227 96t-85 274v635h94v-635z" />
    <glyph glyph-name="v" unicode="v" horiz-adv-x="909" 
d="M342 432l111 -332h4l110 332l203 557h98l-366 -989h-94l-367 989h98z" />
    <glyph glyph-name="w" unicode="w" horiz-adv-x="1355" 
d="M733 989l197 -614q44 -133 69 -281h5q9 120 55 318l147 577h88l-252 -989h-75l-242 750q-35 120 -45 168h-4q-10 -48 -45 -168l-242 -750h-76l-252 989h89l147 -577q37 -157 44 -224t11 -94h4q23 137 70 281l197 614h110z" />
    <glyph glyph-name="x" unicode="x" horiz-adv-x="962" 
d="M432 522l-342 467h105l286 -401l287 401h104l-344 -467l385 -522h-104l-328 457l-327 -457h-105z" />
    <glyph glyph-name="y" unicode="y" horiz-adv-x="1136" 
d="M258 371q0 -287 244 -287q106 0 202 65.5t148 163.5v676h94v-944q0 -455 -389 -455q-111 0 -203 30t-145 65l24 75q53 -33 139.5 -59.5t171.5 -26.5q162 0 235 86.5t73 286.5v164q-65 -134 -179 -172.5t-179 -38.5q-160 0 -245 96.5t-85 274.5v618h94v-618z" />
    <glyph glyph-name="z" unicode="z" horiz-adv-x="903" 
d="M133 911v78h664v-55l-594 -856h610v-78h-727v55l594 856h-547z" />
    <glyph glyph-name="braceleft" unicode="{" horiz-adv-x="589" 
d="M352 371q0 -45 -6 -86t-12 -83t-12.5 -85t-6.5 -113t35 -125t131 -55h43v-66h-43q-119 0 -185.5 63.5t-66.5 196.5q0 86 16.5 169t16.5 149q0 117 -30.5 157t-125.5 44v86q96 4 126 43t30 131t-16.5 175t-16.5 169q0 133 66.5 196.5t185.5 63.5h43v-66h-43
q-96 0 -131 -54.5t-35 -124.5t6.5 -113.5t12.5 -85.5t12 -82.5t6 -99.5t-32.5 -118t-124.5 -77q157 -31 157 -209z" />
    <glyph glyph-name="bar" unicode="|" horiz-adv-x="497" 
d="M293 -410h-88v1995h88v-1995z" />
    <glyph glyph-name="braceright" unicode="}" horiz-adv-x="589" 
d="M328 336q0 -66 16 -149t16 -169q0 -133 -66.5 -196.5t-184.5 -63.5h-43v66h43q96 0 130.5 55t34.5 125t-6 113t-12 85t-12 83t-6 99t32.5 117.5t124.5 78.5q-92 18 -124.5 77.5t-32.5 117.5t6 99t18 125t12 155t-34.5 126t-130.5 55h-43v66h43q119 0 185 -63.5t66 -196.5
q0 -86 -16 -169.5t-16 -149.5q0 -117 30 -156t125 -43v-86q-135 -5 -145 -70t-10 -131z" />
    <glyph glyph-name="asciitilde" unicode="~" horiz-adv-x="1064" 
d="M360 715q-128 0 -217 -125l-41 41q68 103 140 133.5t126 30.5t97 -19.5t80 -43t72.5 -43t87.5 -19.5q130 0 217 125l41 -41q-63 -101 -139 -132.5t-130 -31.5t-97.5 19.5t-79.5 43t-71.5 43t-85.5 19.5z" />
    <glyph glyph-name="uni007F" horiz-adv-x="1024" 
 />
    <glyph glyph-name="nonbreakingspace" unicode="&#xa0;" 
 />
    <glyph glyph-name="exclamdown" unicode="&#xa1;" horiz-adv-x="464" 
d="M317 921.5q0 -34.5 -21.5 -59t-64.5 -24.5t-64.5 24.5t-21.5 59t21.5 59.5t64.5 25t64.5 -25t21.5 -59.5zM279 -391h-97v311l25 684h49l23 -684v-311z" />
    <glyph glyph-name="cent" unicode="&#xa2;" horiz-adv-x="1118" 
d="M274 496q0 -282 123 -352t209 -78v860q-168 -16 -250 -133t-82 -297zM678 -205h-72v193q-204 16 -315 153.5t-111 352.5t110.5 355.5t315.5 154.5v192h72v-190q132 -8 240 -54l-23 -71q-94 39 -217 47v-865q125 4 231 54l25 -72q-98 -50 -256 -59v-191z" />
    <glyph glyph-name="sterling" unicode="&#xa3;" horiz-adv-x="1118" 
d="M948 1204q-109 68 -255 68q-159 0 -238.5 -89t-79.5 -201q0 -111 88 -259h354v-70h-317q61 -111 61 -213q0 -222 -182 -352h670v-88h-877v88h82q114 33 166.5 130.5t52.5 237.5q0 69 -70 197h-210v70h172q-35 63 -62 131t-27 149q0 155 120 250t288 95t287 -74z" />
    <glyph glyph-name="currency" unicode="&#xa4;" horiz-adv-x="1163" 
d="M785 877.5q-89 83.5 -205 83.5t-200.5 -83.5t-84.5 -204.5q0 -120 83 -203t202 -83t206.5 83t87.5 203q0 121 -89 204.5zM580 307q-111 0 -226 80l-116 -119l-54 60h-2l115 116q-80 103 -80 225q0 121 80 236l-117 113l56 57l118 -117q105 82 225 82t234 -82l115 115
l53 -55l-113 -115q82 -119 82 -235t-82 -224l115 -114l-55 -62l-113 117q-124 -78 -235 -78z" />
    <glyph glyph-name="yen" unicode="&#xa5;" horiz-adv-x="1118" 
d="M180 453h332v120l-39 68h-293v70h252l-354 620h102l379 -672h2l379 672h102l-356 -620h254v-70h-293l-39 -68v-120h332v-70h-332v-383h-96v383h-332v70z" />
    <glyph glyph-name="brokenbar" unicode="&#xa6;" horiz-adv-x="483" 
d="M289 -358h-94v718h94v-718zM289 662h-94v718h94v-718z" />
    <glyph glyph-name="section" unicode="&#xa7;" horiz-adv-x="1118" 
d="M586 1325q-144 0 -217.5 -53t-73.5 -144q0 -130 110.5 -177.5t218.5 -83.5t212 -106t104 -183q0 -72 -43 -127.5t-119 -81.5q70 -41 98.5 -105.5t28.5 -126.5q0 -122 -109.5 -191t-252.5 -69t-223 20.5t-142 49.5l17 63q127 -48 203 -54.5t129 -6.5q117 0 204.5 50.5
t87.5 143.5t-75 146t-207 96q-238 58 -303.5 148t-65.5 163.5t37 132t96 89.5q-53 51 -73.5 98t-20.5 112q0 117 100.5 193t259.5 76t287 -54l-23 -69q-101 51 -245 51zM256 691q0 -91 86 -142t165 -73q161 -46 200 -68q80 25 112.5 69.5t32.5 89.5q0 159 -313 248
q-122 34 -174 68q-109 -66 -109 -192z" />
    <glyph glyph-name="dieresis" unicode="&#xa8;" horiz-adv-x="573" 
d="M481 1350q35 0 55.5 -21.5t20.5 -50.5t-20.5 -50.5t-55.5 -21.5t-55 21.5t-20 50.5t20 50.5t55 21.5zM92 1350q35 0 55.5 -21.5t20.5 -50.5t-20.5 -50.5t-55.5 -21.5t-55.5 21.5t-20.5 50.5t20.5 50.5t55.5 21.5z" />
    <glyph glyph-name="copyright" unicode="&#xa9;" horiz-adv-x="1400" 
d="M744 985q-77 0 -126 -22.5t-80.5 -62.5t-47 -94t-15.5 -152.5t64.5 -180.5t193.5 -82q90 0 170 35l19 -53q-92 -43 -187 -43q-94 0 -157.5 27.5t-104.5 75.5t-60.5 113.5t-19.5 184.5t86 217.5t254 98.5q95 0 185 -41l-21 -54q-76 33 -153 33zM1253 690q0 121 -42 226.5
t-115.5 184.5t-175 125t-220 46t-220 -46t-175.5 -125t-116 -184.5t-42 -226.5t42 -227.5t116 -185t175.5 -125t220 -46.5t220 46.5t175 125t115.5 185t42 227.5zM82 690q0 133 49 250t133 203t196.5 136t238.5 50t239 -50t198 -136t134 -203t49 -250t-49 -249.5
t-134 -202.5t-198 -136.5t-239 -50.5t-238.5 50.5t-196.5 136.5t-133 202.5t-49 249.5z" />
    <glyph glyph-name="ordfeminine" unicode="&#xaa;" horiz-adv-x="688" 
d="M520 1090q0 184 -205 184q-97 0 -202 -51l-25 67q112 60 248 60q135 0 198.5 -71t63.5 -192v-473h-61l-23 136q-49 -66 -105.5 -108t-150.5 -42t-157.5 53t-63.5 167t83 171.5t226 57.5h174v41zM520 983h-174q-109 0 -166 -44.5t-57 -116.5t42 -109t102 -37
q112 0 182.5 70.5t70.5 164.5v72z" />
    <glyph glyph-name="guillemotleft" unicode="&#xab;" horiz-adv-x="866" 
d="M684 860h88l-266 -364l266 -365h-88l-272 365zM354 860h88l-266 -364l266 -365h-88l-272 365z" />
    <glyph glyph-name="logicalnot" unicode="&#xac;" horiz-adv-x="989" 
d="M795 279v385h-713v81h805v-466h-92z" />
    <glyph glyph-name="uni00AD" unicode="&#xad;" horiz-adv-x="577" 
d="M20 467v94h537v-94h-537z" />
    <glyph glyph-name="registered" unicode="&#xae;" horiz-adv-x="1075" 
d="M682 1042q0 95 -115 95h-123v-195h121q117 0 117 100zM741 1042q0 -124 -125 -147l117 -205h-59l-119 203h-111v-203h-59v498h184q92 0 132 -42.5t40 -103.5zM823.5 1236q-112.5 118 -285.5 118t-285 -118.5t-112 -289.5t111.5 -290t285.5 -119t286 118t112 290.5
t-112.5 290.5zM82 945q0 195 128.5 325.5t328.5 130.5t327 -131t127 -325t-127 -325t-327 -131t-328.5 130.5t-128.5 325.5z" />
    <glyph glyph-name="macron" unicode="&#xaf;" horiz-adv-x="573" 
d="M27 1182v71h520v-71h-520z" />
    <glyph glyph-name="degree" unicode="&#xb0;" horiz-adv-x="706" 
d="M166 1325q76 76 188 76t187 -78t75 -184t-75 -183t-187 -77t-188 75t-76 185t76 186zM502 991q61 63 61 148t-60.5 149t-151 64t-149.5 -64.5t-59 -148.5t59.5 -147.5t149 -63.5t150.5 63z" />
    <glyph glyph-name="plusminus" unicode="&#xb1;" horiz-adv-x="1118" 
d="M991 0h-864v63h864v-63zM991 549h-387v-385h-88v385h-389v80h389v387h88v-387h387v-80z" />
    <glyph glyph-name="twosuperior" unicode="&#xb2;" horiz-adv-x="608" 
d="M298 1348q107 0 161.5 -47.5t54.5 -137.5q0 -132 -195 -321l-155 -152h371v-76h-478v62l201 205q125 125 148.5 184t23.5 98q0 111 -137 111q-97 0 -180 -49l-25 67q103 56 210 56z" />
    <glyph glyph-name="threesuperior" unicode="&#xb3;" horiz-adv-x="587" 
d="M247 672q95 0 136 45t41 106t-43 100.5t-117 39.5h-78v65h78q59 0 100.5 34t41.5 93q0 127 -154 127q-92 0 -168 -37l-21 60q93 43 206 43q112 0 166 -54.5t54 -125.5t-38.5 -112.5t-96.5 -58.5q116 -17 136 -83t20 -95q0 -94 -65.5 -153.5t-187.5 -59.5t-200 49l19 60
q76 -43 171 -43z" />
    <glyph glyph-name="acute" unicode="&#xb4;" horiz-adv-x="573" 
d="M518 1409l55 -74l-305 -209l-26 37z" />
    <glyph glyph-name="mu" unicode="&#xb5;" horiz-adv-x="1122" 
d="M262 -410h-94v1399h94v-649q4 -143 62.5 -207.5t174.5 -64.5t214.5 68t146.5 161v692h94v-989h-69l-25 195q-38 -78 -138.5 -144.5t-215.5 -66.5q-172 0 -244 122v-516z" />
    <glyph glyph-name="paragraph" unicode="&#xb6;" horiz-adv-x="872" 
d="M465 1380h338v-82h-60q-88 0 -120.5 -36.5t-32.5 -118.5v-1241h-96v805h-80q-132 0 -226 88.5t-94 247.5t101.5 248t269.5 89z" />
    <glyph glyph-name="periodcentered" unicode="&#xb7;" horiz-adv-x="442" 
d="M135 594q0 35 21.5 59.5t64.5 24.5t64.5 -24.5t21.5 -59.5t-21.5 -59.5t-64.5 -24.5t-64.5 24.5t-21.5 59.5z" />
    <glyph glyph-name="cedilla" unicode="&#xb8;" horiz-adv-x="573" 
d="M236 -317h-101l148 231h51z" />
    <glyph glyph-name="onesuperior" unicode="&#xb9;" horiz-adv-x="557" 
d="M334 1341v-653h166v-74h-422v74h170v578l-148 -49v65l174 59h60z" />
    <glyph glyph-name="ordmasculine" unicode="&#xba;" horiz-adv-x="784" 
d="M145.5 1245q84.5 103 246.5 103t246.5 -103t84.5 -315t-123 -269t-208 -57t-147.5 29t-123 103t-60.5 240t84.5 269zM150 977q0 -207 90 -251t183 -44t153.5 82t60.5 211t-59.5 211t-185.5 82t-184 -82t-58 -209z" />
    <glyph glyph-name="guillemotright" unicode="&#xbb;" horiz-adv-x="866" 
d="M784 496l-272 -365h-88l266 365l-266 364h88zM455 496l-273 -365h-88l266 365l-266 364h88z" />
    <glyph glyph-name="onequarter" unicode="&#xbc;" horiz-adv-x="1466" 
d="M1260 727v-502h83v-75h-83v-150h-78v150h-363v67l367 510h74zM1184 225v377l-279 -377h279zM358 1341v-653h166v-74h-422v74h170v578l-147 -49v65l174 59h59zM1065 1352h86l-750 -1352h-86z" />
    <glyph glyph-name="onehalf" unicode="&#xbd;" horiz-adv-x="1466" 
d="M1157 733q217 0 217 -184q0 -113 -81 -201t-113 -121l-156 -151h371v-76h-477v61l200 205q128 128 150 186t22 97q0 110 -137 110q-98 0 -180 -49l-25 68q101 55 209 55zM358 1341v-653h166v-74h-422v74h170v578l-147 -49v65l174 59h59zM1065 1352h86l-750 -1352h-86z
" />
    <glyph glyph-name="threequarters" unicode="&#xbe;" horiz-adv-x="1466" 
d="M261 672q95 0 136 45t41 106t-43 100.5t-116 39.5h-78v65h78q59 0 100 34t41 93q0 127 -154 127q-92 0 -168 -37l-20 60q93 43 205 43t166.5 -54.5t54.5 -125.5t-39 -112.5t-96 -58.5q115 -17 135 -83t20 -95q0 -94 -65.5 -153.5t-187.5 -59.5t-199 49l18 60
q76 -43 171 -43zM1260 727v-502h83v-75h-83v-150h-78v150h-363v67l367 510h74zM1184 225v377l-279 -377h279zM1065 1352h86l-750 -1352h-86z" />
    <glyph glyph-name="questiondown" unicode="&#xbf;" horiz-adv-x="966" 
d="M594 921.5q0 -34.5 -21.5 -59t-64.5 -24.5t-64.5 24.5t-21.5 59t21.5 59.5t64.5 25t64.5 -25t21.5 -59.5zM578 554q0 -60 -27 -113.5t-67 -101.5t-86 -94t-112.5 -128.5t-66.5 -190.5t69 -182t218 -74q92 0 182 29t148 65l24 -73q-170 -101 -355 -101t-283.5 89.5
t-98.5 228.5t66.5 224t112.5 132t112.5 126t66.5 175q0 51 -16 94h88q25 -45 25 -105z" />
    <glyph glyph-name="Agrave" unicode="&#xc0;" horiz-adv-x="1243" 
d="M721 987l-98 291h-5l-100 -295l-186 -494h579zM299 408l-149 -408h-99l524 1380h93l524 -1380h-98l-150 408h-645zM786 1565l-26 -37l-305 209l55 73z" />
    <glyph glyph-name="Aacute" unicode="&#xc1;" horiz-adv-x="1243" 
d="M721 987l-98 291h-5l-100 -295l-186 -494h579zM299 408l-149 -408h-99l524 1380h93l524 -1380h-98l-150 408h-645zM731 1810l55 -73l-305 -209l-26 37z" />
    <glyph glyph-name="Acircumflex" unicode="&#xc2;" horiz-adv-x="1243" 
d="M721 987l-98 291h-5l-100 -295l-186 -494h579zM299 408l-149 -408h-99l524 1380h93l524 -1380h-98l-150 408h-645zM891 1526h-68l-202 203l-203 -203h-68l240 280h61z" />
    <glyph glyph-name="Atilde" unicode="&#xc3;" horiz-adv-x="1243" 
d="M721 987l-98 291h-5l-100 -295l-186 -494h579zM299 408l-149 -408h-99l524 1380h93l524 -1380h-98l-150 408h-645zM741 1622q97 0 107 100h67q-5 -70 -51 -119t-102 -49t-88 16q-33 16 -82 49q-49 34 -92 36q-98 0 -107 -101h-67q4 70 51 119t102 49t87 -15t60 -35
t54 -34q26 -16 61 -16z" />
    <glyph glyph-name="Adieresis" unicode="&#xc4;" horiz-adv-x="1243" 
d="M721 987l-98 291h-5l-100 -295l-186 -494h579zM299 408l-149 -408h-99l524 1380h93l524 -1380h-98l-150 408h-645zM815 1751q35 1 55 -21t20 -51t-20 -51t-55 -20q-35 0 -55 22t-20 50t20 50t55 21zM426 1751q35 1 55 -21q21 -22 21 -51t-20 -51t-56 -20q-35 0 -55 22
q-21 22 -21 50t20 50t56 21z" />
    <glyph glyph-name="Aring" unicode="&#xc5;" horiz-adv-x="1243" 
d="M721 987l-98 291h-5l-100 -295l-186 -494h579zM299 408l-149 -408h-99l524 1380h93l524 -1380h-98l-150 408h-645zM455 1688q0 70 48 118t118 47q69 0 117 -48q48 -47 48 -117t-48 -118t-118 -48t-117 48q-48 48 -48 118zM514 1688q0 -53 31 -84t76 -31t75 31t31 84
q0 53 -31 84q-32 30 -76 30t-75 -30t-31 -84z" />
    <glyph glyph-name="AE" unicode="&#xc6;" horiz-adv-x="1677" 
d="M788 987l-77 291h-4l-121 -295l-221 -494h579zM1563 1380v-86h-775l158 -540h572v-86h-547l170 -584h434v-84h-483l-121 408h-645l-179 -408h-96l621 1380h891z" />
    <glyph glyph-name="Ccedilla" unicode="&#xc7;" horiz-adv-x="1153" 
d="M748 1309q-260 0 -404 -158t-145 -454q1 -296 143 -459q142 -162 393 -162q160 0 312 71l24 -81q-72 -37 -148 -58q-75 -20 -212 -20q-139 0 -257 50t-197 142t-117 221t-38 289t42 290q86 266 325 367q121 50 248 50q195 0 342 -72l-23 -80q-140 64 -288 64zM651 -317
h-100l147 231h52z" />
    <glyph glyph-name="Egrave" unicode="&#xc8;" horiz-adv-x="1101" 
d="M180 1380h807v-86h-711v-540h666v-86h-666v-584h723v-84h-819v1380zM758 1565l-27 -37l-305 209l55 73z" />
    <glyph glyph-name="Eacute" unicode="&#xc9;" horiz-adv-x="1101" 
d="M180 1380h807v-86h-711v-540h666v-86h-666v-584h723v-84h-819v1380zM702 1810l56 -73l-305 -209l-27 37z" />
    <glyph glyph-name="Ecircumflex" unicode="&#xca;" horiz-adv-x="1101" 
d="M180 1380h807v-86h-711v-540h666v-86h-666v-584h723v-84h-819v1380zM862 1526h-67l-203 203l-203 -203h-67l239 280h62z" />
    <glyph glyph-name="Edieresis" unicode="&#xcb;" horiz-adv-x="1101" 
d="M180 1380h807v-86h-711v-540h666v-86h-666v-584h723v-84h-819v1380zM786 1751q35 0 56 -21q20 -22 20 -51t-20 -51t-56 -20q-36 0 -55 22q-20 22 -20 50t20 50t55 21zM397 1751q35 0 56 -21q20 -22 20 -51t-20 -51q-19 -22 -55 -20q-36 0 -56 22t-20 50t20 50t55 21z" />
    <glyph glyph-name="Igrave" unicode="&#xcc;" horiz-adv-x="464" 
d="M281 0h-97v1380h97v-1380zM397 1565l-26 -37l-305 209l55 73z" />
    <glyph glyph-name="Iacute" unicode="&#xcd;" horiz-adv-x="464" 
d="M281 0h-97v1380h97v-1380zM346 1810l55 -73l-305 -209l-26 37z" />
    <glyph glyph-name="Icircumflex" unicode="&#xce;" horiz-adv-x="464" 
d="M281 0h-97v1380h97v-1380zM506 1526h-68l-202 203l-203 -203h-68l240 280h61z" />
    <glyph glyph-name="Idieresis" unicode="&#xcf;" horiz-adv-x="464" 
d="M281 0h-97v1380h97v-1380zM430 1751q35 1 55 -21q21 -22 21 -51t-20 -51t-56 -20q-35 0 -55 22q-21 22 -21 50t20 50t56 21zM41 1751q35 1 55 -21t20 -51t-20 -51t-55 -20q-35 0 -55 22t-20 50t20 50t55 21z" />
    <glyph glyph-name="Eth" unicode="&#xd0;" horiz-adv-x="1306" 
d="M518 88q590 0 590 604q0 317 -153.5 458.5t-436.5 141.5h-242v-598h357v-76h-357v-530h242zM180 694v686h338q338 0 512 -175t174 -514t-174 -515t-512 -176h-338v618h-141v76h141z" />
    <glyph glyph-name="Ntilde" unicode="&#xd1;" horiz-adv-x="1343" 
d="M1067 387v993h96v-1380h-102l-674 1057q-91 141 -121 196h-4q14 -103 14 -260v-993h-96v1380h103l673 -1056q88 -136 121 -197h4q-14 103 -14 260zM530 1722q56 0 88 -15t59 -35q29 -20 55 -34q26 -16 71 -16t69 29t27 71h68q-4 -70 -51 -119t-115 -49t-136 51
q-72 49 -114 50q-98 0 -107 -101h-67q4 70 51 119q46 49 102 49z" />
    <glyph glyph-name="Ograve" unicode="&#xd2;" horiz-adv-x="1380" 
d="M102 690q0 318 152 512t436 194t436 -194t152 -511t-153 -512t-436 -195q-284 0 -435 194q-152 194 -152 512zM690 68q240 0 366 170t126 452t-126 452q-126 171 -365 171q-240 0 -367 -172t-125 -451q0 -440 274 -576q92 -46 217 -46zM856 1565l-27 -37l-305 209l56 73z
" />
    <glyph glyph-name="Oacute" unicode="&#xd3;" horiz-adv-x="1380" 
d="M102 690q0 318 152 512t436 194t436 -194t152 -511t-153 -512t-436 -195q-284 0 -435 194q-152 194 -152 512zM690 68q240 0 366 170t126 452t-126 452q-126 171 -365 171q-240 0 -367 -172t-125 -451q0 -440 274 -576q92 -46 217 -46zM801 1810l55 -73l-305 -209l-27 37
z" />
    <glyph glyph-name="Ocircumflex" unicode="&#xd4;" horiz-adv-x="1380" 
d="M102 690q0 318 152 512t436 194t436 -194t152 -511t-153 -512t-436 -195q-284 0 -435 194q-152 194 -152 512zM690 68q240 0 366 170t126 452t-126 452q-126 171 -365 171q-240 0 -367 -172t-125 -451q0 -440 274 -576q92 -46 217 -46zM961 1526h-68l-203 203l-203 -203
h-67l239 280h62z" />
    <glyph glyph-name="Otilde" unicode="&#xd5;" horiz-adv-x="1380" 
d="M102 690q0 318 152 512t436 194t436 -194t152 -511t-153 -512t-436 -195q-284 0 -435 194q-152 194 -152 512zM690 68q240 0 366 170t126 452t-126 452q-126 171 -365 171q-240 0 -367 -172t-125 -451q0 -440 274 -576q92 -46 217 -46zM811 1622q97 0 107 100h67
q-4 -70 -51 -119t-115 -49t-136 51q-29 19 -55 34t-70 15t-68 -28q-24 -29 -27 -72h-68q4 70 51 119q46 49 102 49t88 -15t60 -35t54 -34q27 -16 61 -16z" />
    <glyph glyph-name="Odieresis" unicode="&#xd6;" horiz-adv-x="1380" 
d="M102 690q0 318 152 512t436 194t436 -194t152 -511t-153 -512t-436 -195q-284 0 -435 194q-152 194 -152 512zM690 68q240 0 366 170t126 452t-126 452q-126 171 -365 171q-240 0 -367 -172t-125 -451q0 -440 274 -576q92 -46 217 -46zM885 1751q35 1 55 -21t20 -51
t-20 -51t-55 -20q-35 0 -56 21q-20 23 -20 51t20 50q21 21 56 21zM496 1751q35 1 55 -21t20 -51t-20 -51t-55 -20q-35 0 -56 21q-20 23 -20 51t20 50q21 21 56 21z" />
    <glyph glyph-name="multiply" unicode="&#xd7;" horiz-adv-x="1118" 
d="M559 518l-319 -319l-62 63l320 318l-322 321l64 62l319 -320l320 320l63 -62l-321 -321l319 -318l-61 -63z" />
    <glyph glyph-name="Oslash" unicode="&#xd8;" horiz-adv-x="1380" 
d="M668 68q146 0 238.5 46t184 169.5t91.5 426.5t-158 472l-616 -1028q114 -86 260 -86zM712 1313q-146 0 -329.5 -93.5t-183.5 -550.5q0 -305 157 -470l617 1028q-115 86 -261 86zM1278 690q0 -316 -151.5 -511t-436.5 -195q-190 0 -328 94l-96 -160h-78l121 201
q-207 191 -207 571q0 318 153 512.5t435 194.5q195 0 328 -97l96 162h78l-121 -202q207 -191 207 -570z" />
    <glyph glyph-name="Ugrave" unicode="&#xd9;" horiz-adv-x="1335" 
d="M174 543v837h96v-839q0 -248 106 -359q106 -110 292 -110q184 0 290 110t107 359v839h96v-837q0 -275 -131 -417t-362 -142q-354 0 -458 309q-36 104 -36 250zM834 1565l-27 -37l-305 209l55 73z" />
    <glyph glyph-name="Uacute" unicode="&#xda;" horiz-adv-x="1335" 
d="M174 543v837h96v-839q0 -248 106 -359q106 -110 292 -110q184 0 290 110t107 359v839h96v-837q0 -275 -131 -417t-362 -142q-354 0 -458 309q-36 104 -36 250zM778 1810l56 -73l-306 -209l-26 37z" />
    <glyph glyph-name="Ucircumflex" unicode="&#xdb;" horiz-adv-x="1335" 
d="M174 543v837h96v-839q0 -248 106 -359q106 -110 292 -110q184 0 290 110t107 359v839h96v-837q0 -275 -131 -417t-362 -142q-354 0 -458 309q-36 104 -36 250zM938 1526h-68l-202 203l-203 -203h-68l240 280h61z" />
    <glyph glyph-name="Udieresis" unicode="&#xdc;" horiz-adv-x="1335" 
d="M174 543v837h96v-839q0 -248 106 -359q106 -110 292 -110q184 0 290 110t107 359v839h96v-837q0 -275 -131 -417t-362 -142q-354 0 -458 309q-36 104 -36 250zM862 1751q35 0 56 -21q20 -22 20 -51t-20 -51t-56 -20q-36 0 -55 22q-21 22 -21 50t20 50t56 21zM473 1751
q35 1 55 -21t20 -51t-20 -51t-55 -20q-35 0 -55 22t-20 50t20 50t55 21z" />
    <glyph glyph-name="Yacute" unicode="&#xdd;" horiz-adv-x="1120" 
d="M608 0h-96v573l-475 807h102l420 -721h2l420 721h102l-475 -807v-573zM670 1810l55 -73l-305 -209l-27 37z" />
    <glyph glyph-name="Thorn" unicode="&#xde;" horiz-adv-x="1122" 
d="M944 723q0 311 -344 311h-324v-628h310q168 0 263 79.5t95 237.5zM276 319v-319h-96v1380h96v-260h324q211 0 325.5 -106.5t114.5 -294.5t-123.5 -294t-330.5 -106h-310z" />
    <glyph glyph-name="germandbls" unicode="&#xdf;" horiz-adv-x="1214" 
d="M801 797q303 -61 303 -415q0 -204 -110.5 -301t-281.5 -97t-300 51l18 78q115 -50 260 -50q322 0 322 320q0 176 -97.5 277.5t-285.5 101.5h-82l-25 80h133q202 0 245.5 83t43.5 144q0 121 -89.5 184.5t-227.5 63.5q-205 0 -290 -108.5t-85 -317.5v-891h-92v891
q0 362 171 434t283 72q205 0 311.5 -90t106.5 -234q0 -104 -58.5 -179t-172.5 -97z" />
    <glyph glyph-name="agrave" unicode="&#xe0;" horiz-adv-x="1019" 
d="M86 270q0 320 436 320h242v69q0 147 -69 207t-221 60t-286 -74l-22 70q140 84 326 84t275 -94t89 -253v-659h-68l-24 195q-116 -211 -367 -211q-139 0 -225 76q-86 75 -86 210zM764 510h-242q-184 0 -265 -57t-81 -171t62 -166q62 -51 156 -52q93 -1 161 29
q133 59 184 186q25 59 25 120v111zM676 1163l-27 -37l-305 209l55 74z" />
    <glyph glyph-name="aacute" unicode="&#xe1;" horiz-adv-x="1019" 
d="M86 270q0 320 436 320h242v69q0 147 -69 207t-221 60t-286 -74l-22 70q140 84 326 84t275 -94t89 -253v-659h-68l-24 195q-116 -211 -367 -211q-139 0 -225 76q-86 75 -86 210zM764 510h-242q-184 0 -265 -57t-81 -171t62 -166q62 -51 156 -52q93 -1 161 29
q133 59 184 186q25 59 25 120v111zM621 1409l55 -74l-305 -209l-27 37z" />
    <glyph glyph-name="acircumflex" unicode="&#xe2;" horiz-adv-x="1019" 
d="M86 270q0 320 436 320h242v69q0 147 -69 207t-221 60t-286 -74l-22 70q140 84 326 84t275 -94t89 -253v-659h-68l-24 195q-116 -211 -367 -211q-139 0 -225 76q-86 75 -86 210zM764 510h-242q-184 0 -265 -57t-81 -171t62 -166q62 -51 156 -52q93 -1 161 29
q133 59 184 186q25 59 25 120v111zM780 1124h-67l-203 203l-203 -203h-67l239 281h62z" />
    <glyph glyph-name="atilde" unicode="&#xe3;" horiz-adv-x="1019" 
d="M86 270q0 320 436 320h242v69q0 147 -69 207t-221 60t-286 -74l-22 70q140 84 326 84t275 -94t89 -253v-659h-68l-24 195q-116 -211 -367 -211q-139 0 -225 76q-86 75 -86 210zM764 510h-242q-184 0 -265 -57t-81 -171t62 -166q62 -51 156 -52q93 -1 161 29
q133 59 184 186q25 59 25 120v111zM631 1221q99 0 106 100h68q-4 -70 -51 -119t-115 -49t-136 50q-29 19 -55 35t-59 15q-99 0 -106 -100h-68q4 70 51 119q46 49 102 49t88 -15q32 -14 60 -34t54 -36t61 -15z" />
    <glyph glyph-name="adieresis" unicode="&#xe4;" horiz-adv-x="1019" 
d="M86 270q0 320 436 320h242v69q0 147 -69 207t-221 60t-286 -74l-22 70q140 84 326 84t275 -94t89 -253v-659h-68l-24 195q-116 -211 -367 -211q-139 0 -225 76q-86 75 -86 210zM764 510h-242q-184 0 -265 -57t-81 -171t62 -166q62 -51 156 -52q93 -1 161 29
q133 59 184 186q25 59 25 120v111zM705 1350q35 0 55 -22t20 -50t-20 -50t-55 -22t-56 22q-20 22 -20 50q1 28 21 50t55 22zM315 1350q35 0 55 -22t21 -50q0 -28 -20 -50q-19 -22 -55 -22t-56 22t-20 50t20 50t55 22z" />
    <glyph glyph-name="aring" unicode="&#xe5;" horiz-adv-x="1019" 
d="M86 270q0 320 436 320h242v69q0 147 -69 207t-221 60t-286 -74l-22 70q140 84 326 84t275 -94t89 -253v-659h-68l-24 195q-116 -211 -367 -211q-139 0 -225 76q-86 75 -86 210zM764 510h-242q-184 0 -265 -57t-81 -171t62 -166q62 -51 156 -52q93 -1 161 29
q133 59 184 186q25 59 25 120v111zM344 1286q0 70 48 118t118 48t118 -48t48 -118t-48 -118t-118 -48t-118 48t-48 118zM403 1286q0 -53 31 -84t76 -31t76 31t30 84q0 53 -30 84q-31 31 -76 31t-76 -31t-31 -84z" />
    <glyph glyph-name="ae" unicode="&#xe6;" horiz-adv-x="1638" 
d="M1454 614q0 316 -274 316q-164 0 -246 -108.5t-86 -299.5h598q8 36 8 92zM764 510h-242q-184 0 -265 -57.5t-81 -170.5t63 -166t155 -53q171 0 270.5 103.5t99.5 232.5v111zM1540 614q0 -91 -24 -163h-670q13 -278 141.5 -333t239.5 -55t235 70l25 -72q-123 -75 -283 -75
q-302 0 -399 256q-55 -129 -164 -193.5t-244 -64.5q-216 0 -263.5 108.5t-47.5 177.5q0 320 436 320h242v69q0 147 -68.5 207t-220.5 60t-287 -74l-22 70q140 84 332 84q266 0 325 -215q101 215 357 215q172 0 266 -102.5t94 -289.5z" />
    <glyph glyph-name="ccedilla" unicode="&#xe7;" horiz-adv-x="917" 
d="M583 928q-298 0 -369 -258q-47 -172 0 -342q74 -265 365 -265q106 0 232 54l25 -72q-116 -59 -251 -59q-358 0 -457 306q-30 93 -30 204q0 226 119 368t342 142q135 0 260 -54l-22 -71q-96 47 -214 47zM487 -317h-100l148 231h51z" />
    <glyph glyph-name="egrave" unicode="&#xe8;" horiz-adv-x="1007" 
d="M823 614q0 162 -68 239q-69 77 -214 77q-339 0 -348 -408h622q8 36 8 92zM909 614q0 -91 -24 -163h-695q8 -172 100 -280t279 -108q141 0 262 70l25 -72q-126 -77 -291 -75q-228 0 -348 141q-119 141 -119 368t113 369t330 142q180 0 274 -102t94 -290zM670 1163l-27 -37
l-305 209l55 74z" />
    <glyph glyph-name="eacute" unicode="&#xe9;" horiz-adv-x="1007" 
d="M823 614q0 162 -68 239q-69 77 -214 77q-339 0 -348 -408h622q8 36 8 92zM909 614q0 -91 -24 -163h-695q8 -172 100 -280t279 -108q141 0 262 70l25 -72q-126 -77 -291 -75q-228 0 -348 141q-119 141 -119 368t113 369t330 142q180 0 274 -102t94 -290zM614 1409l56 -74
l-305 -209l-27 37z" />
    <glyph glyph-name="ecircumflex" unicode="&#xea;" horiz-adv-x="1007" 
d="M823 614q0 162 -68 239q-69 77 -214 77q-339 0 -348 -408h622q8 36 8 92zM909 614q0 -91 -24 -163h-695q8 -172 100 -280t279 -108q141 0 262 70l25 -72q-126 -77 -291 -75q-228 0 -348 141q-119 141 -119 368t113 369t330 142q180 0 274 -102t94 -290zM774 1124h-67
l-203 203l-203 -203h-68l240 281h62z" />
    <glyph glyph-name="edieresis" unicode="&#xeb;" horiz-adv-x="1007" 
d="M823 614q0 162 -68 239q-69 77 -214 77q-339 0 -348 -408h622q8 36 8 92zM909 614q0 -91 -24 -163h-695q8 -172 100 -280t279 -108q141 0 262 70l25 -72q-126 -77 -291 -75q-228 0 -348 141q-119 141 -119 368t113 369t330 142q180 0 274 -102t94 -290zM698 1350
q36 0 56 -22t20 -50t-20 -50t-56 -22t-55 22q-20 22 -20 50t20 50t55 22zM309 1350q35 0 55 -22t21 -50q0 -28 -20 -50q-19 -22 -55 -22t-56 22t-20 50t20 50t55 22z" />
    <glyph glyph-name="igrave" unicode="&#xec;" horiz-adv-x="442" 
d="M268 0h-94v989h94v-989zM387 1163l-27 -37l-305 209l56 74z" />
    <glyph glyph-name="iacute" unicode="&#xed;" horiz-adv-x="442" 
d="M268 0h-94v989h94v-989zM334 1409l55 -74l-305 -209l-27 37z" />
    <glyph glyph-name="icircumflex" unicode="&#xee;" horiz-adv-x="442" 
d="M268 0h-94v989h94v-989zM494 1124h-68l-203 203l-203 -203h-67l240 281h61z" />
    <glyph glyph-name="idieresis" unicode="&#xef;" horiz-adv-x="442" 
d="M268 0h-94v989h94v-989zM418 1350q35 0 55 -22q21 -22 21 -50t-20 -50t-56 -22q-35 0 -56 22q-20 22 -20 50t20 50t56 22zM29 1350q35 0 55 -22t20 -50t-20 -50t-55 -22t-56 22q-20 22 -20 50q1 28 21 50t55 22z" />
    <glyph glyph-name="eth" unicode="&#xf0;" horiz-adv-x="1134" 
d="M844.5 809q-91.5 119 -276.5 119t-280 -122.5t-95 -314.5q0 -191 97.5 -310.5t273.5 -119.5t274 133.5t98 314.5t-91.5 300zM942 937q86 -181 86 -417t-125 -386t-341 -150t-340 142t-124 361t122.5 369t342.5 150q117 0 190.5 -42t135.5 -112h6q-67 212 -242 360
l-202 -94l-25 53l176 82q-113 84 -246 133l25 58q167 -64 287 -160l200 96l27 -53l-178 -84q139 -125 225 -306z" />
    <glyph glyph-name="ntilde" unicode="&#xf1;" horiz-adv-x="1138" 
d="M975 635v-635h-94v635q0 137 -65 212t-175 75q-163 0 -309 -146q-41 -41 -70 -84v-692h-94v989h70l24 -194q165 208 387 211q156 0 241 -96t85 -275zM690 1221q98 0 107 100h67q-4 -70 -51 -119t-103 -49t-88 15q-32 14 -60 34t-54 36t-59 15q-98 0 -107 -100h-68
q4 70 52 119t102 49q55 0 87 -15q31 -14 59 -34t55 -36t61 -15z" />
    <glyph glyph-name="ograve" unicode="&#xf2;" horiz-adv-x="1085" 
d="M543 63q93 0 159 32q188 91 189 400q2 309 -190 401q-67 32 -159 32t-158 -32q-67 -32 -109 -89q-82 -111 -82 -311q0 -310 191 -401q67 -32 159 -32zM542 1006q217 0 331 -142t114 -367q0 -226 -112 -369q-112 -142 -331 -142q-218 0 -332 142t-114 368t113 368
q114 142 331 142zM709 1163l-27 -37l-305 209l55 74z" />
    <glyph glyph-name="oacute" unicode="&#xf3;" horiz-adv-x="1085" 
d="M543 63q93 0 159 32q188 91 189 400q2 309 -190 401q-67 32 -159 32t-158 -32q-67 -32 -109 -89q-82 -111 -82 -311q0 -310 191 -401q67 -32 159 -32zM542 1006q217 0 331 -142t114 -367q0 -226 -112 -369q-112 -142 -331 -142q-218 0 -332 142t-114 368t113 368
q114 142 331 142zM653 1409l56 -74l-306 -209l-26 37z" />
    <glyph glyph-name="ocircumflex" unicode="&#xf4;" horiz-adv-x="1085" 
d="M543 63q93 0 159 32q188 91 189 400q2 309 -190 401q-67 32 -159 32t-158 -32q-67 -32 -109 -89q-82 -111 -82 -311q0 -310 191 -401q67 -32 159 -32zM542 1006q217 0 331 -142t114 -367q0 -226 -112 -369q-112 -142 -331 -142q-218 0 -332 142t-114 368t113 368
q114 142 331 142zM813 1124h-68l-202 203l-203 -203h-68l240 281h61z" />
    <glyph glyph-name="otilde" unicode="&#xf5;" horiz-adv-x="1085" 
d="M543 63q93 0 159 32q188 91 189 400q2 309 -190 401q-67 32 -159 32t-158 -32q-67 -32 -109 -89q-82 -111 -82 -311q0 -310 191 -401q67 -32 159 -32zM542 1006q217 0 331 -142t114 -367q0 -226 -112 -369q-112 -142 -331 -142q-218 0 -332 142t-114 368t113 368
q114 142 331 142zM664 1221q97 0 106 100h68q-4 -70 -51 -119t-115 -49t-136 50q-28 19 -55 35t-59 15q-98 0 -107 -100h-67q4 70 51 119t103 49t86 -15q32 -14 60 -34t54 -36t62 -15z" />
    <glyph glyph-name="odieresis" unicode="&#xf6;" horiz-adv-x="1085" 
d="M543 63q93 0 159 32q188 91 189 400q2 309 -190 401q-67 32 -159 32t-158 -32q-67 -32 -109 -89q-82 -111 -82 -311q0 -310 191 -401q67 -32 159 -32zM542 1006q217 0 331 -142t114 -367q0 -226 -112 -369q-112 -142 -331 -142q-218 0 -332 142t-114 368t113 368
q114 142 331 142zM737 1350q35 0 55 -22t21 -50q0 -28 -20 -50q-19 -22 -55 -22t-56 22t-20 50t20 50t55 22zM348 1350q35 0 55 -22q21 -22 21 -50t-20 -50t-56 -22q-35 0 -55 22q-21 22 -21 50t20 50t56 22z" />
    <glyph glyph-name="divide" unicode="&#xf7;" horiz-adv-x="1118" 
d="M455 909q0 41 25.5 72t78.5 31t79 -31t26 -72t-26 -71.5t-79 -30.5t-78.5 30.5t-25.5 71.5zM455 268q0 41 25.5 72t78.5 31t79 -31t26 -72t-26 -71.5t-79 -30.5t-78.5 30.5t-25.5 71.5zM991 541h-864v80h864v-80z" />
    <glyph glyph-name="oslash" unicode="&#xf8;" horiz-adv-x="1085" 
d="M539 928q-174 0 -260 -116t-86 -333t108 -325l406 737q-80 37 -168 37zM534 63q188 0 273.5 117.5t85.5 315.5q0 245 -129 358l-408 -743q76 -48 178 -48zM98 496q0 227 113.5 368.5t331.5 141.5q117 0 202 -43l91 161h77l-108 -196q182 -131 182 -432
q0 -229 -113 -369.5t-331 -140.5q-133 0 -228 53l-65 -121h-78l88 160q-162 134 -162 418z" />
    <glyph glyph-name="ugrave" unicode="&#xf9;" horiz-adv-x="1118" 
d="M258 354q0 -288 244 -286q108 0 207 68t147 161v692h94v-989h-69l-25 195q-37 -77 -137 -144q-99 -67 -242 -67t-228 96t-85 274v635h94v-635zM725 1163l-27 -37l-305 209l56 74z" />
    <glyph glyph-name="uacute" unicode="&#xfa;" horiz-adv-x="1118" 
d="M258 354q0 -288 244 -286q108 0 207 68t147 161v692h94v-989h-69l-25 195q-37 -77 -137 -144q-99 -67 -242 -67t-228 96t-85 274v635h94v-635zM670 1409l55 -74l-305 -209l-27 37z" />
    <glyph glyph-name="ucircumflex" unicode="&#xfb;" horiz-adv-x="1118" 
d="M258 354q0 -288 244 -286q108 0 207 68t147 161v692h94v-989h-69l-25 195q-37 -77 -137 -144q-99 -67 -242 -67t-228 96t-85 274v635h94v-635zM829 1124h-67l-203 203l-203 -203h-67l239 281h62z" />
    <glyph glyph-name="udieresis" unicode="&#xfc;" horiz-adv-x="1118" 
d="M258 354q0 -288 244 -286q108 0 207 68t147 161v692h94v-989h-69l-25 195q-37 -77 -137 -144q-99 -67 -242 -67t-228 96t-85 274v635h94v-635zM754 1350q35 0 55 -22t20 -50t-20 -50t-55 -22t-56 22q-20 22 -20 50t20 50t56 22zM365 1350q35 0 55 -22t20 -50t-20 -50
t-55 -22t-56 22q-20 22 -20 50q1 28 21 50t55 22z" />
    <glyph glyph-name="yacute" unicode="&#xfd;" horiz-adv-x="1136" 
d="M258 371q0 -287 244 -287q108 0 205 68t145 161v676h94v-944q0 -455 -389 -455q-111 0 -203 30t-145 65l24 75q53 -34 139 -60t172 -26q85 0 140 20q168 60 168 353v164q-65 -133 -236 -192q-57 -19 -122 -19q-160 0 -245 96t-85 275v618h94v-618zM678 1409l55 -74
l-305 -209l-27 37z" />
    <glyph glyph-name="thorn" unicode="&#xfe;" horiz-adv-x="1124" 
d="M262 434q0 -146 90.5 -256t253.5 -110q216 0 269 155.5t53 271.5q0 215 -83 321t-216 106q-222 0 -367 -230v-258zM262 -391h-94v1771h94v-585q94 139 199.5 175t180.5 36q163 0 271.5 -131t108.5 -384q0 -252 -112 -379.5t-298 -127.5q-235 0 -350 211v-586z" />
    <glyph glyph-name="ydieresis" unicode="&#xff;" horiz-adv-x="1136" 
d="M258 371q0 -287 244 -287q108 0 205 68t145 161v676h94v-944q0 -455 -389 -455q-111 0 -203 30t-145 65l24 75q53 -34 139 -60t172 -26q85 0 140 20q168 60 168 353v164q-65 -133 -236 -192q-57 -19 -122 -19q-160 0 -245 96t-85 275v618h94v-618zM762 1350q35 0 55 -22
q21 -22 21 -50t-20 -50t-56 -22q-35 0 -55 22q-21 22 -21 50t20 50t56 22zM373 1350q35 0 55 -22t20 -50t-20 -50t-55 -22t-56 22q-20 22 -20 50q1 28 21 50t55 22z" />
    <glyph glyph-name="dotlessi" unicode="&#x131;" horiz-adv-x="442" 
d="M268 0h-94v989h94v-989z" />
    <glyph glyph-name="Lslash" unicode="&#x141;" horiz-adv-x="1032" 
d="M180 1380h96v-628l322 141v-78l-322 -141v-586h687v-88h-783v631l-127 -56v78l127 56v671z" />
    <glyph glyph-name="lslash" unicode="&#x142;" horiz-adv-x="442" 
d="M174 1380h94v-630l121 53v-78l-121 -53v-672h-94v629l-121 -54v78l121 54v673z" />
    <glyph glyph-name="OE" unicode="&#x152;" horiz-adv-x="2115" 
d="M689 68q236 0 360.5 165.5t132.5 456.5q0 282 -126.5 452.5t-365.5 170.5t-365 -170t-126 -531t183 -452.5t307 -91.5zM690 -16q-283 0 -435.5 195t-152.5 512t153 511.5t435 194.5q344 0 488 -307v290h823v-86h-727v-540h682v-86h-682v-584h739v-84h-835v291
q-144 -307 -488 -307z" />
    <glyph glyph-name="oe" unicode="&#x153;" horiz-adv-x="1705" 
d="M1522 614q0 162 -69 239t-214 77q-339 0 -348 -408h622q9 40 9 92zM537 928q-344 0 -344 -371.5t125.5 -432.5t231.5 -61t179.5 51.5t108.5 143.5q-41 106 -41 240t39 237q-75 193 -299 193zM1608 614q0 -88 -25 -163h-694q8 -172 100 -280t279 -108q139 0 262 70l24 -72
q-123 -75 -290 -75q-272 0 -390 194q-39 -86 -121.5 -140t-205.5 -54t-205 37.5t-136 106.5t-81 162t-27 262.5t111 310.5t328 141q131 0 216 -55.5t119 -137.5q114 193 367 193q180 0 274.5 -102.5t94.5 -289.5z" />
    <glyph glyph-name="Scaron" unicode="&#x160;" horiz-adv-x="1069" 
d="M231 1051q0 -171 193 -253q59 -26 200 -73t209 -96t103 -111t35 -154q0 -94 -32 -164q-64 -141 -230 -192q-83 -24 -205 -24q-210 0 -363 86l29 80q167 -84 356 -82q247 0 326 161q27 55 27 134q0 141 -107 209q-49 32 -174 72t-202 73q-257 109 -257 343t225 310
q79 27 187 27q182 0 342 -80l-27 -72q-134 66 -308 67q-175 1 -251 -71t-76 -190zM565 1522h-61l-240 280h68l203 -203l202 203h68z" />
    <glyph glyph-name="scaron" unicode="&#x161;" horiz-adv-x="864" 
d="M197 770q1 -90 67 -138t196 -85t214 -107t84 -192t-86 -194q-86 -70 -258 -70t-305 63l24 74q124 -58 267 -58q266 0 268 185q0 131 -165 190q-50 18 -146 48t-174 96q-77 66 -77 182t88 178t206 63q180 2 323 -61l-25 -76q-119 56 -268 58q-233 0 -233 -156zM463 1120
h-62l-239 281h67l203 -203l203 203h67z" />
    <glyph glyph-name="Ydieresis" unicode="&#x178;" horiz-adv-x="1120" 
d="M608 0h-96v573l-475 807h102l420 -721h2l420 721h102l-475 -807v-573zM754 1751q35 1 55 -21t20 -51t-20 -51t-55 -20q-35 0 -56 21q-20 23 -20 51t20 50q21 21 56 21zM365 1751q35 1 55 -21t20 -51t-20 -51t-55 -20q-35 0 -56 21q-20 23 -20 51t20 50q21 21 56 21z" />
    <glyph glyph-name="Zcaron" unicode="&#x17d;" horiz-adv-x="1105" 
d="M152 1294v86h841v-73l-778 -1221h793v-86h-910v72l781 1222h-727zM584 1522h-62l-239 280h67l203 -203l203 203h67z" />
    <glyph glyph-name="zcaron" unicode="&#x17e;" horiz-adv-x="903" 
d="M133 911v78h664v-55l-594 -856h610v-78h-727v55l594 856h-547zM481 1120h-61l-240 281h68l203 -203l202 203h68z" />
    <glyph glyph-name="florin" unicode="&#x192;" horiz-adv-x="1118" 
d="M166 -76q123 0 173 69.5t69 199.5l73 542h-192v78h203l26 188q20 158 97 252.5t231 94.5q96 0 176 -41l-31 -68q-60 29 -139 29q-123 0 -174 -70t-68 -199l-26 -186h305v-78h-316l-73 -545q-23 -158 -98.5 -252t-229.5 -94q-96 0 -176 41l31 68q60 -29 139 -29z" />
    <glyph glyph-name="circumflex" unicode="&#x2c6;" horiz-adv-x="573" 
d="M557 1124h-68l-202 203l-203 -203h-68l240 281h61z" />
    <glyph glyph-name="caron" unicode="&#x2c7;" horiz-adv-x="573" 
d="M317 1120h-61l-240 281h68l203 -203l202 203h68z" />
    <glyph glyph-name="breve" unicode="&#x2d8;" horiz-adv-x="573" 
d="M287 1233q86 0 140 43t71 115h55q-12 -97 -86.5 -162.5t-180.5 -65.5t-179 65.5t-87 162.5h56q16 -72 70.5 -115t140.5 -43z" />
    <glyph glyph-name="dotaccent" unicode="&#x2d9;" horiz-adv-x="573" 
d="M287 1368q39 0 60.5 -22.5t21.5 -55.5t-21.5 -55.5t-60.5 -22.5t-60.5 22.5t-21.5 55.5t21.5 55.5t60.5 22.5z" />
    <glyph glyph-name="ring" unicode="&#x2da;" horiz-adv-x="573" 
d="M121 1286.5q0 69.5 48 117.5t117.5 48t118 -48t48.5 -117.5t-48.5 -118t-118 -48.5t-117.5 48.5t-48 118zM180 1286q0 -53 31 -84t76 -31t75.5 31t30.5 84t-30.5 84t-75.5 31t-76 -31t-31 -84z" />
    <glyph glyph-name="ogonek" unicode="&#x2db;" horiz-adv-x="573" 
d="M250 4h51l131 -190h-100z" />
    <glyph glyph-name="tilde" unicode="&#x2dc;" horiz-adv-x="573" 
d="M408 1221q97 0 106 100h68q-4 -70 -51 -119t-103 -49t-88.5 15.5t-60 35t-54 34.5t-59.5 15q-98 0 -107 -100h-67q4 70 51 119t103 49t87 -15.5t58.5 -35t54.5 -34.5t62 -15z" />
    <glyph glyph-name="hungarumlaut" unicode="&#x2dd;" horiz-adv-x="573" 
d="M553 1393h84l-182 -256h-52zM266 1393h84l-182 -256h-51z" />
    <glyph glyph-name="uni03A9" unicode="&#x3a9;" horiz-adv-x="1495" 
d="M747.5 1309q-236.5 0 -370 -143.5t-133.5 -409.5q0 -217 116 -392t261 -292v-72h-394v84h283q-154 154 -258.5 320.5t-104.5 383.5q0 280 162.5 444.5t438.5 164.5t438 -164.5t162 -444.5q0 -214 -105.5 -382t-259.5 -322h285v-84h-396v72q246 201 312.5 382t66.5 308
t-34.5 230.5t-133.5 210t-335.5 106.5z" />
    <glyph glyph-name="pi" unicode="&#x3c0;" horiz-adv-x="1212" 
d="M983 -12q-207 0 -207 282v635h-342v-543q0 -177 -57 -362h-92q55 171 55 362v543q-155 -4 -254 -41l-12 84q105 41 266 41h788v-84h-258v-651q0 -195 127 -195q65 0 111 29l22 -63q-53 -37 -147 -37z" />
    <glyph glyph-name="uni0E00" unicode="&#xe00;" horiz-adv-x="399" 
 />
    <glyph glyph-name="uni0E01" unicode="&#xe01;" horiz-adv-x="1214" 
d="M948 0v725q0 160 -92 257t-246 97t-249 -67.5t-142 -161.5l193 -152v-18q-70 -25 -107 -80t-37 -127v-473h-96v461q0 78 34 140.5t99 90.5l-190 148q44 131 175 227t300 96q209 0 331.5 -122.5t122.5 -315.5v-725h-96z" />
    <glyph glyph-name="uni0E02" unicode="&#xe02;" horiz-adv-x="1110" 
d="M297 1147q154 0 154 -146v-57q0 -61 -32 -113.5t-71 -102.5t-70.5 -100t-31.5 -104v-164q0 -166 75.5 -229t223 -63t223.5 63.5t76 228.5v787h96v-785q0 -199 -101.5 -288.5t-294 -89.5t-293.5 90t-101 288v162q0 59 32.5 111.5t71.5 102.5t71.5 100.5t32.5 105.5v60
q0 33 -13 48t-48 15h-135v80h135z" />
    <glyph glyph-name="uni0E03" unicode="&#xe03;" horiz-adv-x="1122" 
d="M348 1155q131 0 131 -149v-60q0 -61 -34.5 -114.5t-77.5 -104.5t-78 -102.5t-35 -104.5v-160q0 -166 76 -229t223 -63t223 63.5t76 228.5v787h96v-785q0 -199 -101.5 -288.5t-294 -89.5t-293.5 90t-101 288v158q0 59 35.5 112.5t78.5 104.5t79 102.5t36 106.5v60
q0 66 -55 65q-61 0 -94 -82l-152 92v82l135 -84q45 76 127 76z" />
    <glyph glyph-name="uni0E04" unicode="&#xe04;" horiz-adv-x="1253" 
d="M547 625h129v-88h-129q-109 0 -179.5 -64.5t-101.5 -171.5v-301h-96v729q0 189 118.5 311.5t338 122.5t338 -122.5t118.5 -311.5v-729h-96v729q0 158 -91 254t-269 96t-269.5 -95t-91.5 -253v-291q31 78 104.5 131.5t176.5 53.5z" />
    <glyph glyph-name="uni0E05" unicode="&#xe05;" horiz-adv-x="1265" 
d="M268 842v-402q31 78 104.5 131.5t176.5 53.5h129v-88h-129q-109 0 -179.5 -64.5t-101.5 -171.5v-301h-96v840q0 143 64.5 220t187.5 103l209 -145l209 145q123 -27 187.5 -103.5t64.5 -219.5v-840h-97v842q0 197 -149 235l-215 -145l-215 145q-150 -39 -150 -235z" />
    <glyph glyph-name="uni0E06" unicode="&#xe06;" horiz-adv-x="1212" 
d="M344 1155q131 0 131 -149v-60q0 -61 -31.5 -114.5t-70.5 -104.5t-71 -102.5t-32 -104.5v-170q90 -198 209 -240t187 -42q154 0 217 92t63 252v735h96v-737q0 -426 -358 -426q-125 0 -232.5 55t-177.5 176l-14 -215h-86v520q0 59 33 112.5t71.5 104.5t71.5 102.5t33 106.5
v60q0 66 -55 65q-60 0 -95 -82l-151 92v82l135 -84q45 76 127 76z" />
    <glyph glyph-name="uni0E07" unicode="&#xe07;" horiz-adv-x="1110" 
d="M600 1163q176 0 283.5 -136t107.5 -414t-143.5 -445.5t-364.5 -167.5h-92l-358 1147h92l338 -1063h24q168 0 288 151.5t120 384.5t-85.5 346t-215.5 113q-69 0 -131 -24l-14 78q67 30 151 30z" />
    <glyph glyph-name="uni0E08" unicode="&#xe08;" horiz-adv-x="1087" 
d="M57 1018q187 145 424 145t366.5 -148.5t129.5 -407.5t-136.5 -433t-344.5 -174h-95l-120 510q-12 51 -64 51h-80v80h82q78 0 108.5 -29.5t43.5 -83.5l106 -448h35q147 0 258 144t111 380q0 235 -101.5 355t-294.5 120q-133 0 -225 -39t-172 -92z" />
    <glyph glyph-name="uni0E09" unicode="&#xe09;" horiz-adv-x="1189" 
d="M205 332v180q0 49 -43 49h-64v80h64q139 0 139 -129v-178q0 -149 48.5 -207.5t180.5 -58.5t234.5 78t159.5 204v348q0 178 -92.5 279.5t-299.5 101.5t-399 -129l-39 74q205 139 445 139t360.5 -128.5t120.5 -336.5v-698h-86l-14 215q-138 -231 -404 -231
q-160 0 -235.5 77.5t-75.5 270.5z" />
    <glyph glyph-name="uni0E0A" unicode="&#xe0a;" horiz-adv-x="1114" 
d="M297 1147q154 0 154 -146v-57q0 -61 -32 -113.5t-71 -102.5t-70.5 -100t-31.5 -104v-164q0 -166 76.5 -229t224 -63t224.5 63.5t77 228.5v236q0 92 -45 145.5t-117 53.5h-49l-14 41l231 311h107l-224 -291q98 -10 152.5 -83t54.5 -175v-236q0 -199 -102.5 -288.5
t-295 -89.5t-294.5 90t-102 288v162q0 59 32.5 111.5t71.5 102.5t71.5 100.5t32.5 105.5v60q0 33 -13 48t-48 15h-135v80h135z" />
    <glyph glyph-name="uni0E0B" unicode="&#xe0b;" horiz-adv-x="1122" 
d="M348 1155q131 0 131 -149v-60q0 -61 -34.5 -114.5t-77.5 -104.5t-78 -102.5t-35 -104.5v-160q0 -166 77 -229t224 -63t224 63.5t77 228.5v236q0 92 -45 145.5t-117 53.5h-49l-14 41l231 311h107l-224 -291q98 -10 152.5 -83t54.5 -175v-236q0 -199 -102 -288.5
t-295 -89.5t-295 90t-102 288v158q0 59 35.5 112.5t78.5 104.5t79 102.5t36 106.5v60q0 66 -55 65q-61 0 -94 -82l-152 92v82l135 -84q45 76 127 76z" />
    <glyph glyph-name="uni0E0C" unicode="&#xe0c;" horiz-adv-x="1865" 
d="M1454 68q145 0 145 311v768h97v-770q0 -393 -307 -393q-123 0 -226.5 60t-161.5 171l-14 -215h-86v725q0 160 -80 257t-246 97q-127 0 -218 -67.5t-138 -161.5l193 -152v-18q-70 -25 -107 -80t-37 -127v-321q0 -72 70 -72h108v-80h-116q-72 0 -115 37t-43 110v314
q0 78 34 140.5t99 90.5l-190 148q44 131 170.5 227t289.5 96q205 0 313.5 -122t108.5 -316v-375q90 -198 201 -240t256 -42z" />
    <glyph glyph-name="uni0E0D" unicode="&#xe0d;" horiz-adv-x="1865" 
d="M993 358q-1 -274 229 -274q123 0 221 78.5t152 204.5v780h97v-1006q0 -233 -107.5 -337.5t-307.5 -104.5t-341 92l25 76q137 -84 304 -84t246.5 81t79.5 279v88q-57 -111 -158.5 -171t-202.5 -60q-182 0 -257.5 91.5t-75.5 264.5v369q0 160 -78 257t-244 97
q-127 0 -218 -67.5t-138 -161.5l193 -152v-18q-70 -25 -107 -80t-37 -127v-321q0 -72 70 -72h108v-80h-116q-72 0 -115 37t-43 110v314q0 78 34 140.5t99 90.5l-190 148q44 131 170.5 227t289.5 96q203 0 310.5 -120.5t107.5 -317.5v-367z" />
    <glyph glyph-name="uni0E0E" unicode="&#xe0e;" horiz-adv-x="1224" 
d="M309 141q0 -141 -149 -141h-82v80h74q61 0 61 65v316q0 78 36 137t95 88l-219 141q45 133 177.5 234.5t301.5 101.5q212 0 331.5 -123t119.5 -315v-1135h-115q-141 125 -322 125t-309 -123l-26 82q120 125 323 125q102 0 197.5 -40t154.5 -97v1063q0 160 -90 257t-264 97
q-123 0 -224.5 -68.5t-148.5 -164.5l228 -154v-18q-70 -25 -110 -77t-40 -124v-332z" />
    <glyph glyph-name="uni0E0F" unicode="&#xe0f;" horiz-adv-x="1224" 
d="M309 141q0 -141 -149 -141h-82v80h74q61 0 61 65v316q0 78 36 137t95 88l-219 141q45 133 177.5 234.5t301.5 101.5q212 0 331.5 -123t119.5 -315v-1135h-101l-272 164q-35 -86 -101.5 -131t-179.5 -45t-208 66l28 82q98 -68 198 -68q177 0 226 213l313 -186v1040
q0 160 -90 257t-264 97q-123 0 -224.5 -68.5t-148.5 -164.5l228 -154v-18q-70 -25 -110 -77t-40 -124v-332z" />
    <glyph glyph-name="uni0E10" unicode="&#xe10;" horiz-adv-x="1087" 
d="M815 -330v121h84v-201h-178q-127 0 -213 107q-74 -106 -211 -107h-125v80h139q68 0 120 38t79 91q75 -129 203 -129h102zM823 1036q154 -150 154 -419t-136.5 -443t-344.5 -174h-95l-120 510q-12 51 -64 51h-80v80h82q78 0 108.5 -29.5t43.5 -83.5l106 -448h35
q147 0 258 144t111 374q0 229 -101.5 355t-294.5 126q-133 0 -226 -36.5t-171 -94.5l-31 70q187 145 430 145q149 0 271 -76l125 140h110z" />
    <glyph glyph-name="uni0E11" unicode="&#xe11;" horiz-adv-x="1228" 
d="M782 1163q192 0 233.5 -134t41.5 -234v-795h-96v793q0 160 -46.5 223t-129.5 63t-171 -55t-164.5 -142t-128 -195.5t-51.5 -215.5v-471h-96v459q0 208 89 325t124 152v70q0 66 -55 65q-61 0 -94 -82l-152 92v82l135 -84q45 76 127 76q131 0 131 -145q137 153 303 153z
" />
    <glyph glyph-name="uni0E12" unicode="&#xe12;" horiz-adv-x="1990" 
d="M1479 -16q-260 0 -394 231l-14 -215h-86v858q0 186 -135 219l-176 -121l-166 115q-130 -26 -215.5 -165t-85.5 -358q0 -218 94.5 -347t249.5 -129q86 0 145 28l17 -73q-68 -39 -164 -39q-192 0 -315 149.5t-123 408.5q0 260 113 419.5t282 197.5l168 -125l168 125
q113 -23 176 -93.5t63 -213.5v-506q91 -199 202.5 -240.5t176.5 -41.5q147 0 205.5 92t58.5 252v735h97v-737q0 -426 -342 -426z" />
    <glyph glyph-name="uni0E13" unicode="&#xe13;" horiz-adv-x="1865" 
d="M993 342q-1 -274 229 -274q123 0 220 77.5t153 204.5v797h97v-1147h-86l-15 215q-57 -111 -158.5 -171t-202.5 -60q-182 0 -257.5 91.5t-75.5 264.5v385q0 160 -78 257t-244 97q-127 0 -218 -67.5t-138 -161.5l193 -152v-18q-70 -25 -107 -80t-37 -127v-321q0 -72 70 -72
h108v-80h-116q-72 0 -115 37t-43 110v314q0 78 34 140.5t99 90.5l-190 148q44 131 170.5 227t289.5 96q203 0 310.5 -120.5t107.5 -317.5v-383z" />
    <glyph glyph-name="uni0E14" unicode="&#xe14;" horiz-adv-x="1247" 
d="M111 544q0 270 137.5 444.5t367.5 174.5t345.5 -130t115.5 -333v-700h-96v702q0 170 -86 273.5t-262 103.5q-211 0 -318.5 -150t-107.5 -382t102.5 -355.5t251.5 -123.5q67 0 129 22l17 -70q-63 -32 -149 -32q-186 1 -316.5 143.5t-130.5 412.5z" />
    <glyph glyph-name="uni0E15" unicode="&#xe15;" horiz-adv-x="1265" 
d="M556 72q80 0 140 30l17 -73q-70 -41 -165 -41q-191 0 -314 149.5t-123 408.5q0 260 113 419.5t282 197.5l172 -125l172 125q113 -23 178.5 -93.5t65.5 -213.5v-856h-97v858q0 185 -139 219l-180 -121l-170 115q-130 -26 -215.5 -165t-85.5 -358q0 -218 94.5 -347
t254.5 -129z" />
    <glyph glyph-name="uni0E16" unicode="&#xe16;" horiz-adv-x="1216" 
d="M446 80v-80h-116q-72 0 -115 37t-43 110v314q0 78 34 140.5t99 90.5l-190 148q44 131 175 227t300 96q211 0 334 -123t123 -315v-725h-97v725q0 160 -93 257t-247 97t-249 -67.5t-142 -161.5l193 -152v-18q-70 -25 -107 -80t-37 -127v-321q0 -72 70 -72h108z" />
    <glyph glyph-name="uni0E17" unicode="&#xe17;" horiz-adv-x="1239" 
d="M721 1163q348 0 348 -397v-766h-96v764q0 160 -60.5 237.5t-192.5 77.5t-257 -78.5t-193 -195.5v-805h-96v1147h86l14 -215q84 102 197 166.5t250 64.5z" />
    <glyph glyph-name="uni0E18" unicode="&#xe18;" horiz-adv-x="1105" 
d="M547 1083q-205 0 -275.5 -49t-70.5 -137t47 -130t145 -58l355 -56q137 -23 188 -86t51 -168v-104q0 -180 -93 -245.5t-339 -65.5t-342 70.5t-96 258.5v93h92v-93q0 -146 72.5 -198t272.5 -52t255 35t70.5 80t15.5 117v106q0 82 -39 121t-117 51l-350 52
q-135 23 -207.5 85t-72.5 184t96 195.5t323 73.5t400 -80l-21 -73q-155 73 -360 73z" />
    <glyph glyph-name="uni0E19" unicode="&#xe19;" horiz-adv-x="1212" 
d="M266 395q0 -160 56.5 -243.5t197.5 -83.5t253.5 79.5t168.5 202.5v797h96v-1147h-86l-14 215q-70 -117 -184.5 -174t-239.5 -57q-344 0 -344 409v754h96v-752z" />
    <glyph glyph-name="uni0E1A" unicode="&#xe1a;" horiz-adv-x="1208" 
d="M266 403q0 -335 338 -335t338 335v744h96v-744q0 -205 -107.5 -312t-326.5 -107t-326.5 107.5t-107.5 311.5v744h96v-744z" />
    <glyph glyph-name="uni0E1B" unicode="&#xe1b;" horiz-adv-x="1208" 
d="M266 403q0 -335 338 -335t338 335v1133h96v-1133q0 -205 -107.5 -312t-326.5 -107t-326.5 107.5t-107.5 311.5v744h96v-744z" />
    <glyph glyph-name="uni0E1C" unicode="&#xe1c;" horiz-adv-x="1310" 
d="M1042 332v815h95v-1147h-107l-313 612q-42 83 -55 144h-5q-13 -61 -55 -144l-321 -612h-107v999q0 74 43 111t115 37h104v-80h-96q-33 0 -52.5 -18.5t-19.5 -53.5v-663q0 -112 -16 -228h2q31 95 72 175l288 546h91l282 -546q31 -64 70 -175h2q-17 121 -17 228z" />
    <glyph glyph-name="uni0E1D" unicode="&#xe1d;" horiz-adv-x="1310" 
d="M1042 332v1204h95v-1536h-107l-313 612q-42 83 -55 144h-5q-13 -61 -55 -144l-321 -612h-107v999q0 74 43 111t115 37h104v-80h-96q-33 0 -52.5 -18.5t-19.5 -53.5v-663q0 -112 -16 -228h2q31 95 72 175l288 546h91l282 -546q31 -64 70 -175h2q-17 121 -17 228z" />
    <glyph glyph-name="uni0E1E" unicode="&#xe1e;" horiz-adv-x="1376" 
d="M991 291q31 -94 47 -189h4q4 117 17 203l135 842h96l-186 -1147h-109l-266 809q-30 97 -39 180h-4q-9 -82 -39 -180l-266 -809h-109l-186 1147h96l135 -842q13 -87 17 -203h4q17 97 47 189l260 799h86z" />
    <glyph glyph-name="uni0E1F" unicode="&#xe1f;" horiz-adv-x="1376" 
d="M1020 291q31 -94 47 -189h4q4 125 16 203l146 1231h92l-188 -1536h-109l-285 809q-28 92 -38 180h-5q-10 -88 -38 -180l-281 -809h-109l-186 1147h96l135 -842q13 -87 17 -203h4q17 97 47 189l277 799h86z" />
    <glyph glyph-name="uni0E20" unicode="&#xe20;" horiz-adv-x="1224" 
d="M309 141q0 -141 -149 -141h-82v80h74q61 0 61 65v316q0 78 36 137t95 88l-219 141q45 133 177.5 234.5t301.5 101.5q212 0 331.5 -123t119.5 -315v-725h-97v725q0 160 -90 257t-264 97q-123 0 -224.5 -68.5t-148.5 -164.5l228 -154v-18q-70 -25 -110 -77t-40 -124v-332z
" />
    <glyph glyph-name="uni0E21" unicode="&#xe21;" horiz-adv-x="1212" 
d="M1042 410q0 -426 -358 -426q-125 0 -232.5 55t-177.5 176l-14 -215h-86v1147h96v-797q90 -198 209 -240t187 -42q154 0 217 92t63 252v735h96v-737z" />
    <glyph glyph-name="uni0E22" unicode="&#xe22;" horiz-adv-x="1165" 
d="M387 1079q-92 0 -138 -50.5t-46 -116.5t21.5 -102t74.5 -75t145 -39h146l8 -86h-125q-114 0 -190 -78t-76 -204t100 -193t254 -67q338 0 338 335v744h96v-744q0 -205 -107.5 -312t-317.5 -107t-334.5 91t-124.5 263q0 237 211 309q-211 55 -211 250q0 111 68.5 186.5
t197.5 75.5q90 0 166 -31l-15 -75q-49 26 -141 26z" />
    <glyph glyph-name="uni0E23" unicode="&#xe23;" horiz-adv-x="989" 
d="M502 1083q-293 0 -293 -202q0 -149 115.5 -189.5t173.5 -57.5q167 -48 276 -121t109 -219t-98.5 -228t-303.5 -82q-117 0 -219 26.5t-160 61.5l27 75q53 -35 146.5 -59.5t199.5 -24.5q315 0 316 232q0 154 -137.5 200t-195.5 63q-155 45 -248 112.5t-93 204.5t95 212.5
t280 75.5t342 -76l-23 -73q-140 69 -309 69z" />
    <glyph glyph-name="uni0E24" unicode="&#xe24;" horiz-adv-x="1216" 
d="M446 80v-80h-116q-72 0 -115 37t-43 110v314q0 78 34 140.5t99 90.5l-190 148q44 131 175 227t300 96q211 0 334 -123t123 -315v-1135h-97v1135q0 160 -93 257t-247 97t-249 -67.5t-142 -161.5l193 -152v-18q-70 -25 -107 -80t-37 -127v-321q0 -72 70 -72h108z" />
    <glyph glyph-name="uni0E25" unicode="&#xe25;" horiz-adv-x="1146" 
d="M567 1079q-218 0 -389 -118l-33 73q66 47 174.5 88t245.5 41q199 0 305.5 -109.5t106.5 -301.5v-752h-96v598h-299q-190 0 -295 -63.5t-105 -219.5q0 -124 78.5 -188t182 -64t180.5 35l18 -73q-72 -41 -168 -41q-178 0 -282.5 84t-104.5 245q0 365 498 365h297v72
q0 162 -75 245.5t-239 83.5z" />
    <glyph glyph-name="uni0E26" unicode="&#xe26;" horiz-adv-x="1257" 
d="M309 141q0 -141 -149 -141h-82v80h74q61 0 61 65v316q0 78 36 137t95 88l-219 141q45 133 177.5 234.5t301.5 101.5q212 0 331.5 -123t119.5 -315v-1135h-97v1135q0 160 -90 257t-264 97q-123 0 -224.5 -68.5t-148.5 -164.5l228 -154v-18q-70 -25 -110 -77t-40 -124v-332
z" />
    <glyph glyph-name="uni0E27" unicode="&#xe27;" horiz-adv-x="1024" 
d="M428 68q188 0 288.5 119.5t100.5 390.5q0 501 -385 501q-180 0 -336 -96l-22 76q59 37 155.5 70.5t208.5 33.5q223 0 349 -155t126 -442t-121.5 -434.5t-342.5 -147.5t-369 88l24 80q136 -84 324 -84z" />
    <glyph glyph-name="uni0E28" unicode="&#xe28;" horiz-adv-x="1253" 
d="M1083 725v-725h-96v725q0 160 -93 257t-269 97t-267.5 -95t-91.5 -253v-291q31 78 104.5 131.5t176.5 53.5h129v-88h-129q-109 0 -179.5 -64.5t-101.5 -171.5v-301h-96v729q0 189 118.5 311.5t338.5 122.5q154 0 268 -73l123 137h110l-170 -191q125 -121 125 -311z" />
    <glyph glyph-name="uni0E29" unicode="&#xe29;" horiz-adv-x="1232" 
d="M604 68q338 0 338 335v238h-285v80h285v426h96v-426h162l-20 -80h-142v-238q0 -205 -107.5 -312t-326.5 -107t-326.5 107.5t-107.5 311.5v744h96v-744q0 -335 338 -335z" />
    <glyph glyph-name="uni0E2A" unicode="&#xe2a;" horiz-adv-x="1146" 
d="M569 1163q141 0 240 -67l119 131h110l-166 -185q104 -115 105 -294v-748h-96v598h-299q-190 0 -295 -63.5t-105 -219.5q0 -124 78.5 -188t182 -64t180.5 35l18 -73q-72 -41 -168 -41q-178 0 -282.5 84t-104.5 245q0 365 498 365h297v67q0 162 -75 248t-239 86
q-218 0 -389 -118l-33 73q66 47 174.5 88t249.5 41z" />
    <glyph glyph-name="uni0E2B" unicode="&#xe2b;" horiz-adv-x="1169" 
d="M270 0h-96v1147h96v-531l633 531h137l-397 -330q117 -20 184.5 -89t102.5 -196l149 -532h-98l-145 522q-35 113 -95.5 168t-177.5 62l-293 -244v-508z" />
    <glyph glyph-name="uni0E2C" unicode="&#xe2c;" horiz-adv-x="1310" 
d="M1042 332v581q0 92 -45 142.5t-116 50.5h-50l-14 41l264 389h107l-260 -373q100 -10 155.5 -77.5t53.5 -167.5v-918h-107l-321 612q-44 86 -56 144h-4q-11 -55 -55 -144l-313 -612h-107v1147h94v-815q0 -112 -16 -228h2q34 106 70 175l282 546h90l289 -546
q38 -79 72 -175h2q-17 121 -17 228z" />
    <glyph glyph-name="uni0E2D" unicode="&#xe2d;" horiz-adv-x="1167" 
d="M127 1022q197 141 430 141q234 0 367 -162t133 -444q0 -283 -122 -428t-384 -145q-213 0 -324.5 107.5t-111.5 293.5v66q0 86 49 138t141 52h178v-80h-174q-45 0 -72.5 -29.5t-27.5 -82.5v-64q0 -147 83.5 -232t275.5 -85q394 0 393 493q0 258 -111 388t-313 130
t-373 -129z" />
    <glyph glyph-name="uni0E2E" unicode="&#xe2e;" horiz-adv-x="1167" 
d="M1057 555q0 -281 -122 -426t-384 -145q-213 0 -324.5 107.5t-111.5 293.5v66q0 86 49 138t141 52h178v-80h-174q-45 0 -72.5 -29.5t-27.5 -82.5v-64q0 -147 83.5 -232t275.5 -85q394 0 393 493q0 258 -111 388t-313 130t-373 -129l-37 72q197 141 422 141q141 0 252 -63
l114 127h111l-158 -174q189 -160 189 -498z" />
    <glyph glyph-name="uni0E2F" unicode="&#xe2f;" horiz-adv-x="1056" 
d="M416 664q-322 0 -322 393v90h92v-92q0 -164 59.5 -241t192.5 -77t246 113t113 240v57h86v-1147h-97v887q-40 -91 -140.5 -157t-229.5 -66z" />
    <glyph glyph-name="uni0E30" unicode="&#xe30;" horiz-adv-x="579" 
d="M258 197q-164 0 -164 141v61h92v-47q0 -41 18.5 -58.5t65.5 -17.5h207v-79h-219zM258 805q-164 0 -164 141v62h92v-47q0 -41 18.5 -58.5t65.5 -17.5h207v-80h-219z" />
    <glyph glyph-name="uni0E31" unicode="&#xe31;" 
d="M-393 1319q-164 0 -164 141v74h92v-59q0 -41 18.5 -58.5t65.5 -17.5h510v-80h-522z" />
    <glyph glyph-name="uni0E32" unicode="&#xe32;" horiz-adv-x="925" 
d="M381 1163q375 0 375 -413v-750h-97v758q0 172 -68.5 246.5t-203.5 74.5q-181 0 -336 -114l-26 73q59 47 154 86t202 39z" />
    <glyph glyph-name="uni0E33" unicode="&#xe33;" horiz-adv-x="925" 
d="M-55 1444q0 -74 -49.5 -122t-119 -48t-118.5 48t-49 122t49 122t118.5 48t119 -48t49.5 -122zM-322 1444q0 -47 31 -75t68 -28t67.5 28t30.5 75t-30.5 74.5t-67.5 27.5t-68 -27.5t-31 -74.5zM381 1163q375 0 375 -413v-750h-97v758q0 172 -68.5 246.5t-203.5 74.5
q-181 0 -336 -114l-26 73q59 47 154 86t202 39z" />
    <glyph glyph-name="uni0E34" unicode="&#xe34;" 
d="M-1014 1319v80h844v-80h-844z" />
    <glyph glyph-name="uni0E35" unicode="&#xe35;" 
d="M-1014 1319v80h752v203h92v-283h-844z" />
    <glyph glyph-name="uni0E36" unicode="&#xe36;" 
d="M-358 1469q0 -36 21 -56t51 -20t51.5 20.5t21.5 56.5t-21.5 56t-51.5 20t-51 -20.5t-21 -56.5zM-434 1481q0 50 44 94.5t104 44.5t104.5 -44t44.5 -106t-44 -106.5t-106 -44.5h-727v80h606q-26 32 -26 82z" />
    <glyph glyph-name="uni0E37" unicode="&#xe37;" 
d="M-1014 1319v80h568v203h88v-207h100v207h88v-283h-844z" />
    <glyph glyph-name="uni0E38" unicode="&#xe38;" 
d="M-262 -295q0 57 -53 57h-62v76h72q66 0 100.5 -31.5t34.5 -105.5v-182h-92v186z" />
    <glyph glyph-name="uni0E39" unicode="&#xe39;" 
d="M-612 -238h-93v76h185v-149q0 -70 31.5 -94.5t97 -24.5t97.5 24.5t32 94.5v149h92v-149q0 -195 -221 -195t-221 195v73z" />
    <glyph glyph-name="uni0E3A" unicode="&#xe3a;" 
d="M-319 -242q0 39 27.5 67t68.5 28t68.5 -28t27.5 -67t-27.5 -66.5t-68.5 -27.5t-68.5 27.5t-27.5 66.5z" />
    <glyph glyph-name="uni0E3F" unicode="&#xe3f;" horiz-adv-x="1118" 
d="M881 996q0 226 -244 247v-512q111 14 177.5 80.5t66.5 184.5zM940 371q0 143 -81 203.5t-222 70.5v-557q303 19 303 283zM565 729v516h-295v-516h295zM565 86v561h-295v-561h295zM565 0h-391v1331h391v205h72v-207q160 -14 251 -98t91 -215t-66 -214.5t-163 -107.5
q122 -13 205 -98t83 -232t-98 -248.5t-303 -115.5v-205h-72v205z" />
    <glyph glyph-name="uni0E40" unicode="&#xe40;" horiz-adv-x="450" 
d="M178 0v1147h94v-1147h-94z" />
    <glyph glyph-name="uni0E41" unicode="&#xe41;" horiz-adv-x="851" 
d="M580 0v1147h94v-1147h-94zM178 0v1147h94v-1147h-94z" />
    <glyph glyph-name="uni0E42" unicode="&#xe42;" horiz-adv-x="507" 
d="M461 1829q-129 0 -215 -36t-150 -114q117 -63 172.5 -179t55.5 -255v-1245h-95v1262q0 156 -66 243.5t-163 147.5l-4 33q66 106 178.5 166.5t237.5 60.5t195.5 -18.5t117.5 -36.5l-23 -78q-112 49 -241 49z" />
    <glyph glyph-name="uni0E43" unicode="&#xe43;" horiz-adv-x="507" 
d="M-47 1753q138 160 338 160q129 0 204.5 -75.5t75.5 -171.5t-38.5 -159t-85 -123.5t-85 -126t-38.5 -153.5v-1104h-95v1130q0 82 39 151t85 131.5t85 120.5t39 127t-47 119t-149 50q-163 0 -295 -141z" />
    <glyph glyph-name="uni0E44" unicode="&#xe44;" horiz-adv-x="507" 
d="M229 0v1411q0 123 46.5 229.5t144.5 165.5h-502v80h614v-78q-100 -55 -154 -150t-54 -206v-1452h-95z" />
    <glyph glyph-name="uni0E45" unicode="&#xe45;" horiz-adv-x="925" 
d="M381 1163q375 0 375 -413v-1160h-97v1168q0 172 -68.5 246.5t-203.5 74.5q-181 0 -336 -114l-26 73q59 47 154 86t202 39z" />
    <glyph glyph-name="uni0E46" unicode="&#xe46;" horiz-adv-x="1118" 
d="M848 -410v1272q0 84 -38 141.5t-99 65.5l-181 -125l-178 127q-55 -4 -100 -53.5t-45 -122.5q0 -74 49 -120t133 -46q41 0 82 12l16 -71q-97 -35 -201 -6t-139.5 100.5t-35.5 132.5q0 109 78.5 181t179.5 85l159 -125l166 125q117 -12 183.5 -90t66.5 -223v-1260h-96z" />
    <glyph glyph-name="uni0E47" unicode="&#xe47;" 
d="M-393 1397h155v-78h-147q-37 0 -80 19.5t-57 70.5q-12 -51 -57.5 -73.5t-92.5 -22.5q-88 0 -136 50t-48 120t49.5 126t144.5 56h424v-74h-417q-53 0 -84 -29.5t-31 -75.5t29.5 -76t72.5 -30q87 0 109 78h72q17 -61 94 -61z" />
    <glyph glyph-name="uni0E48" unicode="&#xe48;" 
d="M-260 1714v250h88v-250h-88z" />
    <glyph glyph-name="uni0E49" unicode="&#xe49;" 
d="M-414 1974q92 0 92 -94v-63q0 -29 29 -29h268v-74h-288q-94 0 -95 86v64q0 39 -38 39h-91v71h123z" />
    <glyph glyph-name="uni0E4A" unicode="&#xe4a;" 
d="M-158 1761q90 36 90 132q0 50 -20 94h84q20 -40 20 -99t-55.5 -116.5t-148.5 -57.5h-45l-7 21q19 25 19 59q0 33 -13.5 60.5t-31.5 33.5l-101 -61l-98 65q-37 -14 -37 -114q0 -32 15 -68h-76q-19 34 -19 94q0 59 35 100.5t94 57.5l88 -64l95 66q51 -4 85.5 -45t34.5 -87
t-8 -71z" />
    <glyph glyph-name="uni0E4B" unicode="&#xe4b;" 
d="M-410 1925l154 -2l-2 143h84l-2 -143l156 2v-67l-156 2l2 -146h-84l2 146l-154 -2v67z" />
    <glyph glyph-name="uni0E4C" unicode="&#xe4c;" 
d="M-233 1659q-93 0 -93 -86v-45h-90v59q0 63 42 104.5t126 41.5h195v-74h-180z" />
    <glyph glyph-name="uni0E4D" unicode="&#xe4d;" 
d="M-55 1444q0 -74 -49.5 -122t-119 -48t-118.5 48t-49 122t49 122t118.5 48t119 -48t49.5 -122zM-322 1444q0 -47 31 -75t68 -28t67.5 28t30.5 75t-30.5 74.5t-67.5 27.5t-68 -27.5t-31 -74.5z" />
    <glyph glyph-name="uni0E4E" unicode="&#xe4e;" 
d="M-581 1362.5q-52 43.5 -52 112.5t55.5 114.5t163.5 30.5q-39 31 -39 75t32 78.5t97 34.5h93l16 -63h-84q-47 0 -63.5 -19.5t-16.5 -39.5t12.5 -46t36.5 -41l-18 -47q-50 15 -98 15q-47 0 -74 -27.5t-27 -65.5t29 -64t73 -26t78 9v-56q-32 -18 -97 -18t-117 43.5z" />
    <glyph glyph-name="uni0E4F" unicode="&#xe4f;" horiz-adv-x="1118" 
d="M559 332q66 0 111 46t45 112t-46.5 111.5t-110.5 45.5t-111.5 -46.5t-47.5 -110.5t47 -111t113 -47zM393 326q-69 68 -69 166t69 165.5t165 67.5t165.5 -68t69.5 -167t-70 -165.5t-166 -66.5q-95 0 -164 68zM828 221.5q112 110.5 112 270.5q0 159 -112 269.5t-269 110.5
q-158 0 -269.5 -111t-111.5 -269t111.5 -269.5t269.5 -111.5q157 0 269 110.5zM559 53q-90 0 -170 35t-139.5 94.5t-93 139t-33.5 170t33.5 170t93 139t139.5 93.5t170 34t170 -34t139.5 -93.5t93 -139t33.5 -170t-33.5 -170t-93 -139t-139.5 -94.5t-170 -35z" />
    <glyph glyph-name="uni0E50" unicode="&#xe50;" horiz-adv-x="1282" 
d="M641 61q92 0 172 31t138.5 87.5t92 136t33.5 180t-33.5 180.5t-92 136t-138.5 86t-172 30t-172 -30t-138.5 -86t-92 -136t-33.5 -180.5t33.5 -180t92 -136t138.5 -87.5t172 -31zM1019 863.5q152 -142.5 152 -368.5t-151 -368.5t-379 -142.5t-379 143.5t-151 367.5
t151.5 367.5t378.5 143.5q226 0 378 -142.5z" />
    <glyph glyph-name="uni0E51" unicode="&#xe51;" horiz-adv-x="1312" 
d="M117 511q0 210 146.5 352.5t393.5 142.5t389 -173t142 -427q0 -297 -171.5 -467t-428.5 -170h-43l6 77h49q202 0 348 137t146 418q0 369 -168 448t-274 79q-200 0 -322.5 -119.5t-122.5 -294.5t90.5 -267.5t237.5 -92.5q72 0 151 36l10 -75q-84 -43 -168 -43
q-174 0 -292.5 114.5t-118.5 324.5z" />
    <glyph glyph-name="uni0E52" unicode="&#xe52;" horiz-adv-x="1505" 
d="M526 715q0 -171 205 -234l-33 -71q-117 25 -189.5 101.5t-72.5 199.5t67.5 198.5t180.5 96.5l199 -156l180 156q147 -18 212.5 -99.5t65.5 -234.5v-295q0 -168 -97 -272.5t-275 -104.5h-432q-177 0 -273 103t-96 274v770h94v-770q0 -158 79 -228.5t206 -70.5h409
q129 0 210 70.5t81 228.5v301q0 224 -168 244l-196 -156l-203 149q-72 -16 -113 -72.5t-41 -127.5z" />
    <glyph glyph-name="uni0E53" unicode="&#xe53;" horiz-adv-x="1327" 
d="M127 486q0 224 94 372t208 148t171 -41t80 -113q33 72 94.5 113t135.5 41q252 0 253 -330v-676h-94v680q0 111 -29.5 175.5t-123.5 64.5q-95 0 -146 -61.5t-51 -153.5v-312h-84v312q0 90 -35.5 152.5t-111.5 62.5q-134 0 -200.5 -124.5t-66.5 -312.5t68 -305t174 -117
q59 0 106 27l21 -65q-49 -35 -125 -35q-151 0 -244.5 137t-93.5 361z" />
    <glyph glyph-name="uni0E54" unicode="&#xe54;" horiz-adv-x="1202" 
d="M899 989q172 0 172 127v31h90v-31q0 -109 -64.5 -157t-197.5 -48h-262q-193 0 -312.5 -115.5t-119.5 -312.5q0 -198 95 -310t219 -112t190 93q-41 72 -41 178t65.5 179t181.5 73h111l-14 -74h-97q-78 0 -117.5 -55t-39.5 -125q0 -129 70.5 -192.5t185.5 -63.5h119
l-13 -74h-114q-158 0 -252 94q-87 -110 -250 -110t-278 133.5t-115 364.5t144.5 369t379.5 138h264z" />
    <glyph glyph-name="uni0E55" unicode="&#xe55;" horiz-adv-x="1202" 
d="M487 1067q0 -41 25.5 -65.5t61.5 -24.5t60.5 25.5t24.5 66.5t-24.5 65.5t-60.5 24.5t-61.5 -25.5t-25.5 -66.5zM111 459q0 209 93 334t251 172q-39 43 -39 107t47 110.5t112.5 46.5t111.5 -47.5t46 -101.5t-20 -91h186q172 0 172 127v31h90v-31q0 -109 -64.5 -157
t-197.5 -48h-262q-193 0 -312.5 -115.5t-119.5 -312.5q0 -198 95 -310t219 -112t190 93q-41 72 -41 178t65.5 179t181.5 73h111l-14 -74h-97q-78 0 -117.5 -55t-39.5 -125q0 -129 70.5 -192.5t185.5 -63.5h119l-13 -74h-114q-158 0 -252 94q-87 -110 -250 -110t-278 133
t-115 342z" />
    <glyph glyph-name="uni0E56" unicode="&#xe56;" horiz-adv-x="1230" 
d="M242 359q0 -127 94 -212.5t287 -85.5q194 0 298.5 122t104.5 317t-100 311.5t-283 116.5q-141 0 -227 -54.5t-142 -130.5h-88l-145 420h88l115 -348q141 191 401 191q204 0 339.5 -141.5t135.5 -364.5q0 -357 -186 -436.5t-312 -79.5q-227 0 -348.5 103.5t-121.5 260.5
q0 120 69 189l72 -52q-51 -60 -51 -126z" />
    <glyph glyph-name="uni0E57" unicode="&#xe57;" horiz-adv-x="1615" 
d="M127 482q0 220 87.5 372t230.5 152q142 0 190 -146q66 146 197 146q241 1 241 -330v-590h60q102 0 163.5 52t61.5 181v828h94v-819q0 -154 -80 -241t-242 -87h-151v680q0 114 -25 177t-107 63q-81 0 -127 -61.5t-46 -153.5v-91h-84v91q0 105 -26.5 160t-110.5 55
q-108 0 -170 -125t-62 -312q0 -188 68 -305t174 -117q59 0 106 27l21 -65q-49 -35 -125 -35q-151 0 -244.5 137t-93.5 357z" />
    <glyph glyph-name="uni0E58" unicode="&#xe58;" horiz-adv-x="1259" 
d="M883 989q172 0 172 127v31h90v-31q0 -109 -64.5 -157t-197.5 -48h-281q-178 0 -267 -90t-89 -241v-263q0 -104 56 -167.5t142 -67.5l224 223l239 -219q74 25 125 92.5t51 157.5t-47 144.5t-118 80.5l36 74q98 -20 161 -109.5t63 -175.5q0 -145 -88 -247.5t-195 -110.5
l-227 211l-199 -211q-143 8 -230 90t-87 231v279q0 170 122 283.5t316 113.5h293z" />
    <glyph glyph-name="uni0E59" unicode="&#xe59;" horiz-adv-x="1210" 
d="M111 502q0 227 96 365.5t262 138.5q86 0 146 -48t92 -116q10 74 58 119t119 45t115.5 -48.5t61.5 -109.5l53 299h76l-78 -410h-76q-14 92 -57 145.5t-103 53.5t-95.5 -58.5t-35.5 -136.5l259 -741h-84l-261 739q-32 87 -73.5 138t-109.5 51q-130 0 -200.5 -118
t-70.5 -308t72 -315.5t178 -125.5q59 0 106 27l21 -65q-49 -35 -125 -35q-149 0 -247.5 143.5t-98.5 370.5z" />
    <glyph glyph-name="uni0E5B" unicode="&#xe5b;" horiz-adv-x="2291" 
d="M2095 377q-164 0 -278 258l-101 -381h-41l-153 459l-140 -496h-43l-147 463q-65 -239 -218 -398t-356 -159t-343 134.5t-140 326.5t112 315t280 123t260.5 -100t105.5 -242h-76q-27 185 -120 226.5t-163 41.5q-139 0 -225 -103t-86 -260t111 -269.5t278 -112.5
q123 0 218.5 67.5t195.5 221t119 401.5h51l168 -526l129 483h53l146 -459l116 414h37q20 -156 89 -257.5t171 -101.5q49 0 103 21l22 -59q-72 -31 -135 -31z" />
    <glyph glyph-name="endash" unicode="&#x2013;" horiz-adv-x="1036" 
d="M963 569v-75h-889v75h889z" />
    <glyph glyph-name="emdash" unicode="&#x2014;" horiz-adv-x="1990" 
d="M1835 569v-75h-1679v75h1679z" />
    <glyph glyph-name="quoteleft" unicode="&#x2018;" horiz-adv-x="374" 
d="M193 1110q0 -20 2.5 -28.5t24.5 -8.5t39 -17.5t17 -49.5t-19 -51t-55 -19q-79 0 -79 101t44 208t62 139l31 -10q-67 -132 -67 -264z" />
    <glyph glyph-name="quoteright" unicode="&#x2019;" horiz-adv-x="374" 
d="M182 1227q0 20 -3 28.5t-25 8.5t-39 17t-17 49t19.5 51.5t55.5 19.5q79 0 79 -102t-44 -208t-63 -139l-30 11q67 132 67 264z" />
    <glyph glyph-name="quotesinglbase" unicode="&#x201a;" horiz-adv-x="374" 
d="M182 37q0 20 -3 28.5t-25 8.5t-39 17t-17 49t19.5 51.5t55.5 19.5q79 0 79 -102t-44 -208t-63 -139l-30 11q67 132 67 264z" />
    <glyph glyph-name="quotedblleft" unicode="&#x201c;" horiz-adv-x="667" 
d="M193 1110q0 -20 2.5 -28.5t24.5 -8.5t39 -17.5t17 -49.5t-19 -51t-55 -19q-79 0 -79 101t44 208t62 139l31 -10q-67 -132 -67 -264zM485 1110q0 -20 3.5 -28.5t25.5 -8.5t38.5 -17.5t16.5 -49.5t-19.5 -51t-55.5 -19t-57 22.5t-21 63.5q0 80 34 187t72 175l31 -10
q-68 -134 -68 -264z" />
    <glyph glyph-name="quotedblright" unicode="&#x201d;" horiz-adv-x="667" 
d="M475 1227q0 20 -2.5 28.5t-24.5 8.5t-39.5 17t-17.5 49t19.5 51.5t55.5 19.5q79 0 79 -102t-44 -208t-63 -139l-30 11q67 132 67 264zM182 1227q0 20 -3 28.5t-25 8.5t-39 17t-17 49t19.5 51.5t55.5 19.5q79 0 79 -102t-44 -208t-63 -139l-30 11q67 132 67 264z" />
    <glyph glyph-name="quotedblbase" unicode="&#x201e;" horiz-adv-x="667" 
d="M475 37q0 20 -2.5 28.5t-24.5 8.5t-39.5 17t-17.5 49t19.5 51.5t55.5 19.5q79 0 79 -102t-44 -208t-63 -139l-30 11q67 132 67 264zM182 37q0 20 -3 28.5t-25 8.5t-39 17t-17 49t19.5 51.5t55.5 19.5q79 0 79 -102t-44 -208t-63 -139l-30 11q67 132 67 264z" />
    <glyph glyph-name="dagger" unicode="&#x2020;" horiz-adv-x="1081" 
d="M586 1380v-417h356v-58h-356v-905h-90v905h-357v58h357v417h90z" />
    <glyph glyph-name="daggerdbl" unicode="&#x2021;" horiz-adv-x="1081" 
d="M496 -102v417h-357v58h357v532h-357v58h357v417h90v-417h356v-58h-356v-532h356v-58h-356v-417h-90z" />
    <glyph glyph-name="bullet" unicode="&#x2022;" horiz-adv-x="593" 
d="M115 721q0 74 45 128t137 54t137 -54t45 -128t-45 -128t-137 -54t-137 54t-45 128z" />
    <glyph glyph-name="ellipsis" unicode="&#x2026;" horiz-adv-x="1327" 
d="M1020 67.5q0 34.5 21.5 59.5t64.5 25t64.5 -25t21.5 -59.5t-21.5 -59t-64.5 -24.5t-64.5 24.5t-21.5 59zM578 67.5q0 34.5 21.5 59.5t64.5 25t64.5 -25t21.5 -59.5t-21.5 -59t-64.5 -24.5t-64.5 24.5t-21.5 59zM135 67.5q0 34.5 21.5 59.5t64.5 25t64.5 -25t21.5 -59.5
t-21.5 -59t-64.5 -24.5t-64.5 24.5t-21.5 59z" />
    <glyph glyph-name="perthousand" unicode="&#x2030;" horiz-adv-x="2224" 
d="M1569 340q0 68 18.5 132.5t53 114.5t87 79.5t118 29.5t116.5 -29.5t87 -79.5t54.5 -114.5t18.5 -132.5t-18.5 -132.5t-54.5 -114.5t-87 -79.5t-116.5 -29.5t-118 29.5t-87 79.5t-53 114.5t-18.5 132.5zM1649 340q0 -55 12 -107.5t36.5 -92.5t61.5 -64.5t86 -24.5t86 24.5
t61.5 64.5t37 92.5t12.5 107.5t-12.5 107.5t-37 92.5t-61.5 64.5t-86 24.5t-86 -24.5t-61.5 -64.5t-36.5 -92.5t-12 -107.5zM868 340q0 68 18.5 132.5t53.5 114.5t87 79.5t117.5 29.5t117 -29.5t87 -79.5t54 -114.5t18.5 -132.5t-18.5 -132.5t-54 -114.5t-87 -79.5
t-117 -29.5t-117.5 29.5t-87 79.5t-53.5 114.5t-18.5 132.5zM948 340q0 -55 12.5 -107.5t37 -92.5t61.5 -64.5t86 -24.5t86 24.5t61.5 64.5t36.5 92.5t12 107.5t-12 107.5t-36.5 92.5t-61.5 64.5t-86 24.5t-86 -24.5t-61.5 -64.5t-37 -92.5t-12.5 -107.5zM102 991.5
q0 67.5 18.5 132t53.5 114.5t87 80t117.5 30t117 -30t87 -80t54 -114.5t18.5 -132t-18.5 -132t-54 -115t-87 -80t-117 -29.5t-117.5 29.5t-87 80t-53.5 115t-18.5 132zM182 991.5q0 -55.5 12.5 -108t37 -92t61.5 -64.5t86 -25t86 25t61.5 64.5t36.5 92t12 108t-12 107.5
t-36.5 92t-61.5 64.5t-86 24.5t-86 -24.5t-61.5 -64.5t-37 -92t-12.5 -107.5zM1094 1352h86l-750 -1352h-86z" />
    <glyph glyph-name="guilsinglleft" unicode="&#x2039;" horiz-adv-x="536" 
d="M354 860h88l-266 -364l266 -365h-88l-272 365z" />
    <glyph glyph-name="guilsinglright" unicode="&#x203a;" horiz-adv-x="536" 
d="M455 496l-273 -365h-88l266 365l-266 364h88z" />
    <glyph glyph-name="fraction" unicode="&#x2044;" horiz-adv-x="835" 
d="M750 1352h86l-750 -1352h-86z" />
    <glyph glyph-name="Euro" unicode="&#x20ac;" horiz-adv-x="1118" 
d="M256 618v81q0 37 4 89h-172l23 70h159q59 360 225.5 449.5t268.5 89.5t164.5 -32t109.5 -75l-22 -71q-90 90 -230 90q-176 0 -282 -128.5t-137 -322.5h483l-23 -70h-471q-4 -50 -4 -102t6 -102h492l-23 -70h-458q37 -196 151.5 -320t282.5 -124q133 0 229 92l25 -74
q-47 -47 -106 -76.5t-163 -29.5q-203 0 -339 152.5t-177 379.5h-184l23 70h149q-4 27 -4 34z" />
    <glyph glyph-name="afii61289" unicode="&#x2113;" horiz-adv-x="778" 
d="M250 283v161q-48 -48 -180 -122l-33 57q102 53 213 147v475q0 297 88 358.5t149 61.5q98 0 158 -70.5t60 -205.5q0 -388 -361 -645v-217q0 -106 25.5 -163t107.5 -57q54 0 111 25l22 -70q-61 -32 -149 -32t-149.5 66.5t-61.5 230.5zM610 1158q0 186 -121 185
q-78 0 -111.5 -80.5t-33.5 -261.5v-411q217 173 241.5 317.5t24.5 250.5z" />
    <glyph glyph-name="trademark" unicode="&#x2122;" horiz-adv-x="1564" 
d="M829 1212v-608h-84v776h111l195 -444q34 -68 51 -131h4q15 55 51 131l195 444h110v-776h-84v312q0 312 6 372h-6q-16 -65 -69 -188l-156 -352h-98l-156 352q-48 107 -70 188h-6q6 -60 6 -76zM365 604h-84v707l-240 -2v71h563v-71l-239 2v-707z" />
    <glyph glyph-name="Omega" unicode="&#x2126;" horiz-adv-x="1495" 
d="M747.5 1309q-236.5 0 -370 -143.5t-133.5 -409.5q0 -217 116 -392t261 -292v-72h-394v84h283q-154 154 -258.5 320.5t-104.5 383.5q0 280 162.5 444.5t438.5 164.5t438 -164.5t162 -444.5q0 -214 -105.5 -382t-259.5 -322h285v-84h-396v72q246 201 312.5 382t66.5 308
t-34.5 230.5t-133.5 210t-335.5 106.5z" />
    <glyph glyph-name="estimated" unicode="&#x212e;" horiz-adv-x="1675" 
d="M551 1213.5q-137 -78.5 -199 -150.5v-373h971v373q-60 81 -194.5 155t-287.5 74t-290 -78.5zM1602 633h-1250v-375q52 -66 194 -147.5t293 -81.5t287.5 74t196.5 155h147q-117 -141 -284.5 -213t-336.5 -72t-308.5 50.5t-242.5 141.5t-163.5 218t-60.5 278t60.5 277.5
t163.5 217.5t242.5 142.5t297 51.5t297 -50.5t243 -140.5t164 -213t60.5 -268v-45z" />
    <glyph glyph-name="partialdiff" unicode="&#x2202;" horiz-adv-x="1200" 
d="M590 864q262 0 366 -225q37 180 37 323q0 142 -72.5 228t-212.5 86t-251 -62l-13 70q126 64 293 64q168 0 260.5 -102.5t92.5 -301.5q0 -315 -140.5 -569t-278 -322.5t-233.5 -68.5q-172 0 -254 88.5t-82 208.5t37 221.5t103.5 181.5t161 130t186.5 50zM199 291
q0 -115 61.5 -175.5t159.5 -60.5q176 0 314 144.5t194 365.5q-111 228 -306 228t-309 -153.5t-114 -348.5z" />
    <glyph glyph-name="Delta" unicode="&#x2206;" horiz-adv-x="1257" 
d="M205 86h848l-424 1139zM655 1380l521 -1380h-1094l522 1380h51z" />
    <glyph glyph-name="product" unicode="&#x220f;" horiz-adv-x="1204" 
d="M184 1380h836v-1478h-96v1394h-643v-1394h-97v1478z" />
    <glyph glyph-name="summation" unicode="&#x2211;" horiz-adv-x="1089" 
d="M82 -104v61l561 692l-520 660v71h823v-84h-706l505 -647l-542 -669h784v-84h-905z" />
    <glyph glyph-name="minus" unicode="&#x2212;" horiz-adv-x="1118" 
d="M991 541h-864v80h864v-80z" />
    <glyph glyph-name="radical" unicode="&#x221a;" horiz-adv-x="1058" 
d="M41 752v79h233l228 -786l379 1335h96l-406 -1407h-129l-235 779h-166z" />
    <glyph glyph-name="infinity" unicode="&#x221e;" horiz-adv-x="1531" 
d="M1091.5 920q156.5 0 239 -80.5t82.5 -203.5t-79.5 -204.5t-195.5 -81.5t-208 68.5t-156 167.5q-186 -236 -368 -236q-123 0 -205 78t-82 206t81 207t208 79q156 0 240.5 -93.5t117.5 -138.5q169 232 325.5 232zM1337 636q0 94 -55.5 160t-159.5 66t-179 -60.5
t-150 -166.5q144 -227 323 -227q104 0 162.5 67t58.5 161zM409 862q-99 0 -156.5 -66.5t-57.5 -164.5t63.5 -160.5t153.5 -62.5q167 0 323 231q-59 104 -143 163.5t-183 59.5z" />
    <glyph glyph-name="integral" unicode="&#x222b;" horiz-adv-x="831" 
d="M236 -29q82 0 107.5 56.5t25.5 162.5v910q0 164 61.5 230.5t149.5 66.5t149 -33l-22 -70q-58 25 -111 25q-82 0 -107.5 -56.5t-25.5 -162.5v-910q0 -296 -219 -296q-81 0 -142 32l23 70q57 -25 111 -25z" />
    <glyph glyph-name="approxequal" unicode="&#x2248;" horiz-adv-x="1118" 
d="M387 428q-128 0 -217 -125l-41 41q69 104 141 134t126 30t96.5 -19.5t79 -43t72.5 -43t87 -19.5q128 0 217 125l41 -41q-63 -102 -139 -133t-130 -31t-97 19.5t-79 43t-72 43t-85 19.5zM387 817q-128 0 -217 -125l-41 41q69 104 141 134t126 30t96.5 -19.5t79 -43
t72.5 -43t87 -19.5q128 0 217 125l41 -41q-63 -102 -139 -133t-130 -31t-97 19.5t-79 43t-72 43t-85 19.5z" />
    <glyph glyph-name="notequal" unicode="&#x2260;" horiz-adv-x="1118" 
d="M967 356h-455l-141 -356h-64l142 356h-297v80h327l127 320h-454v80h487l139 348h66l-139 -348h262v-80h-295l-127 -320h422v-80z" />
    <glyph glyph-name="lessequal" unicode="&#x2264;" horiz-adv-x="1118" 
d="M954 0h-831v63h831v-63zM123 645l831 473v-94l-729 -410l729 -409v-94l-831 473v61z" />
    <glyph glyph-name="greaterequal" unicode="&#x2265;" horiz-adv-x="1118" 
d="M995 0h-831v63h831v-63zM995 584l-831 -473v94l729 409l-729 410v94l831 -473v-61z" />
    <glyph glyph-name="lozenge" unicode="&#x25ca;" horiz-adv-x="1163" 
d="M551 1401h61l469 -701l-469 -700h-61l-469 700zM582 92l401 608l-401 609l-406 -609z" />
    <glyph glyph-name="uni0E10.alt1" unicode="&#xf700;" horiz-adv-x="1087" 
d="M823 1036q154 -150 154 -419t-136.5 -443t-344.5 -174h-95l-120 510q-12 51 -64 51h-80v80h82q78 0 108.5 -29.5t43.5 -83.5l106 -448h35q147 0 258 144t111 374q0 229 -101.5 355t-294.5 126q-133 0 -226 -36.5t-171 -94.5l-31 70q187 145 430 145q149 0 271 -76
l125 140h110z" />
    <glyph glyph-name="uni0E34.alt1" unicode="&#xf701;" 
d="M-1137 1319v80h742v-80h-742z" />
    <glyph glyph-name="uni0E35.alt1" unicode="&#xf702;" 
d="M-1137 1319v80h650v203h92v-283h-742z" />
    <glyph glyph-name="uni0E36.alt1" unicode="&#xf703;" 
d="M-584 1469q0 -36 21.5 -56t51.5 -20t51.5 20.5t21.5 56.5t-21.5 56t-51.5 20t-51.5 -20.5t-21.5 -56.5zM-659 1481q0 50 44 94.5t104 44.5t104.5 -44t44.5 -106t-44.5 -106.5t-105.5 -44.5h-625v80h504q-26 32 -26 82z" />
    <glyph glyph-name="uni0E37.alt1" unicode="&#xf704;" 
d="M-1137 1319v80h465v203h88v-207h101v207h88v-283h-742z" />
    <glyph glyph-name="uni0E48.alt1" unicode="&#xf705;" 
d="M-655 1319v313h96v-313h-96z" />
    <glyph glyph-name="uni0E49.alt1" unicode="&#xf706;" 
d="M-682 1432q0 -33 33 -33h305v-80h-326q-51 0 -79.5 25.5t-28.5 72.5v76q0 45 -45 45h-105v78h142q104 0 104 -109v-75z" />
    <glyph glyph-name="uni0E4A.alt1" unicode="&#xf707;" 
d="M-547 1374q109 49 109 155q0 61 -23 101h96q23 -54 23 -94q0 -85 -64 -151t-169 -66h-52l-6 24q21 29 21 73q0 80 -52 102l-114 -70l-105 74q-49 -24 -49 -122q0 -52 17 -85h-89q-20 46 -20 110t40 112t107 65l101 -72l108 74q57 -8 97.5 -53.5t40.5 -94.5t-17 -82z" />
    <glyph glyph-name="uni0E4B.alt1" unicode="&#xf708;" 
d="M-831 1565l174 -4l-2 168h92l-2 -168l178 4v-78l-178 2l2 -170h-92l2 170l-174 -2v78z" />
    <glyph glyph-name="uni0E4C.alt1" unicode="&#xf709;" 
d="M-612 1470q-97 0 -97 -92v-59h-92v76q0 68 45 111.5t133 43.5h222v-80h-211z" />
    <glyph glyph-name="uni0E48.alt2" unicode="&#xf70a;" 
d="M-266 1319v313h96v-313h-96z" />
    <glyph glyph-name="uni0E49.alt2" unicode="&#xf70b;" 
d="M-354 1432q0 -33 32 -33h306v-80h-326q-51 0 -80 25.5t-29 72.5v76q0 45 -45 45h-104v78h141q105 0 105 -109v-75z" />
    <glyph glyph-name="uni0E4A.alt2" unicode="&#xf70c;" 
d="M-522 1522q-49 -24 -49 -121q0 -51 16 -86h-88q-21 48 -21 111t40 111t108 65l100 -72l109 74q57 -8 97 -53.5t40 -94.5t-16 -82q51 23 79.5 58.5t28.5 97.5t-22 100h96q22 -51 22 -93q0 -87 -64 -152.5t-169 -65.5h-51l-6 24q20 27 20 72q0 80 -51 103l-115 -70z" />
    <glyph glyph-name="uni0E4B.alt2" unicode="&#xf70d;" 
d="M-442 1565l174 -4l-2 168h92l-2 -168l178 4v-78l-178 2l2 -170h-92l2 170l-174 -2v78z" />
    <glyph glyph-name="uni0E4C.alt2" unicode="&#xf70e;" 
d="M-264 1470q-55 0 -75.5 -24.5t-20.5 -67.5v-59h-93v76q0 68 45.5 111.5t133.5 43.5h227v-80h-217z" />
    <glyph glyph-name="uni0E0D.alt1" unicode="&#xf70f;" horiz-adv-x="1865" 
d="M997 358q0 -290 301 -290t301 290v789h97v-791q0 -188 -103.5 -280t-294 -92t-294 92t-103.5 280v369q0 160 -80 257t-246 97q-127 0 -218 -67.5t-138 -161.5l193 -152v-18q-70 -25 -107 -80t-37 -127v-321q0 -72 70 -72h108v-80h-116q-72 0 -115 37t-43 110v314
q0 78 34 140.5t99 90.5l-190 148q44 131 170.5 227t289.5 96q205 0 313.5 -122t108.5 -316v-367z" />
    <glyph glyph-name="uni0E31.alt1" unicode="&#xf710;" 
d="M-700 1319q-164 0 -164 141v74h92v-59q0 -41 18.5 -58.5t65.5 -17.5h422v-80h-434z" />
    <glyph glyph-name="uni0E4D.alt1" unicode="&#xf711;" 
d="M-453 1444q0 -74 -49 -122t-118.5 -48t-118.5 48t-49 122t49 122t118.5 48t118.5 -48t49 -122zM-719 1444q0 -47 31 -75t67.5 -28t67.5 28t31 75t-31 74.5t-67.5 27.5t-67.5 -27.5t-31 -74.5z" />
    <glyph glyph-name="uni0E47.alt1" unicode="&#xf712;" 
d="M-549 1397h156v-78h-148q-37 0 -80 19.5t-57 70.5q-12 -51 -57 -73.5t-92 -22.5q-88 0 -136.5 50t-48.5 120t49.5 126t145.5 56h424v-74h-418q-53 0 -84 -29.5t-31 -75.5t30 -76t73 -30q86 0 108 78h72q17 -61 94 -61z" />
    <glyph glyph-name="uni0E48.alt3" unicode="&#xf713;" 
d="M-483 1714v250h88v-250h-88z" />
    <glyph glyph-name="uni0E49.alt3" unicode="&#xf714;" 
d="M-248 1788v-74h-289q-94 0 -94 86v64q0 39 -39 39h-90v71h123q43 0 68 -20t24 -74v-63q0 -29 29 -29h268z" />
    <glyph glyph-name="uni0E4A.alt3" unicode="&#xf715;" 
d="M-688 1892q-37 -15 -37 -114q0 -33 14 -68h-75q-19 34 -19 94q0 58 35 100t94 58l88 -64l94 66q51 -4 86 -45t35 -87t-8 -71q91 37 91 134q0 52 -21 92h84q20 -41 20 -79q0 -126 -117 -176q-39 -17 -88 -18h-45l-6 21q16 21 17 56q2 35 -12 63t-31 34l-101 -61z" />
    <glyph glyph-name="uni0E4B.alt3" unicode="&#xf716;" 
d="M-633 1925l154 -2l-2 143h84l-2 -143l155 2v-67l-155 2l2 -146h-84l2 146l-154 -2v67z" />
    <glyph glyph-name="uni0E4C.alt3" unicode="&#xf717;" 
d="M-457 1659q-53 0 -72 -24t-20 -62v-45h-90v59q0 63 42 105t126 41h195v-74h-181z" />
    <glyph glyph-name="uni0E38.alt1" unicode="&#xf718;" 
d="M-305 -479q135 0 135 -137v-162h-92v166q0 57 -53 57h-62v76h72z" />
    <glyph glyph-name="uni0E39.alt1" unicode="&#xf719;" 
d="M-612 -555h-93v76h185v-129q0 -70 31.5 -94.5t97 -24.5t97.5 24.5t32 94.5v129h92v-129q0 -195 -221 -195t-221 195v53z" />
    <glyph glyph-name="uni0E3A.alt1" unicode="&#xf71a;" 
d="M-319 -565q0 39 27.5 66.5t68.5 27.5t68.5 -27.5t27.5 -66.5t-27.5 -66.5t-68.5 -27.5t-68.5 27.5t-27.5 66.5z" />
    <glyph glyph-name="uni0E0E.alt1" unicode="&#xf71b;" horiz-adv-x="1224" 
d="M309 141q0 -141 -149 -141h-82v80h74q61 0 61 65v316q0 78 36 137t95 88l-219 141q45 133 177.5 234.5t301.5 101.5q212 0 331.5 -123t119.5 -315v-1094h-115q-141 125 -322 125t-309 -123l-26 82q120 125 323 125q102 0 197.5 -40t154.5 -97v1022q0 160 -90 257t-264 97
q-123 0 -224.5 -68.5t-148.5 -164.5l228 -154v-18q-70 -25 -110 -77t-40 -124v-332z" />
    <glyph glyph-name="uni0E0F.alt1" unicode="&#xf71c;" horiz-adv-x="1224" 
d="M309 141q0 -141 -149 -141h-82v80h74q61 0 61 65v316q0 78 36 137t95 88l-219 141q45 133 177.5 234.5t301.5 101.5q212 0 331.5 -123t119.5 -315v-1094h-101l-272 164q-35 -86 -101.5 -131t-179.5 -45t-208 66l28 82q98 -68 198 -68q177 0 226 213l313 -186v999
q0 160 -90 257t-264 97q-123 0 -224.5 -68.5t-148.5 -164.5l228 -154v-18q-70 -25 -110 -77t-40 -124v-332z" />
    <glyph glyph-name="uni0E2C.alt1" unicode="&#xf71d;" horiz-adv-x="1310" 
d="M1042 332v344q0 92 -45 145t-116 53h-50l-14 41l232 312h106l-223 -291q98 -10 151.5 -83t53.5 -175v-678h-107l-321 612q-44 86 -56 144h-4q-11 -55 -55 -144l-313 -612h-107v1147h94v-815q0 -112 -16 -228h2q34 106 70 175l282 546h90l289 -546q38 -79 72 -175h2
q-17 121 -17 228z" />
    <glyph glyph-name="uni0E33.alt1" horiz-adv-x="925" 
d="M-453 1444q0 -74 -49 -122t-118.5 -48t-118.5 48t-49 122t49 122t118.5 48t118.5 -48t49 -122zM-719 1444q0 -47 31 -75t67.5 -28t67.5 28t31 75t-31 74.5t-67.5 27.5t-67.5 -27.5t-31 -74.5zM381 1163q375 0 375 -413v-750h-97v758q0 172 -68.5 246.5t-203.5 74.5
q-181 0 -336 -114l-26 73q59 47 154 86t202 39z" />
    <glyph glyph-name="uni0E4E.alt1" 
d="M-724 1362.5q-52 43.5 -52 113.5t56 114.5t163 29.5q-39 31 -39 75t32 78.5t97 34.5h92l17 -63h-84q-47 0 -63.5 -19.5t-16.5 -39.5q0 -57 49 -87l-19 -47q-50 15 -97 15q-48 0 -74.5 -27.5t-26.5 -65.5t28.5 -64t72.5 -26t79 9v-56q-32 -18 -97 -18t-117 43.5z" />
    </font>
</defs>
</svg>
